%TF.GenerationSoftware,KiCad,Pcbnew,9.0.3*%
%TF.CreationDate,2025-11-10T22:11:33+01:00*%
%TF.ProjectId,rover,726f7665-722e-46b6-9963-61645f706362,rev?*%
%TF.SameCoordinates,Original*%
%TF.FileFunction,Copper,L1,Top*%
%TF.FilePolarity,Positive*%
%FSLAX46Y46*%
G04 Gerber Fmt 4.6, Leading zero omitted, Abs format (unit mm)*
G04 Created by KiCad (PCBNEW 9.0.3) date 2025-11-10 22:11:33*
%MOMM*%
%LPD*%
G01*
G04 APERTURE LIST*
G04 Aperture macros list*
%AMRoundRect*
0 Rectangle with rounded corners*
0 $1 Rounding radius*
0 $2 $3 $4 $5 $6 $7 $8 $9 X,Y pos of 4 corners*
0 Add a 4 corners polygon primitive as box body*
4,1,4,$2,$3,$4,$5,$6,$7,$8,$9,$2,$3,0*
0 Add four circle primitives for the rounded corners*
1,1,$1+$1,$2,$3*
1,1,$1+$1,$4,$5*
1,1,$1+$1,$6,$7*
1,1,$1+$1,$8,$9*
0 Add four rect primitives between the rounded corners*
20,1,$1+$1,$2,$3,$4,$5,0*
20,1,$1+$1,$4,$5,$6,$7,0*
20,1,$1+$1,$6,$7,$8,$9,0*
20,1,$1+$1,$8,$9,$2,$3,0*%
%AMFreePoly0*
4,1,21,-0.952500,0.702500,-0.933470,0.798171,-0.879277,0.879277,-0.798171,0.933470,-0.702500,0.952500,0.702500,0.952500,0.798171,0.933470,0.879277,0.879277,0.933470,0.798171,0.952500,0.702500,0.952500,-0.702500,0.933470,-0.798171,0.879277,-0.879277,0.798171,-0.933470,0.702500,-0.952500,-0.702500,-0.952500,-0.798171,-0.933470,-0.879277,-0.879277,-0.933470,-0.798171,-0.952500,-0.702500,
-0.952500,0.702500,-0.952500,0.702500,$1*%
G04 Aperture macros list end*
%TA.AperFunction,ComponentPad*%
%ADD10RoundRect,0.250000X0.350000X-0.350000X0.350000X0.350000X-0.350000X0.350000X-0.350000X-0.350000X0*%
%TD*%
%TA.AperFunction,ComponentPad*%
%ADD11C,1.200000*%
%TD*%
%TA.AperFunction,ComponentPad*%
%ADD12RoundRect,0.250000X0.550000X-0.550000X0.550000X0.550000X-0.550000X0.550000X-0.550000X-0.550000X0*%
%TD*%
%TA.AperFunction,ComponentPad*%
%ADD13C,1.600000*%
%TD*%
%TA.AperFunction,ComponentPad*%
%ADD14C,1.400000*%
%TD*%
%TA.AperFunction,ComponentPad*%
%ADD15R,1.700000X1.700000*%
%TD*%
%TA.AperFunction,ComponentPad*%
%ADD16C,1.700000*%
%TD*%
%TA.AperFunction,ComponentPad*%
%ADD17O,1.700000X1.700000*%
%TD*%
%TA.AperFunction,ComponentPad*%
%ADD18RoundRect,0.240000X-0.660000X-0.560000X0.660000X-0.560000X0.660000X0.560000X-0.660000X0.560000X0*%
%TD*%
%TA.AperFunction,ComponentPad*%
%ADD19C,1.800000*%
%TD*%
%TA.AperFunction,ComponentPad*%
%ADD20FreePoly0,180.000000*%
%TD*%
%TA.AperFunction,ComponentPad*%
%ADD21C,1.905000*%
%TD*%
%TA.AperFunction,ComponentPad*%
%ADD22R,2.000000X2.000000*%
%TD*%
%TA.AperFunction,ComponentPad*%
%ADD23O,2.000000X1.600000*%
%TD*%
%TA.AperFunction,Conductor*%
%ADD24C,0.300000*%
%TD*%
G04 APERTURE END LIST*
D10*
%TO.P,C7,1*%
%TO.N,/+5V*%
X179959000Y-210268600D03*
D11*
%TO.P,C7,2*%
%TO.N,GND*%
X179959000Y-208268600D03*
%TD*%
D12*
%TO.P,C6,1*%
%TO.N,/+5V*%
X175260000Y-206056113D03*
D13*
%TO.P,C6,2*%
%TO.N,GND*%
X175260000Y-203556113D03*
%TD*%
D14*
%TO.P,R2,1*%
%TO.N,/PWR_LED+*%
X207772000Y-96520000D03*
%TO.P,R2,2*%
%TO.N,Net-(J3-Pin_7)*%
X215392000Y-96520000D03*
%TD*%
%TO.P,R1,1*%
%TO.N,/BT_LED+*%
X148666200Y-158394400D03*
%TO.P,R1,2*%
%TO.N,Net-(J2-Pin_5)*%
X148666200Y-166014400D03*
%TD*%
D15*
%TO.P,J1,1,Pin_1*%
%TO.N,unconnected-(J1-Pin_1-Pad1)*%
X218313000Y-177165000D03*
D16*
%TO.P,J1,2,Pin_2*%
%TO.N,unconnected-(J1-Pin_2-Pad2)*%
X220853000Y-177165000D03*
%TO.P,J1,3,Pin_3*%
%TO.N,/GNSS_RX*%
X223393000Y-177165000D03*
%TO.P,J1,4,Pin_4*%
%TO.N,/GNSS_TX*%
X225933000Y-177165000D03*
%TO.P,J1,5,Pin_5*%
%TO.N,GND*%
X228473000Y-177165000D03*
%TO.P,J1,6,Pin_6*%
%TO.N,/+5V_SW*%
X231013000Y-177165000D03*
%TD*%
D15*
%TO.P,J2,1,Pin_1*%
%TO.N,/GNSS_TX*%
X160502000Y-177184000D03*
D17*
%TO.P,J2,2,Pin_2*%
%TO.N,/GNSS_RX*%
X163042000Y-177184000D03*
D16*
%TO.P,J2,3,Pin_3*%
%TO.N,GND*%
X165582000Y-177184000D03*
D17*
%TO.P,J2,4,Pin_4*%
%TO.N,/+5V_SW*%
X168122000Y-177184000D03*
%TO.P,J2,5,Pin_5*%
%TO.N,Net-(J2-Pin_5)*%
X154279000Y-166008000D03*
%TO.P,J2,6,Pin_6*%
%TO.N,GND*%
X154279000Y-163468000D03*
%TD*%
D13*
%TO.P,C5,1*%
%TO.N,/+5V_SW*%
X230993000Y-183134000D03*
%TO.P,C5,2*%
%TO.N,GND*%
X228493000Y-183134000D03*
%TD*%
%TO.P,C4,1*%
%TO.N,/+5V*%
X192826000Y-102870000D03*
%TO.P,C4,2*%
%TO.N,GND*%
X195326000Y-102870000D03*
%TD*%
%TO.P,C3,1*%
%TO.N,/+5V_SW*%
X195326000Y-99314000D03*
%TO.P,C3,2*%
%TO.N,GND*%
X192826000Y-99314000D03*
%TD*%
%TO.P,C1,1*%
%TO.N,/+5V*%
X184658000Y-210292000D03*
%TO.P,C1,2*%
%TO.N,GND*%
X184658000Y-207792000D03*
%TD*%
D18*
%TO.P,J5,1,Pin_1*%
%TO.N,GND*%
X210566000Y-87727800D03*
D19*
%TO.P,J5,2,Pin_2*%
%TO.N,/BT_LED+*%
X208026000Y-87727800D03*
%TO.P,J5,3,Pin_3*%
%TO.N,/PWR_LED-*%
X210566000Y-90297000D03*
%TO.P,J5,4,Pin_4*%
%TO.N,/PWR_LED+*%
X208026000Y-90297000D03*
%TO.P,J5,5,Pin_5*%
%TO.N,/+5V*%
X191643000Y-87727800D03*
%TO.P,J5,6,Pin_6*%
%TO.N,/+5V_SW*%
X195707000Y-87727800D03*
%TD*%
D15*
%TO.P,J4,1,Pin_1*%
%TO.N,GND*%
X200152000Y-187960000D03*
D16*
%TO.P,J4,2,Pin_2*%
%TO.N,/+BAT*%
X200152000Y-185420000D03*
%TD*%
D13*
%TO.P,C2,1*%
%TO.N,/+5V_SW*%
X175788000Y-163195000D03*
%TO.P,C2,2*%
%TO.N,GND*%
X178288000Y-163195000D03*
%TD*%
D20*
%TO.P,J3,1,Pin_1*%
%TO.N,GND*%
X202860000Y-197188000D03*
D21*
%TO.P,J3,2,Pin_2*%
%TO.N,/+BAT*%
X196860000Y-197188000D03*
%TO.P,J3,3,Pin_3*%
%TO.N,GND*%
X191360000Y-216938000D03*
%TO.P,J3,4,Pin_4*%
%TO.N,/+5V*%
X191360000Y-211438000D03*
%TO.P,J3,5,Pin_5*%
%TO.N,/PWR_LED-*%
X213360000Y-199938000D03*
%TO.P,J3,6,Pin_6*%
%TO.N,unconnected-(J3-Pin_6-Pad6)*%
X213360000Y-202438000D03*
%TO.P,J3,7,Pin_7*%
%TO.N,Net-(J3-Pin_7)*%
X213360000Y-204938000D03*
%TD*%
D22*
%TO.P,U2,1,EN*%
%TO.N,unconnected-(U2-EN-Pad1)*%
X153035000Y-132588000D03*
D23*
%TO.P,U2,2,D3*%
%TO.N,unconnected-(U2-D3-Pad2)*%
X153035000Y-135128000D03*
%TO.P,U2,3,D2*%
%TO.N,unconnected-(U2-D2-Pad3)*%
X153035000Y-137668000D03*
%TO.P,U2,4,D1*%
%TO.N,unconnected-(U2-D1-Pad4)*%
X153035000Y-140208000D03*
%TO.P,U2,5,D0*%
%TO.N,unconnected-(U2-D0-Pad5)*%
X153035000Y-142748000D03*
%TO.P,U2,6,D4*%
%TO.N,Net-(J2-Pin_5)*%
X153035000Y-145288000D03*
%TO.P,U2,7,D5*%
%TO.N,unconnected-(U2-D5-Pad7)*%
X153035000Y-147828000D03*
%TO.P,U2,8,3V3*%
%TO.N,unconnected-(U2-3V3-Pad8)*%
X153035000Y-150368000D03*
%TO.P,U2,9,VBus*%
%TO.N,/+5V_SW*%
X175895000Y-150368000D03*
%TO.P,U2,10,GND*%
%TO.N,GND*%
X175895000Y-147828000D03*
%TO.P,U2,11,D6*%
%TO.N,unconnected-(U2-D6-Pad11)*%
X175895000Y-145288000D03*
%TO.P,U2,12,D7*%
%TO.N,unconnected-(U2-D7-Pad12)*%
X175895000Y-142748000D03*
%TO.P,U2,13,D8*%
%TO.N,unconnected-(U2-D8-Pad13)*%
X175895000Y-140208000D03*
%TO.P,U2,14,D10*%
%TO.N,unconnected-(U2-D10-Pad14)*%
X175895000Y-137668000D03*
%TO.P,U2,15,RX*%
%TO.N,/GNSS_TX*%
X175895000Y-135128000D03*
%TO.P,U2,16,TX*%
%TO.N,/GNSS_RX*%
X175895000Y-132588000D03*
%TD*%
D24*
%TO.N,/GNSS_RX*%
X180700000Y-173400000D02*
X173100000Y-181000000D01*
X180700000Y-137393000D02*
X180700000Y-173400000D01*
X173075000Y-180975000D02*
X166833000Y-180975000D01*
X173100000Y-181000000D02*
X173075000Y-180975000D01*
X163042000Y-177184000D02*
X166833000Y-180975000D01*
X180700000Y-137393000D02*
X175895000Y-132588000D01*
%TO.N,Net-(J2-Pin_5)*%
X148712000Y-145288000D02*
X144900000Y-149100000D01*
X153035000Y-145288000D02*
X148712000Y-145288000D01*
X144900000Y-149100000D02*
X144900000Y-162248200D01*
X144900000Y-162248200D02*
X148666200Y-166014400D01*
%TO.N,/GNSS_TX*%
X160502000Y-177184000D02*
X160502000Y-150521000D01*
X160502000Y-150521000D02*
X175895000Y-135128000D01*
%TO.N,/+5V_SW*%
X175895000Y-169411000D02*
X168122000Y-177184000D01*
X175895000Y-150368000D02*
X175895000Y-169411000D01*
%TD*%
M02*
