%TF.GenerationSoftware,KiCad,Pcbnew,9.0.3*%
%TF.CreationDate,2025-11-10T22:11:34+01:00*%
%TF.ProjectId,rover,726f7665-722e-46b6-9963-61645f706362,rev?*%
%TF.SameCoordinates,Original*%
%TF.FileFunction,Profile,NP*%
%FSLAX46Y46*%
G04 Gerber Fmt 4.6, Leading zero omitted, Abs format (unit mm)*
G04 Created by KiCad (PCBNEW 9.0.3) date 2025-11-10 22:11:34*
%MOMM*%
%LPD*%
G01*
G04 APERTURE LIST*
%TA.AperFunction,Profile*%
%ADD10C,0.100000*%
%TD*%
%TA.AperFunction,Profile*%
%ADD11C,0.200000*%
%TD*%
%TA.AperFunction,Profile*%
%ADD12C,0.050000*%
%TD*%
G04 APERTURE END LIST*
D10*
X258411000Y-128611000D02*
G75*
G02*
X254589000Y-128611000I-1911000J0D01*
G01*
X254589000Y-128611000D02*
G75*
G02*
X258411000Y-128611000I1911000J0D01*
G01*
X145000000Y-128300000D02*
G75*
G02*
X141200000Y-128300000I-1900000J0D01*
G01*
X141200000Y-128300000D02*
G75*
G02*
X145000000Y-128300000I1900000J0D01*
G01*
X145000000Y-170600000D02*
G75*
G02*
X141200000Y-170600000I-1900000J0D01*
G01*
X141200000Y-170600000D02*
G75*
G02*
X145000000Y-170600000I1900000J0D01*
G01*
X258200000Y-170600000D02*
G75*
G02*
X254400000Y-170600000I-1900000J0D01*
G01*
X254400000Y-170600000D02*
G75*
G02*
X258200000Y-170600000I1900000J0D01*
G01*
D11*
X215142469Y-83954137D02*
X215142469Y-81111616D01*
X240463746Y-110490000D02*
G75*
G02*
X236663746Y-110490000I-1900000J0D01*
G01*
X236663746Y-110490000D02*
G75*
G02*
X240463746Y-110490000I1900000J0D01*
G01*
X184142469Y-81125424D02*
X184142469Y-83954137D01*
X240463746Y-188271746D02*
G75*
G02*
X236663746Y-188271746I-1900000J0D01*
G01*
X236663746Y-188271746D02*
G75*
G02*
X240463746Y-188271746I1900000J0D01*
G01*
X162682000Y-110490000D02*
G75*
G02*
X158882000Y-110490000I-1900000J0D01*
G01*
X158882000Y-110490000D02*
G75*
G02*
X162682000Y-110490000I1900000J0D01*
G01*
X184142469Y-83954137D02*
X215142469Y-83954137D01*
X215142469Y-81111616D02*
G75*
G02*
X184142469Y-81125424I-15469595J-68269258D01*
G01*
X254672873Y-114380873D02*
G75*
G02*
X244672873Y-114380873I-5000000J0D01*
G01*
X244672873Y-114380873D02*
G75*
G02*
X254672873Y-114380873I5000000J0D01*
G01*
X162682000Y-188271746D02*
G75*
G02*
X158882000Y-188271746I-1900000J0D01*
G01*
X158882000Y-188271746D02*
G75*
G02*
X162682000Y-188271746I1900000J0D01*
G01*
D12*
%TO.C,J1*%
X243531000Y-133516000D02*
G75*
G02*
X241531000Y-133516000I-1000000J0D01*
G01*
X241531000Y-133516000D02*
G75*
G02*
X243531000Y-133516000I1000000J0D01*
G01*
%TD*%
M02*
