%TF.GenerationSoftware,KiCad,Pcbnew,9.0.3*%
%TF.CreationDate,2025-11-10T22:11:33+01:00*%
%TF.ProjectId,rover,726f7665-722e-46b6-9963-61645f706362,rev?*%
%TF.SameCoordinates,Original*%
%TF.FileFunction,Legend,Top*%
%TF.FilePolarity,Positive*%
%FSLAX46Y46*%
G04 Gerber Fmt 4.6, Leading zero omitted, Abs format (unit mm)*
G04 Created by KiCad (PCBNEW 9.0.3) date 2025-11-10 22:11:33*
%MOMM*%
%LPD*%
G01*
G04 APERTURE LIST*
%ADD10C,0.300000*%
%ADD11C,0.000000*%
%ADD12C,0.100000*%
%ADD13C,0.150000*%
%ADD14C,0.120000*%
G04 APERTURE END LIST*
D10*
X185141239Y-141041332D02*
X185141239Y-142541332D01*
X185141239Y-141112761D02*
X185284097Y-141041332D01*
X185284097Y-141041332D02*
X185569811Y-141041332D01*
X185569811Y-141041332D02*
X185712668Y-141112761D01*
X185712668Y-141112761D02*
X185784097Y-141184189D01*
X185784097Y-141184189D02*
X185855525Y-141327046D01*
X185855525Y-141327046D02*
X185855525Y-141755618D01*
X185855525Y-141755618D02*
X185784097Y-141898475D01*
X185784097Y-141898475D02*
X185712668Y-141969904D01*
X185712668Y-141969904D02*
X185569811Y-142041332D01*
X185569811Y-142041332D02*
X185284097Y-142041332D01*
X185284097Y-142041332D02*
X185141239Y-141969904D01*
X186712668Y-142041332D02*
X186569811Y-141969904D01*
X186569811Y-141969904D02*
X186498382Y-141898475D01*
X186498382Y-141898475D02*
X186426954Y-141755618D01*
X186426954Y-141755618D02*
X186426954Y-141327046D01*
X186426954Y-141327046D02*
X186498382Y-141184189D01*
X186498382Y-141184189D02*
X186569811Y-141112761D01*
X186569811Y-141112761D02*
X186712668Y-141041332D01*
X186712668Y-141041332D02*
X186926954Y-141041332D01*
X186926954Y-141041332D02*
X187069811Y-141112761D01*
X187069811Y-141112761D02*
X187141240Y-141184189D01*
X187141240Y-141184189D02*
X187212668Y-141327046D01*
X187212668Y-141327046D02*
X187212668Y-141755618D01*
X187212668Y-141755618D02*
X187141240Y-141898475D01*
X187141240Y-141898475D02*
X187069811Y-141969904D01*
X187069811Y-141969904D02*
X186926954Y-142041332D01*
X186926954Y-142041332D02*
X186712668Y-142041332D01*
X187712668Y-141041332D02*
X187998383Y-142041332D01*
X187998383Y-142041332D02*
X188284097Y-141327046D01*
X188284097Y-141327046D02*
X188569811Y-142041332D01*
X188569811Y-142041332D02*
X188855525Y-141041332D01*
X189998383Y-141969904D02*
X189855526Y-142041332D01*
X189855526Y-142041332D02*
X189569812Y-142041332D01*
X189569812Y-142041332D02*
X189426954Y-141969904D01*
X189426954Y-141969904D02*
X189355526Y-141827046D01*
X189355526Y-141827046D02*
X189355526Y-141255618D01*
X189355526Y-141255618D02*
X189426954Y-141112761D01*
X189426954Y-141112761D02*
X189569812Y-141041332D01*
X189569812Y-141041332D02*
X189855526Y-141041332D01*
X189855526Y-141041332D02*
X189998383Y-141112761D01*
X189998383Y-141112761D02*
X190069812Y-141255618D01*
X190069812Y-141255618D02*
X190069812Y-141398475D01*
X190069812Y-141398475D02*
X189355526Y-141541332D01*
X190712668Y-142041332D02*
X190712668Y-141041332D01*
X190712668Y-141327046D02*
X190784097Y-141184189D01*
X190784097Y-141184189D02*
X190855526Y-141112761D01*
X190855526Y-141112761D02*
X190998383Y-141041332D01*
X190998383Y-141041332D02*
X191141240Y-141041332D01*
X192212668Y-141969904D02*
X192069811Y-142041332D01*
X192069811Y-142041332D02*
X191784097Y-142041332D01*
X191784097Y-142041332D02*
X191641239Y-141969904D01*
X191641239Y-141969904D02*
X191569811Y-141827046D01*
X191569811Y-141827046D02*
X191569811Y-141255618D01*
X191569811Y-141255618D02*
X191641239Y-141112761D01*
X191641239Y-141112761D02*
X191784097Y-141041332D01*
X191784097Y-141041332D02*
X192069811Y-141041332D01*
X192069811Y-141041332D02*
X192212668Y-141112761D01*
X192212668Y-141112761D02*
X192284097Y-141255618D01*
X192284097Y-141255618D02*
X192284097Y-141398475D01*
X192284097Y-141398475D02*
X191569811Y-141541332D01*
X193569811Y-142041332D02*
X193569811Y-140541332D01*
X193569811Y-141969904D02*
X193426953Y-142041332D01*
X193426953Y-142041332D02*
X193141239Y-142041332D01*
X193141239Y-142041332D02*
X192998382Y-141969904D01*
X192998382Y-141969904D02*
X192926953Y-141898475D01*
X192926953Y-141898475D02*
X192855525Y-141755618D01*
X192855525Y-141755618D02*
X192855525Y-141327046D01*
X192855525Y-141327046D02*
X192926953Y-141184189D01*
X192926953Y-141184189D02*
X192998382Y-141112761D01*
X192998382Y-141112761D02*
X193141239Y-141041332D01*
X193141239Y-141041332D02*
X193426953Y-141041332D01*
X193426953Y-141041332D02*
X193569811Y-141112761D01*
X195426953Y-142041332D02*
X195426953Y-140541332D01*
X195426953Y-141112761D02*
X195569811Y-141041332D01*
X195569811Y-141041332D02*
X195855525Y-141041332D01*
X195855525Y-141041332D02*
X195998382Y-141112761D01*
X195998382Y-141112761D02*
X196069811Y-141184189D01*
X196069811Y-141184189D02*
X196141239Y-141327046D01*
X196141239Y-141327046D02*
X196141239Y-141755618D01*
X196141239Y-141755618D02*
X196069811Y-141898475D01*
X196069811Y-141898475D02*
X195998382Y-141969904D01*
X195998382Y-141969904D02*
X195855525Y-142041332D01*
X195855525Y-142041332D02*
X195569811Y-142041332D01*
X195569811Y-142041332D02*
X195426953Y-141969904D01*
X196641239Y-141041332D02*
X196998382Y-142041332D01*
X197355525Y-141041332D02*
X196998382Y-142041332D01*
X196998382Y-142041332D02*
X196855525Y-142398475D01*
X196855525Y-142398475D02*
X196784096Y-142469904D01*
X196784096Y-142469904D02*
X196641239Y-142541332D01*
D11*
G36*
X202049931Y-144961509D02*
G01*
X202582027Y-145742030D01*
X202621961Y-145801103D01*
X202655529Y-145849481D01*
X202668824Y-145868100D01*
X202679206Y-145882173D01*
X202686233Y-145891076D01*
X202688351Y-145893393D01*
X202689465Y-145894185D01*
X202690465Y-145878257D01*
X202691091Y-145832602D01*
X202691259Y-145664914D01*
X202690034Y-145416731D01*
X202687482Y-145113664D01*
X202679739Y-144333124D01*
X202918993Y-144333124D01*
X203158247Y-144333124D01*
X203158247Y-145510519D01*
X203158247Y-146687915D01*
X202913507Y-146687587D01*
X202668768Y-146687259D01*
X202611809Y-146601597D01*
X202515366Y-146459492D01*
X202363480Y-146238124D01*
X202146949Y-145921451D01*
X201895087Y-145550207D01*
X201614249Y-145135652D01*
X201613651Y-145150645D01*
X201613418Y-145195342D01*
X201613974Y-145361152D01*
X201618669Y-145909559D01*
X201626903Y-146687915D01*
X201387158Y-146687915D01*
X201147414Y-146687915D01*
X201147414Y-145510519D01*
X201147414Y-144333124D01*
X201383464Y-144333124D01*
X201619513Y-144333124D01*
X202049931Y-144961509D01*
G37*
G36*
X204794160Y-147556441D02*
G01*
X204827485Y-147630585D01*
X204877611Y-147738068D01*
X204937747Y-147864486D01*
X205001105Y-147995434D01*
X205153116Y-148306737D01*
X205372916Y-147867742D01*
X205592719Y-147428749D01*
X205843919Y-147428749D01*
X205894380Y-147429086D01*
X205941456Y-147430052D01*
X205984116Y-147431579D01*
X206021330Y-147433601D01*
X206052068Y-147436047D01*
X206075299Y-147438852D01*
X206083778Y-147440368D01*
X206089993Y-147441947D01*
X206093817Y-147443582D01*
X206094792Y-147444418D01*
X206095120Y-147445265D01*
X206078914Y-147481287D01*
X206033787Y-147572793D01*
X205877722Y-147881182D01*
X205668823Y-148288291D01*
X205448990Y-148711977D01*
X205407530Y-148791353D01*
X205407372Y-149260988D01*
X205407205Y-149730624D01*
X205169080Y-149730624D01*
X204930956Y-149730624D01*
X204930956Y-149264948D01*
X204930956Y-148799274D01*
X204788921Y-148543959D01*
X204621890Y-148236027D01*
X204433771Y-147879299D01*
X204280141Y-147580400D01*
X204233628Y-147485956D01*
X204216580Y-147445953D01*
X204216922Y-147445071D01*
X204217936Y-147444200D01*
X204219606Y-147443342D01*
X204221914Y-147442497D01*
X204228380Y-147440851D01*
X204237200Y-147439273D01*
X204248241Y-147437770D01*
X204261368Y-147436351D01*
X204276447Y-147435026D01*
X204293345Y-147433802D01*
X204332058Y-147431697D01*
X204376438Y-147430106D01*
X204425411Y-147429100D01*
X204477905Y-147428749D01*
X204739229Y-147428749D01*
X204794160Y-147556441D01*
G37*
G36*
X204031372Y-147640415D02*
G01*
X204031372Y-147852082D01*
X203568352Y-147852082D01*
X203105330Y-147852082D01*
X203105330Y-148103436D01*
X203105330Y-148354791D01*
X203502205Y-148354791D01*
X203899080Y-148354791D01*
X203899080Y-148566457D01*
X203899080Y-148778124D01*
X203502205Y-148778124D01*
X203105330Y-148778124D01*
X203105330Y-149042707D01*
X203105330Y-149307290D01*
X203581580Y-149307290D01*
X204057831Y-149307290D01*
X204057831Y-149518957D01*
X204057831Y-149730624D01*
X203356685Y-149730624D01*
X202655539Y-149730624D01*
X202655539Y-148579686D01*
X202655539Y-147428749D01*
X203343456Y-147428749D01*
X204031372Y-147428749D01*
X204031372Y-147640415D01*
G37*
G36*
X199077049Y-147433484D02*
G01*
X199626059Y-147443567D01*
X199745122Y-147498065D01*
X199771002Y-147510977D01*
X199797245Y-147526122D01*
X199823677Y-147543318D01*
X199850124Y-147562385D01*
X199876411Y-147583142D01*
X199902363Y-147605409D01*
X199927808Y-147629004D01*
X199952569Y-147653747D01*
X199976474Y-147679458D01*
X199999348Y-147705955D01*
X200021015Y-147733058D01*
X200041304Y-147760586D01*
X200060037Y-147788359D01*
X200077043Y-147816195D01*
X200092146Y-147843915D01*
X200105171Y-147871336D01*
X200115825Y-147898772D01*
X200125086Y-147929047D01*
X200132955Y-147961781D01*
X200139428Y-147996594D01*
X200144504Y-148033107D01*
X200148181Y-148070940D01*
X200150459Y-148109713D01*
X200151334Y-148149047D01*
X200150806Y-148188561D01*
X200148873Y-148227877D01*
X200145533Y-148266614D01*
X200140785Y-148304393D01*
X200134626Y-148340834D01*
X200127055Y-148375557D01*
X200118070Y-148408183D01*
X200107671Y-148438332D01*
X200097093Y-148461881D01*
X200082767Y-148487932D01*
X200065201Y-148515928D01*
X200044900Y-148545316D01*
X200022373Y-148575540D01*
X199998126Y-148606047D01*
X199972668Y-148636280D01*
X199946506Y-148665686D01*
X199920146Y-148693710D01*
X199894095Y-148719797D01*
X199868863Y-148743392D01*
X199844955Y-148763942D01*
X199822878Y-148780890D01*
X199803141Y-148793683D01*
X199794309Y-148798347D01*
X199786251Y-148801765D01*
X199779032Y-148803866D01*
X199772714Y-148804582D01*
X199771300Y-148804615D01*
X199769904Y-148804713D01*
X199768527Y-148804873D01*
X199767172Y-148805095D01*
X199765840Y-148805377D01*
X199764533Y-148805717D01*
X199763253Y-148806113D01*
X199762001Y-148806565D01*
X199760780Y-148807070D01*
X199759590Y-148807626D01*
X199758435Y-148808233D01*
X199757315Y-148808889D01*
X199756233Y-148809591D01*
X199755189Y-148810339D01*
X199754187Y-148811130D01*
X199753227Y-148811963D01*
X199752312Y-148812837D01*
X199751443Y-148813750D01*
X199750622Y-148814700D01*
X199749851Y-148815686D01*
X199749131Y-148816706D01*
X199748465Y-148817758D01*
X199747854Y-148818841D01*
X199747299Y-148819953D01*
X199746803Y-148821093D01*
X199746368Y-148822259D01*
X199745994Y-148823449D01*
X199745685Y-148824662D01*
X199745441Y-148825897D01*
X199745265Y-148827151D01*
X199745158Y-148828422D01*
X199745122Y-148829710D01*
X199746563Y-148834461D01*
X199750792Y-148843377D01*
X199767043Y-148872788D01*
X199792735Y-148916109D01*
X199826729Y-148971504D01*
X199867885Y-149037139D01*
X199915065Y-149111178D01*
X199967127Y-149191785D01*
X200022934Y-149277127D01*
X200130804Y-149442396D01*
X200219140Y-149580215D01*
X200278827Y-149676187D01*
X200295078Y-149703981D01*
X200300748Y-149715914D01*
X200300381Y-149716750D01*
X200299293Y-149717556D01*
X200297503Y-149718331D01*
X200295026Y-149719075D01*
X200288090Y-149720467D01*
X200278629Y-149721728D01*
X200266786Y-149722852D01*
X200252705Y-149723835D01*
X200218405Y-149725361D01*
X200176877Y-149726267D01*
X200129273Y-149726518D01*
X200076741Y-149726076D01*
X200020432Y-149724904D01*
X199740117Y-149717394D01*
X199497879Y-149314797D01*
X199255643Y-148912198D01*
X199129965Y-148911307D01*
X199004289Y-148910415D01*
X199004289Y-149320519D01*
X199004289Y-149730624D01*
X198766164Y-149730624D01*
X198528038Y-149730624D01*
X198528038Y-148577013D01*
X198528038Y-148521148D01*
X199004289Y-148521148D01*
X199218950Y-148503246D01*
X199263672Y-148498822D01*
X199308489Y-148493094D01*
X199352200Y-148486301D01*
X199393602Y-148478684D01*
X199431493Y-148470482D01*
X199464671Y-148461936D01*
X199491932Y-148453285D01*
X199502969Y-148448995D01*
X199512076Y-148444769D01*
X199519641Y-148440579D01*
X199527146Y-148435877D01*
X199534579Y-148430684D01*
X199541928Y-148425020D01*
X199549183Y-148418909D01*
X199556330Y-148412371D01*
X199563358Y-148405429D01*
X199570254Y-148398103D01*
X199583608Y-148382391D01*
X199596295Y-148365406D01*
X199608221Y-148347324D01*
X199619291Y-148328318D01*
X199629410Y-148308561D01*
X199638483Y-148288226D01*
X199646415Y-148267488D01*
X199653112Y-148246520D01*
X199658479Y-148225495D01*
X199660634Y-148215016D01*
X199662420Y-148204587D01*
X199663827Y-148194231D01*
X199664842Y-148183970D01*
X199665453Y-148173825D01*
X199665648Y-148163817D01*
X199665384Y-148156323D01*
X199664628Y-148148481D01*
X199661719Y-148131877D01*
X199657072Y-148114252D01*
X199650839Y-148095856D01*
X199643173Y-148076936D01*
X199634224Y-148057741D01*
X199624146Y-148038521D01*
X199613089Y-148019522D01*
X199601206Y-148000994D01*
X199588649Y-147983185D01*
X199575568Y-147966343D01*
X199562118Y-147950718D01*
X199548448Y-147936557D01*
X199534711Y-147924109D01*
X199521060Y-147913622D01*
X199514313Y-147909192D01*
X199507645Y-147905345D01*
X199500869Y-147902259D01*
X199492002Y-147899099D01*
X199481186Y-147895887D01*
X199468565Y-147892647D01*
X199454282Y-147889402D01*
X199438480Y-147886176D01*
X199402892Y-147879872D01*
X199362947Y-147873920D01*
X199319789Y-147868507D01*
X199274563Y-147863818D01*
X199228416Y-147860039D01*
X199004289Y-147844222D01*
X199004289Y-148182685D01*
X199004289Y-148521148D01*
X198528038Y-148521148D01*
X198528038Y-148182685D01*
X198528038Y-147423402D01*
X199077049Y-147433484D01*
G37*
G36*
X195230924Y-147406604D02*
G01*
X195279696Y-147409136D01*
X195328161Y-147414108D01*
X195376136Y-147421527D01*
X195423437Y-147431395D01*
X195469880Y-147443717D01*
X195515282Y-147458498D01*
X195559460Y-147475740D01*
X195602228Y-147495450D01*
X195643404Y-147517630D01*
X195682805Y-147542285D01*
X195720246Y-147569420D01*
X195755544Y-147599038D01*
X195788515Y-147631144D01*
X195818976Y-147665741D01*
X195846742Y-147702835D01*
X195864496Y-147729405D01*
X195881059Y-147755630D01*
X195896068Y-147780833D01*
X195909161Y-147804337D01*
X195919976Y-147825467D01*
X195924415Y-147834929D01*
X195928149Y-147843544D01*
X195931132Y-147851226D01*
X195933319Y-147857892D01*
X195934664Y-147863456D01*
X195935123Y-147867835D01*
X195934890Y-147869820D01*
X195934198Y-147872013D01*
X195933059Y-147874405D01*
X195931484Y-147876988D01*
X195929485Y-147879755D01*
X195927073Y-147882696D01*
X195924259Y-147885805D01*
X195921055Y-147889073D01*
X195913523Y-147896053D01*
X195904568Y-147903572D01*
X195894281Y-147911565D01*
X195882753Y-147919967D01*
X195870076Y-147928714D01*
X195856342Y-147937740D01*
X195841641Y-147946982D01*
X195826066Y-147956373D01*
X195809707Y-147965850D01*
X195792656Y-147975348D01*
X195775004Y-147984801D01*
X195756844Y-147994146D01*
X195578564Y-148084023D01*
X195472417Y-147970345D01*
X195452690Y-147950391D01*
X195432288Y-147931991D01*
X195411297Y-147915133D01*
X195389803Y-147899806D01*
X195367890Y-147885997D01*
X195345643Y-147873696D01*
X195323149Y-147862890D01*
X195300492Y-147853568D01*
X195277757Y-147845718D01*
X195255031Y-147839329D01*
X195232398Y-147834388D01*
X195209943Y-147830885D01*
X195187752Y-147828807D01*
X195165910Y-147828143D01*
X195144503Y-147828881D01*
X195123616Y-147831009D01*
X195103333Y-147834516D01*
X195083741Y-147839391D01*
X195064925Y-147845620D01*
X195046969Y-147853193D01*
X195029960Y-147862099D01*
X195013982Y-147872324D01*
X194999121Y-147883859D01*
X194985462Y-147896690D01*
X194973091Y-147910807D01*
X194962092Y-147926197D01*
X194952552Y-147942850D01*
X194944555Y-147960752D01*
X194938186Y-147979894D01*
X194933532Y-148000262D01*
X194930677Y-148021845D01*
X194929706Y-148044632D01*
X194930334Y-148073106D01*
X194931228Y-148086367D01*
X194932604Y-148099047D01*
X194934535Y-148111201D01*
X194937091Y-148122880D01*
X194940347Y-148134137D01*
X194944372Y-148145026D01*
X194949240Y-148155598D01*
X194955023Y-148165908D01*
X194961792Y-148176006D01*
X194969619Y-148185948D01*
X194978577Y-148195784D01*
X194988737Y-148205568D01*
X195000172Y-148215353D01*
X195012954Y-148225192D01*
X195027154Y-148235137D01*
X195042845Y-148245241D01*
X195060098Y-148255558D01*
X195078986Y-148266139D01*
X195099581Y-148277037D01*
X195121954Y-148288307D01*
X195146178Y-148299999D01*
X195172325Y-148312167D01*
X195230675Y-148338144D01*
X195297580Y-148366658D01*
X195373616Y-148398132D01*
X195459360Y-148432989D01*
X195525409Y-148461101D01*
X195586186Y-148490006D01*
X195641830Y-148519884D01*
X195692480Y-148550913D01*
X195738276Y-148583273D01*
X195759397Y-148600008D01*
X195779357Y-148617143D01*
X195798174Y-148634701D01*
X195815864Y-148652703D01*
X195832445Y-148671172D01*
X195847935Y-148690132D01*
X195862351Y-148709603D01*
X195875710Y-148729609D01*
X195888031Y-148750172D01*
X195899330Y-148771314D01*
X195909624Y-148793058D01*
X195918932Y-148815426D01*
X195927271Y-148838440D01*
X195934657Y-148862124D01*
X195941110Y-148886499D01*
X195946645Y-148911588D01*
X195955035Y-148963997D01*
X195959967Y-149019531D01*
X195961580Y-149078368D01*
X195960983Y-149112829D01*
X195959193Y-149146467D01*
X195956214Y-149179279D01*
X195952049Y-149211260D01*
X195946701Y-149242408D01*
X195940174Y-149272718D01*
X195932471Y-149302188D01*
X195923595Y-149330812D01*
X195913549Y-149358588D01*
X195902337Y-149385511D01*
X195889961Y-149411579D01*
X195876426Y-149436786D01*
X195861735Y-149461130D01*
X195845890Y-149484608D01*
X195828895Y-149507214D01*
X195810753Y-149528945D01*
X195791467Y-149549798D01*
X195771042Y-149569770D01*
X195749479Y-149588855D01*
X195726783Y-149607051D01*
X195702956Y-149624354D01*
X195678002Y-149640760D01*
X195651924Y-149656265D01*
X195624726Y-149670866D01*
X195596410Y-149684559D01*
X195566979Y-149697340D01*
X195536438Y-149709206D01*
X195504790Y-149720153D01*
X195438183Y-149739274D01*
X195367184Y-149754673D01*
X195305350Y-149765852D01*
X195279238Y-149770207D01*
X195255646Y-149773724D01*
X195234062Y-149776394D01*
X195213974Y-149778206D01*
X195194869Y-149779150D01*
X195176235Y-149779214D01*
X195157559Y-149778390D01*
X195138329Y-149776665D01*
X195118033Y-149774030D01*
X195096158Y-149770475D01*
X195072191Y-149765988D01*
X195045622Y-149760560D01*
X194982622Y-149746838D01*
X194952205Y-149739756D01*
X194923023Y-149732258D01*
X194894975Y-149724294D01*
X194867961Y-149715815D01*
X194841879Y-149706774D01*
X194816629Y-149697121D01*
X194792111Y-149686808D01*
X194768224Y-149675786D01*
X194744867Y-149664007D01*
X194721939Y-149651423D01*
X194699340Y-149637984D01*
X194676970Y-149623643D01*
X194654727Y-149608350D01*
X194632512Y-149592057D01*
X194610222Y-149574715D01*
X194587759Y-149556277D01*
X194572693Y-149542655D01*
X194557129Y-149526827D01*
X194541270Y-149509119D01*
X194525319Y-149489856D01*
X194509479Y-149469364D01*
X194493952Y-149447967D01*
X194478941Y-149425993D01*
X194464650Y-149403764D01*
X194451280Y-149381609D01*
X194439035Y-149359850D01*
X194428117Y-149338815D01*
X194418730Y-149318828D01*
X194411075Y-149300215D01*
X194405357Y-149283301D01*
X194401777Y-149268412D01*
X194400852Y-149261829D01*
X194400539Y-149255873D01*
X194400720Y-149254390D01*
X194401259Y-149252738D01*
X194402147Y-149250922D01*
X194403374Y-149248949D01*
X194404931Y-149246826D01*
X194406811Y-149244558D01*
X194409003Y-149242152D01*
X194411499Y-149239615D01*
X194417368Y-149234173D01*
X194424345Y-149228282D01*
X194432361Y-149221993D01*
X194441342Y-149215358D01*
X194451219Y-149208428D01*
X194461921Y-149201255D01*
X194473375Y-149193888D01*
X194485510Y-149186380D01*
X194498257Y-149178783D01*
X194511542Y-149171146D01*
X194525295Y-149163521D01*
X194539446Y-149155960D01*
X194614939Y-149116461D01*
X194645465Y-149100925D01*
X194671810Y-149088183D01*
X194694450Y-149078226D01*
X194713858Y-149071044D01*
X194722498Y-149068490D01*
X194730509Y-149066625D01*
X194737949Y-149065449D01*
X194744878Y-149064961D01*
X194751355Y-149065157D01*
X194757439Y-149066039D01*
X194763190Y-149067604D01*
X194768667Y-149069850D01*
X194773929Y-149072778D01*
X194779036Y-149076384D01*
X194784047Y-149080669D01*
X194789022Y-149085630D01*
X194799098Y-149097579D01*
X194809740Y-149112218D01*
X194834618Y-149149532D01*
X194842023Y-149160287D01*
X194850078Y-149171185D01*
X194858704Y-149182148D01*
X194867823Y-149193103D01*
X194877358Y-149203974D01*
X194887229Y-149214685D01*
X194897359Y-149225162D01*
X194907669Y-149235328D01*
X194918081Y-149245108D01*
X194928516Y-149254428D01*
X194938897Y-149263212D01*
X194949145Y-149271384D01*
X194959183Y-149278870D01*
X194968930Y-149285593D01*
X194978311Y-149291479D01*
X194987245Y-149296452D01*
X195007779Y-149305895D01*
X195030505Y-149314230D01*
X195055086Y-149321446D01*
X195081184Y-149327534D01*
X195108462Y-149332483D01*
X195136583Y-149336283D01*
X195165210Y-149338923D01*
X195194004Y-149340393D01*
X195222629Y-149340682D01*
X195250747Y-149339781D01*
X195278021Y-149337679D01*
X195304114Y-149334365D01*
X195328688Y-149329830D01*
X195351406Y-149324062D01*
X195371930Y-149317052D01*
X195389923Y-149308790D01*
X195398208Y-149304083D01*
X195406228Y-149298982D01*
X195413977Y-149293499D01*
X195421450Y-149287651D01*
X195428640Y-149281452D01*
X195435542Y-149274917D01*
X195442150Y-149268060D01*
X195448460Y-149260896D01*
X195454464Y-149253441D01*
X195460157Y-149245707D01*
X195465534Y-149237711D01*
X195470589Y-149229468D01*
X195475317Y-149220991D01*
X195479711Y-149212295D01*
X195483766Y-149203396D01*
X195487476Y-149194308D01*
X195490836Y-149185046D01*
X195493840Y-149175624D01*
X195496482Y-149166057D01*
X195498756Y-149156360D01*
X195500658Y-149146548D01*
X195502181Y-149136635D01*
X195503319Y-149126636D01*
X195504067Y-149116566D01*
X195504420Y-149106439D01*
X195504371Y-149096271D01*
X195503914Y-149086076D01*
X195503045Y-149075869D01*
X195501758Y-149065664D01*
X195500046Y-149055476D01*
X195497905Y-149045320D01*
X195495328Y-149035211D01*
X195471718Y-148950103D01*
X195339453Y-148883957D01*
X195308332Y-148868834D01*
X195270500Y-148851176D01*
X195180532Y-148810818D01*
X195081207Y-148768005D01*
X194984181Y-148727859D01*
X194936128Y-148707624D01*
X194890332Y-148686597D01*
X194846801Y-148664785D01*
X194805545Y-148642195D01*
X194766571Y-148618836D01*
X194729889Y-148594713D01*
X194695506Y-148569834D01*
X194663432Y-148544207D01*
X194633675Y-148517838D01*
X194606244Y-148490735D01*
X194581146Y-148462905D01*
X194558392Y-148434355D01*
X194537989Y-148405093D01*
X194519945Y-148375125D01*
X194504271Y-148344459D01*
X194490973Y-148313102D01*
X194480377Y-148281472D01*
X194471678Y-148247356D01*
X194464847Y-148211154D01*
X194459854Y-148173267D01*
X194456671Y-148134095D01*
X194455269Y-148094040D01*
X194455619Y-148053501D01*
X194457692Y-148012879D01*
X194461460Y-147972575D01*
X194466892Y-147932990D01*
X194473961Y-147894524D01*
X194482638Y-147857578D01*
X194492892Y-147822553D01*
X194504697Y-147789848D01*
X194518022Y-147759865D01*
X194532839Y-147733005D01*
X194558726Y-147694679D01*
X194587428Y-147658723D01*
X194618762Y-147625140D01*
X194652544Y-147593936D01*
X194688591Y-147565114D01*
X194726718Y-147538679D01*
X194766742Y-147514634D01*
X194808480Y-147492984D01*
X194851748Y-147473734D01*
X194896362Y-147456886D01*
X194942138Y-147442447D01*
X194988893Y-147430419D01*
X195036444Y-147420807D01*
X195084606Y-147413615D01*
X195133195Y-147408848D01*
X195182030Y-147406510D01*
X195230924Y-147406604D01*
G37*
G36*
X201041580Y-150855103D02*
G01*
X201041580Y-151053540D01*
X200763768Y-151053540D01*
X200485956Y-151053540D01*
X200485956Y-151883489D01*
X200485956Y-152713438D01*
X200279614Y-152717844D01*
X200237786Y-152718350D01*
X200198032Y-152718090D01*
X200161274Y-152717122D01*
X200128435Y-152715504D01*
X200100438Y-152713294D01*
X200078204Y-152710550D01*
X200069537Y-152708996D01*
X200062657Y-152707330D01*
X200057679Y-152705560D01*
X200054718Y-152703693D01*
X200054718Y-152703692D01*
X200052828Y-152697569D01*
X200050991Y-152683314D01*
X200047514Y-152632116D01*
X200044363Y-152553519D01*
X200041614Y-152450947D01*
X200039344Y-152327820D01*
X200037628Y-152187562D01*
X200036163Y-151869339D01*
X200036163Y-151053540D01*
X199771581Y-151053540D01*
X199506998Y-151053540D01*
X199506998Y-150855103D01*
X199506998Y-150656665D01*
X200274289Y-150656665D01*
X201041580Y-150656665D01*
X201041580Y-150855103D01*
G37*
G36*
X202629080Y-150855103D02*
G01*
X202629080Y-151053540D01*
X202192517Y-151053540D01*
X201755956Y-151053540D01*
X201755956Y-151251978D01*
X201755956Y-151450415D01*
X202139601Y-151450415D01*
X202523247Y-151450415D01*
X202523247Y-151648853D01*
X202523247Y-151847290D01*
X202139601Y-151847290D01*
X201755956Y-151847290D01*
X201755956Y-152086621D01*
X201755956Y-152325953D01*
X202205782Y-152318132D01*
X202655606Y-152310311D01*
X202655580Y-152513820D01*
X202655554Y-152717329D01*
X201980867Y-152719501D01*
X201306180Y-152721673D01*
X201306163Y-151689170D01*
X201306163Y-150656665D01*
X201967622Y-150656665D01*
X202629080Y-150656665D01*
X202629080Y-150855103D01*
G37*
G36*
X205030486Y-151680965D02*
G01*
X205023560Y-152707186D01*
X204840973Y-152715100D01*
X204803854Y-152716248D01*
X204768370Y-152716465D01*
X204735361Y-152715807D01*
X204705662Y-152714330D01*
X204680113Y-152712091D01*
X204659550Y-152709146D01*
X204651401Y-152707426D01*
X204644812Y-152705551D01*
X204639889Y-152703527D01*
X204636736Y-152701363D01*
X204634517Y-152695762D01*
X204632335Y-152683658D01*
X204630201Y-152665397D01*
X204628129Y-152641324D01*
X204624218Y-152577134D01*
X204620700Y-152493860D01*
X204617676Y-152394274D01*
X204615243Y-152281150D01*
X204613502Y-152157259D01*
X204612550Y-152025375D01*
X204610923Y-151771309D01*
X204608364Y-151563251D01*
X204605223Y-151422671D01*
X204603545Y-151384395D01*
X204601852Y-151371040D01*
X204601287Y-151371326D01*
X204600438Y-151372173D01*
X204597920Y-151375496D01*
X204594360Y-151380897D01*
X204589820Y-151388264D01*
X204578047Y-151408451D01*
X204563095Y-151435160D01*
X204545459Y-151467497D01*
X204525631Y-151504567D01*
X204504108Y-151545473D01*
X204481381Y-151589321D01*
X204348767Y-151844447D01*
X204233848Y-152060587D01*
X204147964Y-152216718D01*
X204119455Y-152265711D01*
X204102457Y-152291818D01*
X204100974Y-152293572D01*
X204099302Y-152295284D01*
X204097449Y-152296950D01*
X204095422Y-152298571D01*
X204093227Y-152300143D01*
X204090871Y-152301666D01*
X204085703Y-152304556D01*
X204079974Y-152307227D01*
X204073738Y-152309665D01*
X204067051Y-152311857D01*
X204059966Y-152313790D01*
X204052539Y-152315450D01*
X204044824Y-152316822D01*
X204036877Y-152317895D01*
X204028752Y-152318653D01*
X204020504Y-152319084D01*
X204012188Y-152319174D01*
X204003858Y-152318909D01*
X203995569Y-152318276D01*
X203915570Y-152310311D01*
X203656438Y-151834161D01*
X203397308Y-151358010D01*
X203390225Y-152032599D01*
X203383142Y-152707186D01*
X203178090Y-152714913D01*
X202973039Y-152722641D01*
X202973039Y-151689655D01*
X202973039Y-150656665D01*
X203235779Y-150656665D01*
X203498520Y-150656665D01*
X203745102Y-151146076D01*
X203841889Y-151336103D01*
X203923136Y-151491711D01*
X203980319Y-151596843D01*
X203997223Y-151625463D01*
X204002286Y-151632909D01*
X204004913Y-151635443D01*
X204005926Y-151634810D01*
X204007590Y-151632934D01*
X204012797Y-151625581D01*
X204030255Y-151597334D01*
X204056182Y-151552681D01*
X204089474Y-151493604D01*
X204129026Y-151422081D01*
X204173735Y-151340094D01*
X204222494Y-151249622D01*
X204274200Y-151152647D01*
X204530260Y-150669894D01*
X204783835Y-150662318D01*
X205037412Y-150654742D01*
X205030486Y-151680965D01*
G37*
G36*
X198682717Y-150609581D02*
G01*
X198733540Y-150613639D01*
X198783334Y-150620396D01*
X198831943Y-150629817D01*
X198879213Y-150641867D01*
X198924988Y-150656511D01*
X198969113Y-150673714D01*
X199011435Y-150693443D01*
X199051797Y-150715662D01*
X199090045Y-150740336D01*
X199126024Y-150767432D01*
X199159579Y-150796913D01*
X199174447Y-150811920D01*
X199189662Y-150828922D01*
X199205006Y-150847545D01*
X199220260Y-150867414D01*
X199235205Y-150888153D01*
X199249623Y-150909388D01*
X199263296Y-150930743D01*
X199276004Y-150951844D01*
X199287530Y-150972315D01*
X199297654Y-150991783D01*
X199306157Y-151009871D01*
X199312823Y-151026204D01*
X199317431Y-151040408D01*
X199319763Y-151052108D01*
X199320007Y-151056902D01*
X199319600Y-151060929D01*
X199318516Y-151064142D01*
X199316725Y-151066495D01*
X199315018Y-151067670D01*
X199311642Y-151069673D01*
X199300246Y-151075975D01*
X199283263Y-151085023D01*
X199261416Y-151096440D01*
X199206037Y-151124879D01*
X199139909Y-151158279D01*
X198971256Y-151242831D01*
X198893773Y-151148830D01*
X198876897Y-151129696D01*
X198859092Y-151112025D01*
X198840453Y-151095807D01*
X198821076Y-151081032D01*
X198801058Y-151067689D01*
X198780495Y-151055765D01*
X198759483Y-151045252D01*
X198738117Y-151036137D01*
X198716495Y-151028410D01*
X198694711Y-151022059D01*
X198672863Y-151017074D01*
X198651047Y-151013444D01*
X198629357Y-151011158D01*
X198607892Y-151010205D01*
X198586745Y-151010574D01*
X198566015Y-151012254D01*
X198545797Y-151015235D01*
X198526186Y-151019504D01*
X198507279Y-151025052D01*
X198489173Y-151031867D01*
X198471963Y-151039939D01*
X198455745Y-151049256D01*
X198440616Y-151059807D01*
X198426671Y-151071582D01*
X198414007Y-151084570D01*
X198402719Y-151098760D01*
X198392905Y-151114140D01*
X198384659Y-151130701D01*
X198378079Y-151148430D01*
X198373259Y-151167317D01*
X198370297Y-151187351D01*
X198369289Y-151208521D01*
X198369638Y-151218254D01*
X198370685Y-151227948D01*
X198372425Y-151237601D01*
X198374856Y-151247209D01*
X198377974Y-151256770D01*
X198381776Y-151266281D01*
X198386258Y-151275739D01*
X198391418Y-151285143D01*
X198397253Y-151294489D01*
X198403758Y-151303774D01*
X198410930Y-151312996D01*
X198418767Y-151322153D01*
X198427265Y-151331241D01*
X198436421Y-151340257D01*
X198446231Y-151349200D01*
X198456693Y-151358067D01*
X198467802Y-151366854D01*
X198479556Y-151375560D01*
X198491952Y-151384181D01*
X198504986Y-151392714D01*
X198518655Y-151401158D01*
X198532955Y-151409510D01*
X198563438Y-151425924D01*
X198596408Y-151441936D01*
X198631839Y-151457524D01*
X198669705Y-151472668D01*
X198709981Y-151487344D01*
X198799251Y-151520577D01*
X198881439Y-151555691D01*
X198956595Y-151592752D01*
X199024771Y-151631827D01*
X199056256Y-151652139D01*
X199086015Y-151672980D01*
X199114054Y-151694357D01*
X199140380Y-151716278D01*
X199164997Y-151738752D01*
X199187914Y-151761787D01*
X199209136Y-151785392D01*
X199228669Y-151809574D01*
X199246520Y-151834341D01*
X199262694Y-151859703D01*
X199277199Y-151885667D01*
X199290041Y-151912241D01*
X199301226Y-151939434D01*
X199310759Y-151967254D01*
X199318649Y-151995709D01*
X199324900Y-152024808D01*
X199329519Y-152054558D01*
X199332512Y-152084968D01*
X199333886Y-152116046D01*
X199333647Y-152147801D01*
X199331801Y-152180241D01*
X199328355Y-152213373D01*
X199323315Y-152247207D01*
X199316687Y-152281750D01*
X199312872Y-152297851D01*
X199308265Y-152314055D01*
X199296777Y-152346658D01*
X199282435Y-152379330D01*
X199265446Y-152411839D01*
X199246022Y-152443956D01*
X199224371Y-152475448D01*
X199200703Y-152506086D01*
X199175228Y-152535640D01*
X199148155Y-152563878D01*
X199119695Y-152590570D01*
X199090056Y-152615486D01*
X199059449Y-152638394D01*
X199028083Y-152659065D01*
X198996167Y-152677268D01*
X198963913Y-152692772D01*
X198931528Y-152705346D01*
X198900695Y-152714454D01*
X198865637Y-152722346D01*
X198826976Y-152729022D01*
X198785333Y-152734484D01*
X198741328Y-152738729D01*
X198695583Y-152741760D01*
X198648720Y-152743575D01*
X198601358Y-152744175D01*
X198554120Y-152743560D01*
X198507626Y-152741730D01*
X198462499Y-152738685D01*
X198419358Y-152734425D01*
X198378825Y-152728951D01*
X198341521Y-152722262D01*
X198308067Y-152714358D01*
X198279085Y-152705240D01*
X198279085Y-152705248D01*
X198268094Y-152701041D01*
X198256518Y-152696271D01*
X198232007Y-152685257D01*
X198206334Y-152672638D01*
X198180284Y-152658842D01*
X198154640Y-152644299D01*
X198130187Y-152629439D01*
X198107708Y-152614691D01*
X198097454Y-152607493D01*
X198087987Y-152600485D01*
X198071183Y-152586674D01*
X198052911Y-152569881D01*
X198033521Y-152550563D01*
X198013367Y-152529178D01*
X197992801Y-152506185D01*
X197972175Y-152482042D01*
X197951841Y-152457207D01*
X197932151Y-152432138D01*
X197913459Y-152407294D01*
X197896116Y-152383132D01*
X197880475Y-152360111D01*
X197866887Y-152338688D01*
X197855705Y-152319323D01*
X197847283Y-152302472D01*
X197841970Y-152288595D01*
X197840591Y-152282915D01*
X197840121Y-152278149D01*
X197841057Y-152275522D01*
X197843788Y-152272098D01*
X197854198Y-152263097D01*
X197870462Y-152251605D01*
X197891695Y-152238085D01*
X197945515Y-152206803D01*
X198008560Y-152172938D01*
X198073733Y-152140179D01*
X198133935Y-152112213D01*
X198159955Y-152101181D01*
X198182070Y-152092729D01*
X198199394Y-152087320D01*
X198205982Y-152085901D01*
X198211040Y-152085415D01*
X198212370Y-152085460D01*
X198213684Y-152085594D01*
X198214979Y-152085814D01*
X198216254Y-152086119D01*
X198217507Y-152086506D01*
X198218737Y-152086973D01*
X198219941Y-152087517D01*
X198221119Y-152088137D01*
X198222268Y-152088830D01*
X198223387Y-152089595D01*
X198224474Y-152090428D01*
X198225527Y-152091327D01*
X198226545Y-152092292D01*
X198227527Y-152093318D01*
X198228470Y-152094404D01*
X198229372Y-152095549D01*
X198230233Y-152096748D01*
X198231051Y-152098002D01*
X198231823Y-152099306D01*
X198232548Y-152100659D01*
X198233225Y-152102059D01*
X198233852Y-152103504D01*
X198234427Y-152104991D01*
X198234949Y-152106518D01*
X198235415Y-152108083D01*
X198235825Y-152109683D01*
X198236176Y-152111317D01*
X198236467Y-152112982D01*
X198236696Y-152114677D01*
X198236862Y-152116398D01*
X198236963Y-152118144D01*
X198236996Y-152119912D01*
X198237506Y-152125976D01*
X198239004Y-152132488D01*
X198241446Y-152139411D01*
X198244786Y-152146709D01*
X198248978Y-152154342D01*
X198253977Y-152162275D01*
X198259737Y-152170469D01*
X198266213Y-152178887D01*
X198281132Y-152196248D01*
X198298368Y-152214056D01*
X198317559Y-152232014D01*
X198338341Y-152249823D01*
X198360349Y-152267183D01*
X198383220Y-152283795D01*
X198406590Y-152299361D01*
X198430095Y-152313581D01*
X198453372Y-152326157D01*
X198476056Y-152336789D01*
X198487062Y-152341282D01*
X198497784Y-152345178D01*
X198508175Y-152348438D01*
X198518192Y-152351025D01*
X198537015Y-152354891D01*
X198555677Y-152357879D01*
X198574147Y-152360005D01*
X198592398Y-152361288D01*
X198610401Y-152361743D01*
X198628128Y-152361389D01*
X198645549Y-152360242D01*
X198662637Y-152358320D01*
X198679363Y-152355638D01*
X198695698Y-152352216D01*
X198711613Y-152348068D01*
X198727081Y-152343213D01*
X198742073Y-152337668D01*
X198756560Y-152331449D01*
X198770514Y-152324574D01*
X198783905Y-152317060D01*
X198796706Y-152308923D01*
X198808888Y-152300181D01*
X198820423Y-152290851D01*
X198831281Y-152280950D01*
X198841435Y-152270495D01*
X198850855Y-152259503D01*
X198859514Y-152247991D01*
X198867383Y-152235977D01*
X198874432Y-152223476D01*
X198880635Y-152210507D01*
X198885961Y-152197086D01*
X198890383Y-152183231D01*
X198893872Y-152168958D01*
X198896400Y-152154284D01*
X198897937Y-152139227D01*
X198898456Y-152123804D01*
X198898022Y-152117061D01*
X198896740Y-152110053D01*
X198894637Y-152102802D01*
X198891740Y-152095330D01*
X198888077Y-152087657D01*
X198883675Y-152079808D01*
X198878562Y-152071803D01*
X198872766Y-152063664D01*
X198866313Y-152055413D01*
X198859231Y-152047073D01*
X198851548Y-152038666D01*
X198843291Y-152030212D01*
X198825166Y-152013256D01*
X198805076Y-151996380D01*
X198783241Y-151979760D01*
X198759880Y-151963572D01*
X198735213Y-151947991D01*
X198709461Y-151933194D01*
X198682842Y-151919356D01*
X198655578Y-151906652D01*
X198627887Y-151895258D01*
X198599991Y-151885350D01*
X198527123Y-151859623D01*
X198450803Y-151829164D01*
X198373905Y-151795406D01*
X198299304Y-151759779D01*
X198229875Y-151723715D01*
X198168493Y-151688644D01*
X198141719Y-151671929D01*
X198118034Y-151655998D01*
X198097799Y-151641031D01*
X198081372Y-151627207D01*
X198063456Y-151609576D01*
X198046398Y-151590333D01*
X198030238Y-151569583D01*
X198015016Y-151547430D01*
X198000771Y-151523977D01*
X197987545Y-151499327D01*
X197975376Y-151473585D01*
X197964306Y-151446854D01*
X197954374Y-151419238D01*
X197945620Y-151390840D01*
X197938084Y-151361763D01*
X197931806Y-151332113D01*
X197926827Y-151301991D01*
X197923186Y-151271503D01*
X197920923Y-151240750D01*
X197920079Y-151209838D01*
X197920541Y-151182933D01*
X197922129Y-151156422D01*
X197924829Y-151130321D01*
X197928624Y-151104648D01*
X197933501Y-151079421D01*
X197939444Y-151054658D01*
X197946438Y-151030376D01*
X197954467Y-151006592D01*
X197963517Y-150983324D01*
X197973572Y-150960589D01*
X197984618Y-150938406D01*
X197996639Y-150916792D01*
X198009620Y-150895764D01*
X198023546Y-150875340D01*
X198038402Y-150855537D01*
X198054173Y-150836373D01*
X198070843Y-150817866D01*
X198088398Y-150800033D01*
X198106822Y-150782891D01*
X198126100Y-150766459D01*
X198146218Y-150750753D01*
X198167160Y-150735792D01*
X198188910Y-150721592D01*
X198211455Y-150708172D01*
X198234778Y-150695549D01*
X198258864Y-150683741D01*
X198283699Y-150672764D01*
X198309267Y-150662638D01*
X198335554Y-150653378D01*
X198362544Y-150645003D01*
X198390221Y-150637531D01*
X198418571Y-150630978D01*
X198472221Y-150621025D01*
X198525615Y-150613943D01*
X198578599Y-150609698D01*
X198631018Y-150608255D01*
X198682717Y-150609581D01*
G37*
G36*
X200724080Y-144558020D02*
G01*
X200724080Y-144782916D01*
X200221371Y-144782916D01*
X199718663Y-144782916D01*
X199718663Y-145021040D01*
X199718663Y-145259166D01*
X200128767Y-145259166D01*
X200538872Y-145259166D01*
X200538872Y-145484061D01*
X200538872Y-145708957D01*
X200128767Y-145708957D01*
X199718663Y-145708957D01*
X199718663Y-145986770D01*
X199718663Y-146264582D01*
X200234601Y-146264582D01*
X200750539Y-146264582D01*
X200750539Y-146476249D01*
X200750539Y-146687915D01*
X199996477Y-146687915D01*
X199242413Y-146687915D01*
X199242413Y-145510519D01*
X199242413Y-144333124D01*
X199983247Y-144333124D01*
X200724080Y-144333124D01*
X200724080Y-144558020D01*
G37*
G36*
X195637690Y-144311382D02*
G01*
X195690468Y-144314543D01*
X195741793Y-144319407D01*
X195791235Y-144325992D01*
X195838362Y-144334321D01*
X195882745Y-144344414D01*
X195947726Y-144363000D01*
X196010658Y-144384872D01*
X196071485Y-144409915D01*
X196130155Y-144438017D01*
X196186611Y-144469062D01*
X196240801Y-144502939D01*
X196292670Y-144539532D01*
X196342163Y-144578728D01*
X196389226Y-144620414D01*
X196433805Y-144664475D01*
X196475845Y-144710797D01*
X196515292Y-144759268D01*
X196552091Y-144809773D01*
X196586189Y-144862198D01*
X196617530Y-144916430D01*
X196646061Y-144972355D01*
X196671728Y-145029859D01*
X196694475Y-145088828D01*
X196714248Y-145149149D01*
X196730993Y-145210708D01*
X196744657Y-145273391D01*
X196755183Y-145337084D01*
X196762519Y-145401674D01*
X196766609Y-145467046D01*
X196767399Y-145533088D01*
X196764836Y-145599684D01*
X196758863Y-145666722D01*
X196749428Y-145734088D01*
X196736476Y-145801668D01*
X196719953Y-145869348D01*
X196699803Y-145937015D01*
X196675974Y-146004554D01*
X196653643Y-146058364D01*
X196628054Y-146111278D01*
X196599374Y-146163128D01*
X196567771Y-146213747D01*
X196533410Y-146262965D01*
X196496458Y-146310616D01*
X196457083Y-146356531D01*
X196415451Y-146400543D01*
X196371728Y-146442482D01*
X196326083Y-146482182D01*
X196278681Y-146519474D01*
X196229690Y-146554190D01*
X196179276Y-146586163D01*
X196127606Y-146615223D01*
X196074847Y-146641204D01*
X196021165Y-146663937D01*
X195982971Y-146677047D01*
X195939388Y-146688913D01*
X195891180Y-146699499D01*
X195839112Y-146708768D01*
X195783948Y-146716683D01*
X195726453Y-146723207D01*
X195667391Y-146728304D01*
X195607526Y-146731937D01*
X195547623Y-146734069D01*
X195488446Y-146734663D01*
X195430759Y-146733682D01*
X195375328Y-146731090D01*
X195322916Y-146726850D01*
X195274288Y-146720925D01*
X195230209Y-146713278D01*
X195191441Y-146703872D01*
X195191443Y-146703872D01*
X195116326Y-146679800D01*
X195043903Y-146651560D01*
X194974300Y-146619283D01*
X194907647Y-146583098D01*
X194844071Y-146543132D01*
X194783700Y-146499515D01*
X194726661Y-146452375D01*
X194673083Y-146401843D01*
X194623094Y-146348045D01*
X194576821Y-146291111D01*
X194534392Y-146231171D01*
X194495935Y-146168352D01*
X194461579Y-146102783D01*
X194431450Y-146034594D01*
X194405677Y-145963914D01*
X194384388Y-145890870D01*
X194374162Y-145845353D01*
X194365760Y-145796194D01*
X194362123Y-145767431D01*
X194846841Y-145767431D01*
X194915387Y-145907531D01*
X194929040Y-145933953D01*
X194943731Y-145959536D01*
X194959451Y-145984270D01*
X194976192Y-146008149D01*
X194993946Y-146031165D01*
X195012703Y-146053308D01*
X195032455Y-146074573D01*
X195053195Y-146094949D01*
X195074913Y-146114430D01*
X195097601Y-146133008D01*
X195121250Y-146150673D01*
X195145852Y-146167420D01*
X195171399Y-146183239D01*
X195197881Y-146198122D01*
X195225291Y-146212063D01*
X195253619Y-146225051D01*
X195278146Y-146233988D01*
X195307391Y-146241722D01*
X195340689Y-146248256D01*
X195377376Y-146253590D01*
X195416786Y-146257724D01*
X195458255Y-146260660D01*
X195501117Y-146262398D01*
X195544708Y-146262940D01*
X195588363Y-146262285D01*
X195631416Y-146260436D01*
X195673204Y-146257393D01*
X195713060Y-146253156D01*
X195750321Y-146247727D01*
X195784320Y-146241107D01*
X195814394Y-146233296D01*
X195839877Y-146224295D01*
X195839876Y-146224294D01*
X195866046Y-146212313D01*
X195892749Y-146198091D01*
X195919773Y-146181832D01*
X195946907Y-146163736D01*
X195973939Y-146144005D01*
X196000658Y-146122841D01*
X196026853Y-146100445D01*
X196052311Y-146077021D01*
X196076822Y-146052769D01*
X196100173Y-146027891D01*
X196122154Y-146002590D01*
X196142552Y-145977066D01*
X196161157Y-145951522D01*
X196177757Y-145926159D01*
X196192139Y-145901180D01*
X196204094Y-145876786D01*
X196215926Y-145847915D01*
X196226713Y-145817106D01*
X196236430Y-145784638D01*
X196245052Y-145750791D01*
X196252552Y-145715842D01*
X196258905Y-145680071D01*
X196264085Y-145643758D01*
X196268067Y-145607181D01*
X196270824Y-145570618D01*
X196272331Y-145534350D01*
X196272563Y-145498655D01*
X196271493Y-145463812D01*
X196269096Y-145430100D01*
X196265346Y-145397798D01*
X196260218Y-145367185D01*
X196253685Y-145338541D01*
X196250017Y-145325678D01*
X196245509Y-145311737D01*
X196240224Y-145296849D01*
X196234225Y-145281149D01*
X196220341Y-145247848D01*
X196204365Y-145212900D01*
X196186806Y-145177376D01*
X196168173Y-145142342D01*
X196148973Y-145108868D01*
X196139320Y-145093050D01*
X196129717Y-145078023D01*
X196037032Y-144936567D01*
X195867596Y-144859742D01*
X195812355Y-144836873D01*
X195756797Y-144818140D01*
X195701118Y-144803514D01*
X195645513Y-144792969D01*
X195590181Y-144786476D01*
X195535315Y-144784007D01*
X195481114Y-144785535D01*
X195427773Y-144791033D01*
X195375488Y-144800471D01*
X195324456Y-144813823D01*
X195274872Y-144831061D01*
X195226934Y-144852156D01*
X195180837Y-144877082D01*
X195136778Y-144905811D01*
X195094953Y-144938314D01*
X195055557Y-144974564D01*
X195027417Y-145003738D01*
X195001688Y-145032662D01*
X194978287Y-145061565D01*
X194957129Y-145090674D01*
X194938130Y-145120217D01*
X194921208Y-145150422D01*
X194906276Y-145181517D01*
X194893253Y-145213730D01*
X194882054Y-145247287D01*
X194872595Y-145282418D01*
X194864793Y-145319349D01*
X194858563Y-145358309D01*
X194853821Y-145399524D01*
X194850484Y-145443224D01*
X194848468Y-145489636D01*
X194847688Y-145538987D01*
X194846841Y-145767431D01*
X194362123Y-145767431D01*
X194359154Y-145743954D01*
X194354319Y-145689198D01*
X194351226Y-145632488D01*
X194349851Y-145574387D01*
X194350165Y-145515460D01*
X194352142Y-145456269D01*
X194355756Y-145397378D01*
X194360980Y-145339348D01*
X194367788Y-145282745D01*
X194376151Y-145228131D01*
X194386045Y-145176069D01*
X194397442Y-145127123D01*
X194410316Y-145081855D01*
X194424639Y-145040829D01*
X194447325Y-144987158D01*
X194473271Y-144934376D01*
X194502308Y-144882652D01*
X194534269Y-144832153D01*
X194568984Y-144783049D01*
X194606285Y-144735506D01*
X194646003Y-144689693D01*
X194687970Y-144645778D01*
X194732016Y-144603930D01*
X194777975Y-144564316D01*
X194825675Y-144527104D01*
X194874950Y-144492464D01*
X194925631Y-144460562D01*
X194977548Y-144431566D01*
X195030534Y-144405646D01*
X195084419Y-144382969D01*
X195124754Y-144368785D01*
X195168374Y-144356073D01*
X195214847Y-144344855D01*
X195263744Y-144335152D01*
X195314633Y-144326984D01*
X195367083Y-144320372D01*
X195420665Y-144315337D01*
X195474947Y-144311900D01*
X195529499Y-144310081D01*
X195583891Y-144309901D01*
X195637690Y-144311382D01*
G37*
G36*
X200620677Y-147431412D02*
G01*
X200664084Y-147434446D01*
X200703268Y-147438327D01*
X200736772Y-147443030D01*
X200763144Y-147448529D01*
X200780928Y-147454802D01*
X200786146Y-147458220D01*
X200788670Y-147461821D01*
X200928942Y-147903127D01*
X201105672Y-148434523D01*
X201259809Y-148881404D01*
X201309950Y-149018587D01*
X201332297Y-149069165D01*
X201333776Y-149068101D01*
X201335945Y-149064944D01*
X201342276Y-149052560D01*
X201362382Y-149004967D01*
X201391404Y-148929726D01*
X201428130Y-148830172D01*
X201471346Y-148709643D01*
X201519842Y-148571475D01*
X201572404Y-148419006D01*
X201627821Y-148255572D01*
X201901476Y-147441978D01*
X202146216Y-147434370D01*
X202197307Y-147433264D01*
X202244077Y-147433204D01*
X202285758Y-147434135D01*
X202321582Y-147436004D01*
X202350781Y-147438754D01*
X202362656Y-147440444D01*
X202372588Y-147442333D01*
X202380479Y-147444416D01*
X202386235Y-147446685D01*
X202389759Y-147449134D01*
X202390654Y-147450424D01*
X202390955Y-147451756D01*
X202390285Y-147456133D01*
X202388321Y-147463982D01*
X202380773Y-147489317D01*
X202368840Y-147526209D01*
X202353050Y-147573110D01*
X202312020Y-147690732D01*
X202261917Y-147829780D01*
X202090919Y-148306443D01*
X201860995Y-148956718D01*
X201589110Y-149730624D01*
X201334773Y-149730624D01*
X201080437Y-149730624D01*
X200819118Y-149009634D01*
X200424702Y-147906692D01*
X200313668Y-147583497D01*
X200284356Y-147492287D01*
X200274289Y-147453073D01*
X200275731Y-147449539D01*
X200279935Y-147446281D01*
X200286719Y-147443297D01*
X200295902Y-147440583D01*
X200320737Y-147435954D01*
X200352984Y-147432370D01*
X200391189Y-147429805D01*
X200433898Y-147428235D01*
X200527008Y-147427982D01*
X200620677Y-147431412D01*
G37*
G36*
X196666852Y-151053063D02*
G01*
X196873460Y-151449459D01*
X196904883Y-151416864D01*
X196909067Y-151411656D01*
X196915065Y-151402891D01*
X196932045Y-151375502D01*
X196954916Y-151336322D01*
X196982771Y-151286977D01*
X197014706Y-151229094D01*
X197049811Y-151164297D01*
X197087182Y-151094213D01*
X197125911Y-151020467D01*
X197315518Y-150656665D01*
X197554192Y-150656665D01*
X197792868Y-150656665D01*
X197775305Y-150702967D01*
X197751352Y-150751918D01*
X197700382Y-150847759D01*
X197546483Y-151127815D01*
X197371787Y-151438532D01*
X197234476Y-151675311D01*
X197138977Y-151834061D01*
X197125748Y-152270477D01*
X197112518Y-152706892D01*
X196894237Y-152716010D01*
X196675955Y-152725127D01*
X196675955Y-152336583D01*
X196675955Y-151948039D01*
X196551833Y-151719070D01*
X196496034Y-151617640D01*
X196435864Y-151510729D01*
X196378559Y-151411059D01*
X196331351Y-151331352D01*
X196282970Y-151249358D01*
X196222471Y-151143457D01*
X196157574Y-151027325D01*
X196096004Y-150914634D01*
X195957013Y-150656665D01*
X196208629Y-150656665D01*
X196460245Y-150656665D01*
X196666852Y-151053063D01*
G37*
G36*
X196808829Y-148215884D02*
G01*
X196809410Y-149003020D01*
X196860852Y-149116361D01*
X196873868Y-149142066D01*
X196888758Y-149166136D01*
X196905402Y-149188570D01*
X196923677Y-149209367D01*
X196943460Y-149228526D01*
X196964630Y-149246046D01*
X196987065Y-149261925D01*
X197010642Y-149276164D01*
X197035239Y-149288760D01*
X197060734Y-149299713D01*
X197087005Y-149309022D01*
X197113930Y-149316685D01*
X197141386Y-149322702D01*
X197169252Y-149327071D01*
X197197406Y-149329791D01*
X197225725Y-149330862D01*
X197254087Y-149330283D01*
X197282369Y-149328051D01*
X197310451Y-149324167D01*
X197338210Y-149318628D01*
X197365523Y-149311435D01*
X197392269Y-149302586D01*
X197418325Y-149292080D01*
X197443569Y-149279915D01*
X197467879Y-149266092D01*
X197491133Y-149250608D01*
X197513209Y-149233463D01*
X197533985Y-149214655D01*
X197553338Y-149194184D01*
X197571147Y-149172049D01*
X197587289Y-149148248D01*
X197601642Y-149122781D01*
X197654913Y-149018357D01*
X197654913Y-148223553D01*
X197654913Y-147428749D01*
X197893039Y-147428749D01*
X198131165Y-147428749D01*
X198131165Y-148259148D01*
X198131165Y-149089547D01*
X198085910Y-149231491D01*
X198072772Y-149267281D01*
X198056103Y-149303729D01*
X198036199Y-149340532D01*
X198013357Y-149377383D01*
X197987872Y-149413978D01*
X197960043Y-149450012D01*
X197930164Y-149485180D01*
X197898534Y-149519178D01*
X197865448Y-149551701D01*
X197831203Y-149582443D01*
X197796096Y-149611100D01*
X197760423Y-149637368D01*
X197724481Y-149660940D01*
X197688566Y-149681513D01*
X197652976Y-149698781D01*
X197618005Y-149712441D01*
X197586312Y-149722183D01*
X197551037Y-149731167D01*
X197512703Y-149739356D01*
X197471831Y-149746714D01*
X197428940Y-149753204D01*
X197384552Y-149758792D01*
X197339187Y-149763441D01*
X197293366Y-149767114D01*
X197247611Y-149769776D01*
X197202441Y-149771391D01*
X197158377Y-149771923D01*
X197115941Y-149771335D01*
X197075653Y-149769593D01*
X197038033Y-149766659D01*
X197003603Y-149762497D01*
X196972884Y-149757073D01*
X196972885Y-149757073D01*
X196922269Y-149744733D01*
X196873030Y-149729458D01*
X196825264Y-149711330D01*
X196779067Y-149690431D01*
X196734535Y-149666842D01*
X196691764Y-149640646D01*
X196650851Y-149611925D01*
X196611891Y-149580760D01*
X196574981Y-149547234D01*
X196540217Y-149511428D01*
X196507695Y-149473425D01*
X196477511Y-149433306D01*
X196449761Y-149391154D01*
X196424542Y-149347050D01*
X196401949Y-149301077D01*
X196382079Y-149253316D01*
X196331998Y-149121514D01*
X196331998Y-148275131D01*
X196331998Y-147428749D01*
X196570122Y-147428749D01*
X196808247Y-147428749D01*
X196808829Y-148215884D01*
G37*
G36*
X189387675Y-145709389D02*
G01*
X189403770Y-145710681D01*
X189418698Y-145712829D01*
X189432459Y-145715826D01*
X189445053Y-145719669D01*
X189456482Y-145724350D01*
X189466744Y-145729866D01*
X189475842Y-145736211D01*
X189483774Y-145743379D01*
X189490541Y-145751365D01*
X189496143Y-145760165D01*
X189500582Y-145769773D01*
X189503856Y-145780183D01*
X189505967Y-145791391D01*
X189506915Y-145803391D01*
X189506699Y-145816178D01*
X189505321Y-145829746D01*
X189502781Y-145844091D01*
X189499079Y-145859206D01*
X189494215Y-145875088D01*
X189488189Y-145891730D01*
X189481003Y-145909128D01*
X189472656Y-145927275D01*
X189463148Y-145946168D01*
X189452481Y-145965800D01*
X189440653Y-145986166D01*
X189427666Y-146007261D01*
X189413520Y-146029081D01*
X189398216Y-146051618D01*
X189381752Y-146074870D01*
X189364131Y-146098829D01*
X189345351Y-146123491D01*
X189204624Y-146306770D01*
X189091515Y-146456405D01*
X189074205Y-146478711D01*
X189057000Y-146498924D01*
X189039901Y-146517044D01*
X189031392Y-146525318D01*
X189022911Y-146533069D01*
X189014456Y-146540296D01*
X189006029Y-146546999D01*
X188997629Y-146553179D01*
X188989258Y-146558834D01*
X188980914Y-146563966D01*
X188972598Y-146568574D01*
X188964311Y-146572657D01*
X188956052Y-146576217D01*
X188947821Y-146579252D01*
X188939620Y-146581763D01*
X188931447Y-146583750D01*
X188923303Y-146585212D01*
X188915188Y-146586150D01*
X188907103Y-146586563D01*
X188899048Y-146586452D01*
X188891022Y-146585816D01*
X188883026Y-146584655D01*
X188875060Y-146582970D01*
X188867124Y-146580760D01*
X188859219Y-146578024D01*
X188851344Y-146574764D01*
X188843500Y-146570979D01*
X188835686Y-146566669D01*
X188827904Y-146561833D01*
X188817393Y-146552906D01*
X188801756Y-146536841D01*
X188757832Y-146486774D01*
X188701589Y-146418598D01*
X188638485Y-146339276D01*
X188573976Y-146255771D01*
X188513521Y-146175046D01*
X188462577Y-146104065D01*
X188442378Y-146074405D01*
X188426602Y-146049793D01*
X188413943Y-146028799D01*
X188402950Y-146009802D01*
X188393617Y-145992601D01*
X188385940Y-145976995D01*
X188379913Y-145962784D01*
X188377516Y-145956139D01*
X188375530Y-145949768D01*
X188373954Y-145943646D01*
X188372786Y-145937747D01*
X188372027Y-145932046D01*
X188371676Y-145926519D01*
X188371732Y-145921141D01*
X188372194Y-145915885D01*
X188373062Y-145910729D01*
X188374335Y-145905645D01*
X188376013Y-145900610D01*
X188378093Y-145895598D01*
X188380577Y-145890584D01*
X188383464Y-145885544D01*
X188386752Y-145880452D01*
X188390441Y-145875282D01*
X188399018Y-145864613D01*
X188409192Y-145853335D01*
X188420956Y-145841249D01*
X188430069Y-145832433D01*
X188439049Y-145824367D01*
X188447916Y-145817058D01*
X188456693Y-145810517D01*
X188465401Y-145804750D01*
X188474062Y-145799768D01*
X188482697Y-145795578D01*
X188491328Y-145792188D01*
X188499977Y-145789609D01*
X188508665Y-145787848D01*
X188517414Y-145786914D01*
X188526246Y-145786815D01*
X188535181Y-145787560D01*
X188544243Y-145789158D01*
X188553452Y-145791617D01*
X188562830Y-145794946D01*
X188572398Y-145799154D01*
X188582179Y-145804249D01*
X188592194Y-145810239D01*
X188602465Y-145817134D01*
X188613013Y-145824941D01*
X188623859Y-145833671D01*
X188635027Y-145843330D01*
X188646536Y-145853928D01*
X188658409Y-145865474D01*
X188670668Y-145877975D01*
X188683334Y-145891441D01*
X188696428Y-145905880D01*
X188723990Y-145937712D01*
X188753526Y-145973541D01*
X188783930Y-146010733D01*
X188812959Y-146045409D01*
X188839931Y-146076809D01*
X188864163Y-146104178D01*
X188884972Y-146126757D01*
X188901675Y-146143789D01*
X188908273Y-146149989D01*
X188913588Y-146154517D01*
X188917536Y-146157281D01*
X188920030Y-146158184D01*
X188920986Y-146158026D01*
X188922111Y-146157615D01*
X188923399Y-146156957D01*
X188924845Y-146156057D01*
X188928189Y-146153562D01*
X188932097Y-146150181D01*
X188936526Y-146145964D01*
X188941430Y-146140961D01*
X188946766Y-146135225D01*
X188952488Y-146128806D01*
X188958552Y-146121755D01*
X188964914Y-146114122D01*
X188971529Y-146105959D01*
X188978352Y-146097316D01*
X188985340Y-146088244D01*
X188992447Y-146078794D01*
X188999630Y-146069018D01*
X189006843Y-146058965D01*
X189036170Y-146018293D01*
X189064837Y-145979914D01*
X189092798Y-145943874D01*
X189120005Y-145910219D01*
X189146410Y-145878993D01*
X189171967Y-145850243D01*
X189196627Y-145824015D01*
X189220344Y-145800354D01*
X189243069Y-145779306D01*
X189264756Y-145760916D01*
X189285357Y-145745230D01*
X189304824Y-145732293D01*
X189323111Y-145722152D01*
X189340170Y-145714852D01*
X189355953Y-145710438D01*
X189363351Y-145709328D01*
X189370412Y-145708957D01*
X189387675Y-145709389D01*
G37*
G36*
X195218685Y-150615570D02*
G01*
X195295354Y-150622314D01*
X195333251Y-150627931D01*
X195370713Y-150635057D01*
X195407633Y-150643706D01*
X195443905Y-150653887D01*
X195479421Y-150665612D01*
X195514075Y-150678892D01*
X195547760Y-150693737D01*
X195580369Y-150710160D01*
X195611794Y-150728170D01*
X195641930Y-150747779D01*
X195659313Y-150760826D01*
X195677219Y-150776130D01*
X195695421Y-150793370D01*
X195713693Y-150812228D01*
X195731806Y-150832384D01*
X195749535Y-150853520D01*
X195766653Y-150875316D01*
X195782931Y-150897453D01*
X195798145Y-150919612D01*
X195812066Y-150941473D01*
X195824468Y-150962719D01*
X195835124Y-150983029D01*
X195843806Y-151002084D01*
X195850289Y-151019565D01*
X195852635Y-151027616D01*
X195854346Y-151035154D01*
X195855393Y-151042138D01*
X195855748Y-151048530D01*
X195855523Y-151050052D01*
X195854856Y-151051782D01*
X195853757Y-151053711D01*
X195852237Y-151055832D01*
X195850309Y-151058138D01*
X195847981Y-151060621D01*
X195842176Y-151066091D01*
X195834909Y-151072183D01*
X195826269Y-151078837D01*
X195816344Y-151085995D01*
X195805222Y-151093598D01*
X195792992Y-151101587D01*
X195779741Y-151109903D01*
X195765557Y-151118488D01*
X195750530Y-151127282D01*
X195734747Y-151136227D01*
X195718297Y-151145263D01*
X195701266Y-151154332D01*
X195683745Y-151163375D01*
X195511743Y-151250749D01*
X195430997Y-151152788D01*
X195413609Y-151133033D01*
X195395338Y-151114801D01*
X195376277Y-151098078D01*
X195356521Y-151082855D01*
X195336163Y-151069118D01*
X195315298Y-151056857D01*
X195294020Y-151046059D01*
X195272423Y-151036714D01*
X195250601Y-151028810D01*
X195228649Y-151022334D01*
X195206660Y-151017276D01*
X195184729Y-151013623D01*
X195162950Y-151011365D01*
X195141417Y-151010489D01*
X195120225Y-151010984D01*
X195099466Y-151012839D01*
X195079236Y-151016041D01*
X195059629Y-151020579D01*
X195040739Y-151026441D01*
X195022660Y-151033617D01*
X195005486Y-151042093D01*
X194989311Y-151051859D01*
X194974230Y-151062904D01*
X194960337Y-151075214D01*
X194947726Y-151088779D01*
X194936490Y-151103588D01*
X194926725Y-151119628D01*
X194918524Y-151136887D01*
X194911982Y-151155356D01*
X194907192Y-151175020D01*
X194904249Y-151195870D01*
X194903247Y-151217893D01*
X194903465Y-151228340D01*
X194904137Y-151238485D01*
X194905289Y-151248348D01*
X194906946Y-151257952D01*
X194909135Y-151267315D01*
X194911880Y-151276459D01*
X194915208Y-151285404D01*
X194919145Y-151294171D01*
X194923717Y-151302780D01*
X194928949Y-151311252D01*
X194934867Y-151319607D01*
X194941498Y-151327866D01*
X194948866Y-151336050D01*
X194956998Y-151344178D01*
X194965919Y-151352272D01*
X194975656Y-151360353D01*
X194986234Y-151368440D01*
X194997678Y-151376554D01*
X195010016Y-151384716D01*
X195023273Y-151392947D01*
X195037473Y-151401266D01*
X195052644Y-151409695D01*
X195086001Y-151426963D01*
X195123548Y-151444916D01*
X195165493Y-151463718D01*
X195212043Y-151483532D01*
X195263403Y-151504525D01*
X195346368Y-151538863D01*
X195421806Y-151572293D01*
X195490017Y-151605125D01*
X195551302Y-151637672D01*
X195605960Y-151670244D01*
X195654293Y-151703154D01*
X195696599Y-151736713D01*
X195733180Y-151771232D01*
X195749417Y-151788949D01*
X195764335Y-151807022D01*
X195777971Y-151825492D01*
X195790364Y-151844397D01*
X195801550Y-151863775D01*
X195811567Y-151883666D01*
X195820453Y-151904108D01*
X195828245Y-151925141D01*
X195840698Y-151969135D01*
X195849226Y-152015958D01*
X195854128Y-152065922D01*
X195855705Y-152119338D01*
X195854916Y-152156104D01*
X195852538Y-152191892D01*
X195848587Y-152226690D01*
X195843079Y-152260483D01*
X195836030Y-152293260D01*
X195827455Y-152325006D01*
X195817370Y-152355707D01*
X195805791Y-152385352D01*
X195792733Y-152413925D01*
X195778213Y-152441414D01*
X195762246Y-152467806D01*
X195744847Y-152493086D01*
X195726033Y-152517243D01*
X195705819Y-152540261D01*
X195684221Y-152562128D01*
X195661255Y-152582831D01*
X195636936Y-152602356D01*
X195611280Y-152620690D01*
X195584304Y-152637819D01*
X195556021Y-152653730D01*
X195526449Y-152668410D01*
X195495603Y-152681845D01*
X195463499Y-152694021D01*
X195430152Y-152704926D01*
X195395579Y-152714546D01*
X195359794Y-152722868D01*
X195322814Y-152729878D01*
X195284655Y-152735563D01*
X195245331Y-152739910D01*
X195204860Y-152742904D01*
X195163256Y-152744534D01*
X195120535Y-152744785D01*
X195077322Y-152743577D01*
X195032712Y-152740927D01*
X194987990Y-152737002D01*
X194944438Y-152731968D01*
X194903341Y-152725993D01*
X194865981Y-152719242D01*
X194833642Y-152711885D01*
X194819757Y-152708030D01*
X194807608Y-152704086D01*
X194780696Y-152693519D01*
X194753228Y-152680778D01*
X194725408Y-152666042D01*
X194697445Y-152649490D01*
X194669544Y-152631300D01*
X194641912Y-152611650D01*
X194614756Y-152590718D01*
X194588281Y-152568684D01*
X194562695Y-152545726D01*
X194538203Y-152522021D01*
X194515013Y-152497749D01*
X194493330Y-152473088D01*
X194473362Y-152448217D01*
X194455314Y-152423313D01*
X194439393Y-152398555D01*
X194425806Y-152374122D01*
X194373523Y-152271639D01*
X194473020Y-152209412D01*
X194494763Y-152196309D01*
X194518440Y-152182921D01*
X194543292Y-152169623D01*
X194568558Y-152156793D01*
X194593475Y-152144806D01*
X194617285Y-152134038D01*
X194639225Y-152124866D01*
X194658534Y-152117667D01*
X194744551Y-152088149D01*
X194782858Y-152162227D01*
X194790304Y-152175689D01*
X194798502Y-152188766D01*
X194807424Y-152201446D01*
X194817039Y-152213717D01*
X194827318Y-152225569D01*
X194838230Y-152236988D01*
X194849746Y-152247964D01*
X194861837Y-152258485D01*
X194874472Y-152268538D01*
X194887622Y-152278114D01*
X194901257Y-152287198D01*
X194915346Y-152295781D01*
X194929861Y-152303851D01*
X194944772Y-152311395D01*
X194960048Y-152318402D01*
X194975660Y-152324861D01*
X194991578Y-152330759D01*
X195007773Y-152336085D01*
X195024214Y-152340828D01*
X195040872Y-152344975D01*
X195057718Y-152348516D01*
X195074720Y-152351437D01*
X195091850Y-152353729D01*
X195109077Y-152355378D01*
X195126372Y-152356374D01*
X195143705Y-152356704D01*
X195161047Y-152356357D01*
X195178367Y-152355322D01*
X195195636Y-152353586D01*
X195212824Y-152351138D01*
X195229901Y-152347967D01*
X195246837Y-152344060D01*
X195269409Y-152337754D01*
X195290015Y-152330753D01*
X195299597Y-152326968D01*
X195308706Y-152322981D01*
X195317350Y-152318783D01*
X195325535Y-152314363D01*
X195333266Y-152309712D01*
X195340551Y-152304822D01*
X195347397Y-152299682D01*
X195353808Y-152294284D01*
X195359792Y-152288617D01*
X195365356Y-152282672D01*
X195370505Y-152276439D01*
X195375246Y-152269910D01*
X195379586Y-152263075D01*
X195383530Y-152255924D01*
X195387086Y-152248448D01*
X195390260Y-152240637D01*
X195393058Y-152232483D01*
X195395486Y-152223974D01*
X195397552Y-152215103D01*
X195399261Y-152205860D01*
X195400620Y-152196234D01*
X195401635Y-152186217D01*
X195402313Y-152175799D01*
X195402660Y-152164971D01*
X195402388Y-152142047D01*
X195400870Y-152117368D01*
X195392726Y-152019270D01*
X195258488Y-151953124D01*
X195227841Y-151938487D01*
X195192131Y-151922223D01*
X195152650Y-151904874D01*
X195110687Y-151886984D01*
X195067534Y-151869094D01*
X195024481Y-151851747D01*
X194982819Y-151835486D01*
X194943839Y-151820853D01*
X194910638Y-151807818D01*
X194876948Y-151792938D01*
X194843040Y-151776409D01*
X194809183Y-151758428D01*
X194775647Y-151739191D01*
X194742702Y-151718896D01*
X194710618Y-151697739D01*
X194679665Y-151675917D01*
X194650112Y-151653626D01*
X194622230Y-151631064D01*
X194596288Y-151608428D01*
X194572556Y-151585913D01*
X194551304Y-151563716D01*
X194532803Y-151542036D01*
X194517321Y-151521067D01*
X194505129Y-151501008D01*
X194488524Y-151466013D01*
X194474811Y-151428756D01*
X194463958Y-151389573D01*
X194455931Y-151348802D01*
X194450698Y-151306782D01*
X194448225Y-151263849D01*
X194448479Y-151220341D01*
X194451428Y-151176597D01*
X194457038Y-151132952D01*
X194465276Y-151089746D01*
X194476110Y-151047316D01*
X194489505Y-151005999D01*
X194505429Y-150966133D01*
X194523849Y-150928056D01*
X194544732Y-150892105D01*
X194568044Y-150858617D01*
X194588455Y-150833791D01*
X194610783Y-150810233D01*
X194634922Y-150787953D01*
X194660764Y-150766964D01*
X194688203Y-150747275D01*
X194717132Y-150728899D01*
X194747444Y-150711845D01*
X194779031Y-150696126D01*
X194811787Y-150681752D01*
X194845606Y-150668734D01*
X194880379Y-150657083D01*
X194916001Y-150646810D01*
X194989362Y-150630444D01*
X195064833Y-150619723D01*
X195141559Y-150614735D01*
X195218685Y-150615570D01*
G37*
G36*
X188963351Y-142680086D02*
G01*
X189122102Y-142680444D01*
X189532206Y-142915366D01*
X190965853Y-143732620D01*
X192310331Y-144491736D01*
X192939911Y-144848371D01*
X193148770Y-144969163D01*
X193246070Y-145028137D01*
X193254052Y-145034182D01*
X193262311Y-145041161D01*
X193270783Y-145048991D01*
X193279405Y-145057590D01*
X193288112Y-145066873D01*
X193296840Y-145076758D01*
X193305525Y-145087162D01*
X193314102Y-145098001D01*
X193322509Y-145109192D01*
X193330679Y-145120652D01*
X193338550Y-145132298D01*
X193346057Y-145144046D01*
X193353137Y-145155814D01*
X193359724Y-145167518D01*
X193365755Y-145179075D01*
X193371165Y-145190402D01*
X193420418Y-145298853D01*
X193421000Y-148336000D01*
X193421582Y-151373148D01*
X193369959Y-151474339D01*
X193364523Y-151485912D01*
X193360366Y-151496177D01*
X193353061Y-151514493D01*
X193348500Y-151523398D01*
X193342392Y-151532706D01*
X193334030Y-151542842D01*
X193322707Y-151554235D01*
X193307717Y-151567313D01*
X193288354Y-151582501D01*
X193263911Y-151600229D01*
X193233682Y-151620922D01*
X193196959Y-151645010D01*
X193153038Y-151672919D01*
X193040770Y-151741909D01*
X192891227Y-151831312D01*
X192698757Y-151944549D01*
X192457708Y-152085038D01*
X192162427Y-152256198D01*
X190325957Y-153315942D01*
X189608196Y-153728973D01*
X189386497Y-153853876D01*
X189233185Y-153936189D01*
X189130960Y-153984771D01*
X189093598Y-153999183D01*
X189062520Y-154008486D01*
X189035563Y-154013788D01*
X189010565Y-154016195D01*
X188957793Y-154016761D01*
X188831062Y-154016655D01*
X188463607Y-153817812D01*
X188298777Y-153727422D01*
X188121615Y-153628296D01*
X187953392Y-153532442D01*
X187815378Y-153451867D01*
X187554903Y-153298372D01*
X187322935Y-153163994D01*
X186959712Y-152954788D01*
X186383664Y-152621389D01*
X185741554Y-152251118D01*
X185259286Y-151975966D01*
X186360976Y-151975966D01*
X186424979Y-152017902D01*
X186444456Y-152030007D01*
X186475425Y-152048413D01*
X186565465Y-152100485D01*
X186682356Y-152166828D01*
X186813354Y-152240148D01*
X188711996Y-153306270D01*
X188757713Y-153331783D01*
X188801407Y-153355598D01*
X188842047Y-153377193D01*
X188878602Y-153396047D01*
X188910040Y-153411635D01*
X188935332Y-153423437D01*
X188953446Y-153430931D01*
X188959489Y-153432898D01*
X188963351Y-153433593D01*
X188994967Y-153418628D01*
X189075304Y-153375606D01*
X189360569Y-153217471D01*
X189775995Y-152983341D01*
X190278429Y-152697373D01*
X190278430Y-152697373D01*
X191567051Y-151960799D01*
X191220128Y-151474097D01*
X190385543Y-150292724D01*
X189452776Y-148963332D01*
X189375767Y-148853479D01*
X189309382Y-148759744D01*
X189260704Y-148692065D01*
X189236822Y-148660384D01*
X189235688Y-148660503D01*
X189234569Y-148663410D01*
X189232379Y-148677313D01*
X189228235Y-148735595D01*
X189224479Y-148830914D01*
X189221202Y-148958958D01*
X189218496Y-149115412D01*
X189216451Y-149295964D01*
X189214706Y-149712103D01*
X189214706Y-150788957D01*
X189333768Y-150788957D01*
X189452831Y-150788957D01*
X189452990Y-150835259D01*
X189452261Y-150842515D01*
X189450082Y-150854551D01*
X189441673Y-150891860D01*
X189428355Y-150944991D01*
X189410720Y-151011744D01*
X189389359Y-151089924D01*
X189364863Y-151177331D01*
X189308838Y-151371040D01*
X189110281Y-152045728D01*
X189098937Y-152083625D01*
X189087485Y-152120321D01*
X189076240Y-152154915D01*
X189065512Y-152186509D01*
X189055615Y-152214204D01*
X189046862Y-152237101D01*
X189039565Y-152254301D01*
X189034036Y-152264905D01*
X189029527Y-152271359D01*
X189024933Y-152276933D01*
X189020259Y-152281632D01*
X189015505Y-152285457D01*
X189010675Y-152288411D01*
X189005771Y-152290498D01*
X189000795Y-152291720D01*
X188995750Y-152292080D01*
X188990637Y-152291582D01*
X188985460Y-152290228D01*
X188980220Y-152288021D01*
X188974921Y-152284964D01*
X188969564Y-152281060D01*
X188964152Y-152276312D01*
X188958687Y-152270722D01*
X188953171Y-152264294D01*
X188947607Y-152257031D01*
X188941998Y-152248936D01*
X188936345Y-152240011D01*
X188930651Y-152230259D01*
X188924919Y-152219684D01*
X188919150Y-152208288D01*
X188913348Y-152196074D01*
X188907513Y-152183045D01*
X188901650Y-152169205D01*
X188895760Y-152154555D01*
X188889845Y-152139100D01*
X188883909Y-152122841D01*
X188877952Y-152105782D01*
X188871979Y-152087925D01*
X188865990Y-152069274D01*
X188859989Y-152049832D01*
X188711554Y-151554207D01*
X188613433Y-151212523D01*
X188581169Y-151091895D01*
X188558998Y-151000733D01*
X188546092Y-150936034D01*
X188541621Y-150894790D01*
X188540018Y-150802186D01*
X188626008Y-150793895D01*
X188711997Y-150785604D01*
X188711997Y-149711790D01*
X188711997Y-148637975D01*
X188300179Y-149226984D01*
X187690735Y-150095372D01*
X187036813Y-151020467D01*
X186583987Y-151660274D01*
X186360976Y-151975966D01*
X185259286Y-151975966D01*
X185219498Y-151953265D01*
X185065254Y-151865316D01*
X184939815Y-151791361D01*
X184839668Y-151728838D01*
X184797981Y-151701063D01*
X184761300Y-151675185D01*
X184729185Y-151650884D01*
X184701198Y-151627839D01*
X184676899Y-151605732D01*
X184655850Y-151584240D01*
X184637611Y-151563045D01*
X184621743Y-151541825D01*
X184607807Y-151520260D01*
X184595365Y-151498031D01*
X184558039Y-151426585D01*
X184558475Y-148336261D01*
X184558476Y-148329697D01*
X185113664Y-148329697D01*
X185113664Y-151205811D01*
X185156713Y-151242123D01*
X185201135Y-151272119D01*
X185290075Y-151327286D01*
X185540709Y-151477278D01*
X185787021Y-151620381D01*
X185870557Y-151666939D01*
X185895771Y-151680048D01*
X185907415Y-151684882D01*
X185908376Y-151684529D01*
X185909886Y-151683379D01*
X185914494Y-151678766D01*
X185921119Y-151671203D01*
X185929646Y-151660848D01*
X185951927Y-151632391D01*
X185980396Y-151594662D01*
X186014109Y-151548926D01*
X186052124Y-151496449D01*
X186093497Y-151438495D01*
X186137286Y-151376331D01*
X186400834Y-151002261D01*
X186730250Y-150537603D01*
X188264458Y-148368019D01*
X188337984Y-148262187D01*
X188267022Y-148238890D01*
X188244661Y-148231063D01*
X188224237Y-148222851D01*
X188205680Y-148214162D01*
X188197081Y-148209609D01*
X188188924Y-148204903D01*
X188181199Y-148200030D01*
X188173899Y-148194980D01*
X188167015Y-148189740D01*
X188160538Y-148184300D01*
X188154461Y-148178648D01*
X188148773Y-148172771D01*
X188143468Y-148166659D01*
X188138536Y-148160300D01*
X188133969Y-148153682D01*
X188129758Y-148146793D01*
X188125895Y-148139622D01*
X188122371Y-148132157D01*
X188119178Y-148124387D01*
X188116308Y-148116300D01*
X188113751Y-148107884D01*
X188111500Y-148099127D01*
X188109545Y-148090019D01*
X188107878Y-148080547D01*
X188105376Y-148060466D01*
X188103925Y-148038791D01*
X188103456Y-148015429D01*
X188103650Y-148001669D01*
X188104225Y-147988183D01*
X188105171Y-147975005D01*
X188106482Y-147962172D01*
X188108146Y-147949716D01*
X188110155Y-147937673D01*
X188112501Y-147926077D01*
X188115173Y-147914963D01*
X188118163Y-147904366D01*
X188121463Y-147894320D01*
X188125063Y-147884859D01*
X188128953Y-147876019D01*
X188133125Y-147867833D01*
X188137571Y-147860337D01*
X188142280Y-147853564D01*
X188147244Y-147847551D01*
X188191033Y-147799165D01*
X188964622Y-147799165D01*
X189738211Y-147799165D01*
X189752142Y-147835470D01*
X189753657Y-147839805D01*
X189755317Y-147845267D01*
X189759004Y-147859247D01*
X189763071Y-147876759D01*
X189767386Y-147897149D01*
X189771816Y-147919767D01*
X189776229Y-147943959D01*
X189780492Y-147969074D01*
X189784472Y-147994460D01*
X189787786Y-148019186D01*
X189789961Y-148041960D01*
X189790926Y-148062917D01*
X189790613Y-148082191D01*
X189789956Y-148091239D01*
X189788953Y-148099917D01*
X189787595Y-148108240D01*
X189785874Y-148116227D01*
X189783782Y-148123893D01*
X189781309Y-148131256D01*
X189778447Y-148138333D01*
X189775187Y-148145139D01*
X189771521Y-148151692D01*
X189767439Y-148158008D01*
X189762934Y-148164105D01*
X189757996Y-148169999D01*
X189752617Y-148175707D01*
X189746788Y-148181246D01*
X189740500Y-148186631D01*
X189733745Y-148191881D01*
X189718799Y-148202040D01*
X189701879Y-148211856D01*
X189682916Y-148221464D01*
X189661840Y-148230997D01*
X189589414Y-148262187D01*
X189807132Y-148566457D01*
X190045542Y-148901816D01*
X190313010Y-149280832D01*
X191289590Y-150658691D01*
X191979085Y-151619402D01*
X192017191Y-151669325D01*
X192342355Y-151489356D01*
X192474351Y-151415504D01*
X192593375Y-151347462D01*
X192686370Y-151292787D01*
X192719027Y-151272824D01*
X192740279Y-151259036D01*
X192813039Y-151208687D01*
X192813039Y-148341649D01*
X192813039Y-145474612D01*
X192771481Y-145433053D01*
X192766673Y-145428489D01*
X192760876Y-145423406D01*
X192754165Y-145417858D01*
X192746619Y-145411898D01*
X192729335Y-145398958D01*
X192709648Y-145385018D01*
X192688182Y-145370510D01*
X192665560Y-145355865D01*
X192642406Y-145341514D01*
X192619345Y-145327889D01*
X190739179Y-144256325D01*
X188969589Y-143248365D01*
X188635741Y-143437704D01*
X188357214Y-143596474D01*
X188156373Y-143712317D01*
X187913700Y-143852249D01*
X187534602Y-144068936D01*
X187136073Y-144296873D01*
X186846685Y-144463854D01*
X186473747Y-144678344D01*
X185874342Y-145020505D01*
X185113664Y-145453583D01*
X185113664Y-148329697D01*
X184558476Y-148329697D01*
X184558881Y-145453583D01*
X184558910Y-145245936D01*
X184618006Y-145142762D01*
X184677102Y-145039587D01*
X186740852Y-143859658D01*
X188804602Y-142679729D01*
X188963351Y-142680086D01*
G37*
G36*
X197860921Y-144334515D02*
G01*
X198031138Y-144339623D01*
X198103113Y-144344009D01*
X198167446Y-144349848D01*
X198224972Y-144357316D01*
X198276526Y-144366589D01*
X198322945Y-144377840D01*
X198365064Y-144391246D01*
X198403717Y-144406981D01*
X198439741Y-144425220D01*
X198473971Y-144446138D01*
X198507241Y-144469911D01*
X198540389Y-144496712D01*
X198574248Y-144526718D01*
X198604878Y-144556055D01*
X198633330Y-144585852D01*
X198659632Y-144616174D01*
X198683811Y-144647085D01*
X198705896Y-144678648D01*
X198725914Y-144710927D01*
X198743893Y-144743986D01*
X198759862Y-144777890D01*
X198773847Y-144812702D01*
X198785878Y-144848486D01*
X198795981Y-144885306D01*
X198804185Y-144923226D01*
X198810517Y-144962311D01*
X198815005Y-145002623D01*
X198817678Y-145044227D01*
X198818562Y-145087187D01*
X198816730Y-145144446D01*
X198811280Y-145200328D01*
X198802286Y-145254715D01*
X198789821Y-145307488D01*
X198773958Y-145358529D01*
X198754769Y-145407720D01*
X198732329Y-145454943D01*
X198706709Y-145500080D01*
X198677982Y-145543012D01*
X198646222Y-145583621D01*
X198611502Y-145621789D01*
X198573893Y-145657398D01*
X198533471Y-145690330D01*
X198490306Y-145720466D01*
X198444473Y-145747688D01*
X198396043Y-145771879D01*
X198276685Y-145826236D01*
X197952570Y-145836463D01*
X197628456Y-145846690D01*
X197628456Y-146267303D01*
X197628456Y-146687915D01*
X197377101Y-146687915D01*
X197125748Y-146687915D01*
X197125748Y-145510519D01*
X197125748Y-145417915D01*
X197628456Y-145417915D01*
X197836891Y-145417915D01*
X197883334Y-145417190D01*
X197928785Y-145415076D01*
X197972507Y-145411670D01*
X198013763Y-145407068D01*
X198051816Y-145401366D01*
X198085930Y-145394659D01*
X198101279Y-145390958D01*
X198115367Y-145387042D01*
X198128102Y-145382923D01*
X198139392Y-145378612D01*
X198162941Y-145368083D01*
X198173988Y-145362592D01*
X198184561Y-145356933D01*
X198194665Y-145351096D01*
X198204309Y-145345068D01*
X198213498Y-145338838D01*
X198222241Y-145332393D01*
X198230544Y-145325722D01*
X198238415Y-145318814D01*
X198245860Y-145311656D01*
X198252886Y-145304236D01*
X198259500Y-145296543D01*
X198265710Y-145288565D01*
X198271523Y-145280291D01*
X198276946Y-145271707D01*
X198281985Y-145262804D01*
X198286647Y-145253568D01*
X198290941Y-145243988D01*
X198294872Y-145234052D01*
X198298449Y-145223749D01*
X198301677Y-145213066D01*
X198304565Y-145201992D01*
X198307118Y-145190515D01*
X198309345Y-145178623D01*
X198311252Y-145166305D01*
X198314134Y-145140341D01*
X198315823Y-145112529D01*
X198316373Y-145082775D01*
X198316373Y-144944616D01*
X198252567Y-144870380D01*
X198188759Y-144796145D01*
X197908608Y-144787122D01*
X197628456Y-144778099D01*
X197628456Y-145098007D01*
X197628456Y-145417915D01*
X197125748Y-145417915D01*
X197125748Y-145098007D01*
X197125748Y-144333124D01*
X197650111Y-144333124D01*
X197860921Y-144334515D01*
G37*
G36*
X188979108Y-144596780D02*
G01*
X189030089Y-144598663D01*
X189080352Y-144601829D01*
X189129448Y-144606278D01*
X189176926Y-144612010D01*
X189222336Y-144619026D01*
X189265229Y-144627325D01*
X189305155Y-144636910D01*
X189361636Y-144653285D01*
X189417081Y-144671932D01*
X189471440Y-144692788D01*
X189524663Y-144715789D01*
X189576702Y-144740872D01*
X189627505Y-144767973D01*
X189677025Y-144797030D01*
X189725210Y-144827978D01*
X189772012Y-144860754D01*
X189817381Y-144895296D01*
X189861266Y-144931539D01*
X189903620Y-144969420D01*
X189944391Y-145008877D01*
X189983530Y-145049845D01*
X190020988Y-145092262D01*
X190056714Y-145136063D01*
X190090660Y-145181186D01*
X190122776Y-145227567D01*
X190153012Y-145275143D01*
X190181318Y-145323851D01*
X190207645Y-145373626D01*
X190231943Y-145424407D01*
X190254162Y-145476129D01*
X190274253Y-145528729D01*
X190292167Y-145582144D01*
X190307853Y-145636310D01*
X190321262Y-145691165D01*
X190332344Y-145746644D01*
X190341050Y-145802684D01*
X190347330Y-145859223D01*
X190351135Y-145916196D01*
X190352414Y-145973541D01*
X190350703Y-146041962D01*
X190345584Y-146109651D01*
X190337074Y-146176565D01*
X190325193Y-146242661D01*
X190309958Y-146307895D01*
X190291390Y-146372226D01*
X190269506Y-146435609D01*
X190244325Y-146498001D01*
X190215865Y-146559360D01*
X190184146Y-146619643D01*
X190149186Y-146678806D01*
X190111004Y-146736807D01*
X190069617Y-146793602D01*
X190025046Y-146849149D01*
X189977309Y-146903403D01*
X189926424Y-146956324D01*
X189867123Y-147012382D01*
X189806031Y-147064226D01*
X189743152Y-147111853D01*
X189678491Y-147155263D01*
X189612050Y-147194453D01*
X189543834Y-147229423D01*
X189473847Y-147260172D01*
X189402093Y-147286697D01*
X189328576Y-147308999D01*
X189253299Y-147327074D01*
X189176267Y-147340923D01*
X189097483Y-147350543D01*
X189016952Y-147355934D01*
X188934678Y-147357093D01*
X188850664Y-147354021D01*
X188764914Y-147346714D01*
X188705403Y-147338805D01*
X188646392Y-147328105D01*
X188587965Y-147314656D01*
X188530207Y-147298503D01*
X188473201Y-147279689D01*
X188417032Y-147258258D01*
X188361784Y-147234253D01*
X188307542Y-147207717D01*
X188254388Y-147178695D01*
X188202409Y-147147230D01*
X188151687Y-147113365D01*
X188102307Y-147077144D01*
X188054353Y-147038611D01*
X188007909Y-146997809D01*
X187963061Y-146954781D01*
X187919891Y-146909572D01*
X187887384Y-146872692D01*
X187856470Y-146834919D01*
X187827134Y-146796226D01*
X187799365Y-146756585D01*
X187773148Y-146715969D01*
X187748472Y-146674351D01*
X187725323Y-146631703D01*
X187703689Y-146587998D01*
X187683556Y-146543208D01*
X187664911Y-146497307D01*
X187647742Y-146450266D01*
X187632036Y-146402060D01*
X187617780Y-146352659D01*
X187604961Y-146302037D01*
X187593565Y-146250166D01*
X187588818Y-146224895D01*
X188037310Y-146224895D01*
X188111453Y-146383645D01*
X188130248Y-146421760D01*
X188150437Y-146458658D01*
X188171973Y-146494315D01*
X188194810Y-146528710D01*
X188218903Y-146561822D01*
X188244204Y-146593627D01*
X188270669Y-146624104D01*
X188298249Y-146653232D01*
X188326900Y-146680987D01*
X188356576Y-146707348D01*
X188387229Y-146732293D01*
X188418814Y-146755800D01*
X188451284Y-146777847D01*
X188484593Y-146798412D01*
X188518696Y-146817473D01*
X188553546Y-146835008D01*
X188589096Y-146850995D01*
X188625301Y-146865412D01*
X188662114Y-146878236D01*
X188699489Y-146889447D01*
X188737380Y-146899022D01*
X188775741Y-146906939D01*
X188814525Y-146913175D01*
X188853687Y-146917710D01*
X188893180Y-146920521D01*
X188932957Y-146921585D01*
X188972974Y-146920882D01*
X189013182Y-146918388D01*
X189053537Y-146914083D01*
X189093993Y-146907943D01*
X189134502Y-146899948D01*
X189175018Y-146890074D01*
X189229538Y-146874152D01*
X189282180Y-146856016D01*
X189332932Y-146835677D01*
X189381785Y-146813143D01*
X189428726Y-146788422D01*
X189473746Y-146761524D01*
X189516832Y-146732458D01*
X189557975Y-146701233D01*
X189597162Y-146667856D01*
X189634383Y-146632338D01*
X189669627Y-146594687D01*
X189702883Y-146554911D01*
X189734140Y-146513020D01*
X189763386Y-146469023D01*
X189790611Y-146422929D01*
X189815804Y-146374746D01*
X189889394Y-146224895D01*
X189889113Y-145986770D01*
X189888833Y-145748645D01*
X189805592Y-145588926D01*
X189773421Y-145531725D01*
X189738273Y-145477649D01*
X189700331Y-145426718D01*
X189659779Y-145378952D01*
X189616798Y-145334372D01*
X189571572Y-145292999D01*
X189524284Y-145254853D01*
X189475117Y-145219954D01*
X189424253Y-145188323D01*
X189371876Y-145159980D01*
X189318169Y-145134946D01*
X189263314Y-145113242D01*
X189207494Y-145094887D01*
X189150893Y-145079903D01*
X189093693Y-145068309D01*
X189036078Y-145060127D01*
X188978229Y-145055377D01*
X188920330Y-145054079D01*
X188862565Y-145056253D01*
X188805115Y-145061921D01*
X188748164Y-145071103D01*
X188691895Y-145083819D01*
X188636490Y-145100090D01*
X188582133Y-145119936D01*
X188529007Y-145143378D01*
X188477294Y-145170435D01*
X188427177Y-145201130D01*
X188378840Y-145235482D01*
X188332464Y-145273511D01*
X188288234Y-145315239D01*
X188246333Y-145360685D01*
X188206942Y-145409870D01*
X188181536Y-145444613D01*
X188158709Y-145477408D01*
X188138332Y-145508689D01*
X188120274Y-145538884D01*
X188104407Y-145568426D01*
X188090600Y-145597745D01*
X188078723Y-145627274D01*
X188068648Y-145657441D01*
X188060244Y-145688680D01*
X188053381Y-145721420D01*
X188047930Y-145756093D01*
X188043761Y-145793131D01*
X188040744Y-145832963D01*
X188038750Y-145876021D01*
X188037648Y-145922737D01*
X188037310Y-145973541D01*
X188037310Y-146224895D01*
X187588818Y-146224895D01*
X187583581Y-146197020D01*
X187545015Y-145973541D01*
X187543073Y-145962284D01*
X187572504Y-145764402D01*
X187590737Y-145668034D01*
X187616336Y-145573360D01*
X187648969Y-145480759D01*
X187688303Y-145390608D01*
X187734006Y-145303286D01*
X187785748Y-145219170D01*
X187843195Y-145138638D01*
X187906017Y-145062068D01*
X187973880Y-144989839D01*
X188046454Y-144922327D01*
X188123406Y-144859910D01*
X188204405Y-144802968D01*
X188289118Y-144751877D01*
X188377214Y-144707015D01*
X188468360Y-144668761D01*
X188562225Y-144637492D01*
X188599418Y-144627847D01*
X188639943Y-144619482D01*
X188683349Y-144612396D01*
X188729187Y-144606591D01*
X188777007Y-144602067D01*
X188826359Y-144598823D01*
X188876794Y-144596860D01*
X188927860Y-144596179D01*
X188979108Y-144596780D01*
G37*
D12*
X195094648Y-154726979D02*
X194761315Y-154250788D01*
X194523220Y-154726979D02*
X194523220Y-153726979D01*
X194523220Y-153726979D02*
X194904172Y-153726979D01*
X194904172Y-153726979D02*
X194999410Y-153774598D01*
X194999410Y-153774598D02*
X195047029Y-153822217D01*
X195047029Y-153822217D02*
X195094648Y-153917455D01*
X195094648Y-153917455D02*
X195094648Y-154060312D01*
X195094648Y-154060312D02*
X195047029Y-154155550D01*
X195047029Y-154155550D02*
X194999410Y-154203169D01*
X194999410Y-154203169D02*
X194904172Y-154250788D01*
X194904172Y-154250788D02*
X194523220Y-154250788D01*
X195380363Y-153726979D02*
X195951791Y-153726979D01*
X195666077Y-154726979D02*
X195666077Y-153726979D01*
X196285125Y-154726979D02*
X196285125Y-153726979D01*
X196856553Y-154726979D02*
X196427982Y-154155550D01*
X196856553Y-153726979D02*
X196285125Y-154298407D01*
X198618458Y-154726979D02*
X198285125Y-154250788D01*
X198047030Y-154726979D02*
X198047030Y-153726979D01*
X198047030Y-153726979D02*
X198427982Y-153726979D01*
X198427982Y-153726979D02*
X198523220Y-153774598D01*
X198523220Y-153774598D02*
X198570839Y-153822217D01*
X198570839Y-153822217D02*
X198618458Y-153917455D01*
X198618458Y-153917455D02*
X198618458Y-154060312D01*
X198618458Y-154060312D02*
X198570839Y-154155550D01*
X198570839Y-154155550D02*
X198523220Y-154203169D01*
X198523220Y-154203169D02*
X198427982Y-154250788D01*
X198427982Y-154250788D02*
X198047030Y-154250788D01*
X199189887Y-154726979D02*
X199094649Y-154679360D01*
X199094649Y-154679360D02*
X199047030Y-154631740D01*
X199047030Y-154631740D02*
X198999411Y-154536502D01*
X198999411Y-154536502D02*
X198999411Y-154250788D01*
X198999411Y-154250788D02*
X199047030Y-154155550D01*
X199047030Y-154155550D02*
X199094649Y-154107931D01*
X199094649Y-154107931D02*
X199189887Y-154060312D01*
X199189887Y-154060312D02*
X199332744Y-154060312D01*
X199332744Y-154060312D02*
X199427982Y-154107931D01*
X199427982Y-154107931D02*
X199475601Y-154155550D01*
X199475601Y-154155550D02*
X199523220Y-154250788D01*
X199523220Y-154250788D02*
X199523220Y-154536502D01*
X199523220Y-154536502D02*
X199475601Y-154631740D01*
X199475601Y-154631740D02*
X199427982Y-154679360D01*
X199427982Y-154679360D02*
X199332744Y-154726979D01*
X199332744Y-154726979D02*
X199189887Y-154726979D01*
X199856554Y-154060312D02*
X200094649Y-154726979D01*
X200094649Y-154726979D02*
X200332744Y-154060312D01*
X201094649Y-154679360D02*
X200999411Y-154726979D01*
X200999411Y-154726979D02*
X200808935Y-154726979D01*
X200808935Y-154726979D02*
X200713697Y-154679360D01*
X200713697Y-154679360D02*
X200666078Y-154584121D01*
X200666078Y-154584121D02*
X200666078Y-154203169D01*
X200666078Y-154203169D02*
X200713697Y-154107931D01*
X200713697Y-154107931D02*
X200808935Y-154060312D01*
X200808935Y-154060312D02*
X200999411Y-154060312D01*
X200999411Y-154060312D02*
X201094649Y-154107931D01*
X201094649Y-154107931D02*
X201142268Y-154203169D01*
X201142268Y-154203169D02*
X201142268Y-154298407D01*
X201142268Y-154298407D02*
X200666078Y-154393645D01*
X201570840Y-154726979D02*
X201570840Y-154060312D01*
X201570840Y-154250788D02*
X201618459Y-154155550D01*
X201618459Y-154155550D02*
X201666078Y-154107931D01*
X201666078Y-154107931D02*
X201761316Y-154060312D01*
X201761316Y-154060312D02*
X201856554Y-154060312D01*
X202951793Y-154726979D02*
X202951793Y-153726979D01*
X202951793Y-153726979D02*
X203332745Y-153726979D01*
X203332745Y-153726979D02*
X203427983Y-153774598D01*
X203427983Y-153774598D02*
X203475602Y-153822217D01*
X203475602Y-153822217D02*
X203523221Y-153917455D01*
X203523221Y-153917455D02*
X203523221Y-154060312D01*
X203523221Y-154060312D02*
X203475602Y-154155550D01*
X203475602Y-154155550D02*
X203427983Y-154203169D01*
X203427983Y-154203169D02*
X203332745Y-154250788D01*
X203332745Y-154250788D02*
X202951793Y-154250788D01*
X204523221Y-154631740D02*
X204475602Y-154679360D01*
X204475602Y-154679360D02*
X204332745Y-154726979D01*
X204332745Y-154726979D02*
X204237507Y-154726979D01*
X204237507Y-154726979D02*
X204094650Y-154679360D01*
X204094650Y-154679360D02*
X203999412Y-154584121D01*
X203999412Y-154584121D02*
X203951793Y-154488883D01*
X203951793Y-154488883D02*
X203904174Y-154298407D01*
X203904174Y-154298407D02*
X203904174Y-154155550D01*
X203904174Y-154155550D02*
X203951793Y-153965074D01*
X203951793Y-153965074D02*
X203999412Y-153869836D01*
X203999412Y-153869836D02*
X204094650Y-153774598D01*
X204094650Y-153774598D02*
X204237507Y-153726979D01*
X204237507Y-153726979D02*
X204332745Y-153726979D01*
X204332745Y-153726979D02*
X204475602Y-153774598D01*
X204475602Y-153774598D02*
X204523221Y-153822217D01*
X205285126Y-154203169D02*
X205427983Y-154250788D01*
X205427983Y-154250788D02*
X205475602Y-154298407D01*
X205475602Y-154298407D02*
X205523221Y-154393645D01*
X205523221Y-154393645D02*
X205523221Y-154536502D01*
X205523221Y-154536502D02*
X205475602Y-154631740D01*
X205475602Y-154631740D02*
X205427983Y-154679360D01*
X205427983Y-154679360D02*
X205332745Y-154726979D01*
X205332745Y-154726979D02*
X204951793Y-154726979D01*
X204951793Y-154726979D02*
X204951793Y-153726979D01*
X204951793Y-153726979D02*
X205285126Y-153726979D01*
X205285126Y-153726979D02*
X205380364Y-153774598D01*
X205380364Y-153774598D02*
X205427983Y-153822217D01*
X205427983Y-153822217D02*
X205475602Y-153917455D01*
X205475602Y-153917455D02*
X205475602Y-154012693D01*
X205475602Y-154012693D02*
X205427983Y-154107931D01*
X205427983Y-154107931D02*
X205380364Y-154155550D01*
X205380364Y-154155550D02*
X205285126Y-154203169D01*
X205285126Y-154203169D02*
X204951793Y-154203169D01*
X206618460Y-154060312D02*
X206856555Y-154726979D01*
X206856555Y-154726979D02*
X207094650Y-154060312D01*
X207666079Y-153726979D02*
X207761317Y-153726979D01*
X207761317Y-153726979D02*
X207856555Y-153774598D01*
X207856555Y-153774598D02*
X207904174Y-153822217D01*
X207904174Y-153822217D02*
X207951793Y-153917455D01*
X207951793Y-153917455D02*
X207999412Y-154107931D01*
X207999412Y-154107931D02*
X207999412Y-154346026D01*
X207999412Y-154346026D02*
X207951793Y-154536502D01*
X207951793Y-154536502D02*
X207904174Y-154631740D01*
X207904174Y-154631740D02*
X207856555Y-154679360D01*
X207856555Y-154679360D02*
X207761317Y-154726979D01*
X207761317Y-154726979D02*
X207666079Y-154726979D01*
X207666079Y-154726979D02*
X207570841Y-154679360D01*
X207570841Y-154679360D02*
X207523222Y-154631740D01*
X207523222Y-154631740D02*
X207475603Y-154536502D01*
X207475603Y-154536502D02*
X207427984Y-154346026D01*
X207427984Y-154346026D02*
X207427984Y-154107931D01*
X207427984Y-154107931D02*
X207475603Y-153917455D01*
X207475603Y-153917455D02*
X207523222Y-153822217D01*
X207523222Y-153822217D02*
X207570841Y-153774598D01*
X207570841Y-153774598D02*
X207666079Y-153726979D01*
X208427984Y-154631740D02*
X208475603Y-154679360D01*
X208475603Y-154679360D02*
X208427984Y-154726979D01*
X208427984Y-154726979D02*
X208380365Y-154679360D01*
X208380365Y-154679360D02*
X208427984Y-154631740D01*
X208427984Y-154631740D02*
X208427984Y-154726979D01*
X209094650Y-153726979D02*
X209189888Y-153726979D01*
X209189888Y-153726979D02*
X209285126Y-153774598D01*
X209285126Y-153774598D02*
X209332745Y-153822217D01*
X209332745Y-153822217D02*
X209380364Y-153917455D01*
X209380364Y-153917455D02*
X209427983Y-154107931D01*
X209427983Y-154107931D02*
X209427983Y-154346026D01*
X209427983Y-154346026D02*
X209380364Y-154536502D01*
X209380364Y-154536502D02*
X209332745Y-154631740D01*
X209332745Y-154631740D02*
X209285126Y-154679360D01*
X209285126Y-154679360D02*
X209189888Y-154726979D01*
X209189888Y-154726979D02*
X209094650Y-154726979D01*
X209094650Y-154726979D02*
X208999412Y-154679360D01*
X208999412Y-154679360D02*
X208951793Y-154631740D01*
X208951793Y-154631740D02*
X208904174Y-154536502D01*
X208904174Y-154536502D02*
X208856555Y-154346026D01*
X208856555Y-154346026D02*
X208856555Y-154107931D01*
X208856555Y-154107931D02*
X208904174Y-153917455D01*
X208904174Y-153917455D02*
X208951793Y-153822217D01*
X208951793Y-153822217D02*
X208999412Y-153774598D01*
X208999412Y-153774598D02*
X209094650Y-153726979D01*
X209856555Y-154631740D02*
X209904174Y-154679360D01*
X209904174Y-154679360D02*
X209856555Y-154726979D01*
X209856555Y-154726979D02*
X209808936Y-154679360D01*
X209808936Y-154679360D02*
X209856555Y-154631740D01*
X209856555Y-154631740D02*
X209856555Y-154726979D01*
X210856554Y-154726979D02*
X210285126Y-154726979D01*
X210570840Y-154726979D02*
X210570840Y-153726979D01*
X210570840Y-153726979D02*
X210475602Y-153869836D01*
X210475602Y-153869836D02*
X210380364Y-153965074D01*
X210380364Y-153965074D02*
X210285126Y-154012693D01*
X194523220Y-156336923D02*
X194523220Y-155336923D01*
X194523220Y-155717875D02*
X194618458Y-155670256D01*
X194618458Y-155670256D02*
X194808934Y-155670256D01*
X194808934Y-155670256D02*
X194904172Y-155717875D01*
X194904172Y-155717875D02*
X194951791Y-155765494D01*
X194951791Y-155765494D02*
X194999410Y-155860732D01*
X194999410Y-155860732D02*
X194999410Y-156146446D01*
X194999410Y-156146446D02*
X194951791Y-156241684D01*
X194951791Y-156241684D02*
X194904172Y-156289304D01*
X194904172Y-156289304D02*
X194808934Y-156336923D01*
X194808934Y-156336923D02*
X194618458Y-156336923D01*
X194618458Y-156336923D02*
X194523220Y-156289304D01*
X195332744Y-155670256D02*
X195570839Y-156336923D01*
X195808934Y-155670256D02*
X195570839Y-156336923D01*
X195570839Y-156336923D02*
X195475601Y-156575018D01*
X195475601Y-156575018D02*
X195427982Y-156622637D01*
X195427982Y-156622637D02*
X195332744Y-156670256D01*
X196951792Y-156336923D02*
X196951792Y-155670256D01*
X196951792Y-155336923D02*
X196904173Y-155384542D01*
X196904173Y-155384542D02*
X196951792Y-155432161D01*
X196951792Y-155432161D02*
X196999411Y-155384542D01*
X196999411Y-155384542D02*
X196951792Y-155336923D01*
X196951792Y-155336923D02*
X196951792Y-155432161D01*
X197427982Y-155670256D02*
X197427982Y-156336923D01*
X197427982Y-155765494D02*
X197475601Y-155717875D01*
X197475601Y-155717875D02*
X197570839Y-155670256D01*
X197570839Y-155670256D02*
X197713696Y-155670256D01*
X197713696Y-155670256D02*
X197808934Y-155717875D01*
X197808934Y-155717875D02*
X197856553Y-155813113D01*
X197856553Y-155813113D02*
X197856553Y-156336923D01*
X198189887Y-155670256D02*
X198570839Y-155670256D01*
X198332744Y-156336923D02*
X198332744Y-155479780D01*
X198332744Y-155479780D02*
X198380363Y-155384542D01*
X198380363Y-155384542D02*
X198475601Y-155336923D01*
X198475601Y-155336923D02*
X198570839Y-155336923D01*
X198904173Y-156336923D02*
X198904173Y-155670256D01*
X198904173Y-155860732D02*
X198951792Y-155765494D01*
X198951792Y-155765494D02*
X198999411Y-155717875D01*
X198999411Y-155717875D02*
X199094649Y-155670256D01*
X199094649Y-155670256D02*
X199189887Y-155670256D01*
X199951792Y-156336923D02*
X199951792Y-155813113D01*
X199951792Y-155813113D02*
X199904173Y-155717875D01*
X199904173Y-155717875D02*
X199808935Y-155670256D01*
X199808935Y-155670256D02*
X199618459Y-155670256D01*
X199618459Y-155670256D02*
X199523221Y-155717875D01*
X199951792Y-156289304D02*
X199856554Y-156336923D01*
X199856554Y-156336923D02*
X199618459Y-156336923D01*
X199618459Y-156336923D02*
X199523221Y-156289304D01*
X199523221Y-156289304D02*
X199475602Y-156194065D01*
X199475602Y-156194065D02*
X199475602Y-156098827D01*
X199475602Y-156098827D02*
X199523221Y-156003589D01*
X199523221Y-156003589D02*
X199618459Y-155955970D01*
X199618459Y-155955970D02*
X199856554Y-155955970D01*
X199856554Y-155955970D02*
X199951792Y-155908351D01*
X200285126Y-155670256D02*
X200666078Y-155670256D01*
X200427983Y-155336923D02*
X200427983Y-156194065D01*
X200427983Y-156194065D02*
X200475602Y-156289304D01*
X200475602Y-156289304D02*
X200570840Y-156336923D01*
X200570840Y-156336923D02*
X200666078Y-156336923D01*
X263397419Y-168225115D02*
X262397419Y-168225115D01*
X263397419Y-167796544D02*
X262873609Y-167796544D01*
X262873609Y-167796544D02*
X262778371Y-167844163D01*
X262778371Y-167844163D02*
X262730752Y-167939401D01*
X262730752Y-167939401D02*
X262730752Y-168082258D01*
X262730752Y-168082258D02*
X262778371Y-168177496D01*
X262778371Y-168177496D02*
X262825990Y-168225115D01*
X262730752Y-167463210D02*
X262730752Y-167082258D01*
X262397419Y-167320353D02*
X263254561Y-167320353D01*
X263254561Y-167320353D02*
X263349800Y-167272734D01*
X263349800Y-167272734D02*
X263397419Y-167177496D01*
X263397419Y-167177496D02*
X263397419Y-167082258D01*
X262730752Y-166891781D02*
X262730752Y-166510829D01*
X262397419Y-166748924D02*
X263254561Y-166748924D01*
X263254561Y-166748924D02*
X263349800Y-166701305D01*
X263349800Y-166701305D02*
X263397419Y-166606067D01*
X263397419Y-166606067D02*
X263397419Y-166510829D01*
X262730752Y-166177495D02*
X263730752Y-166177495D01*
X262778371Y-166177495D02*
X262730752Y-166082257D01*
X262730752Y-166082257D02*
X262730752Y-165891781D01*
X262730752Y-165891781D02*
X262778371Y-165796543D01*
X262778371Y-165796543D02*
X262825990Y-165748924D01*
X262825990Y-165748924D02*
X262921228Y-165701305D01*
X262921228Y-165701305D02*
X263206942Y-165701305D01*
X263206942Y-165701305D02*
X263302180Y-165748924D01*
X263302180Y-165748924D02*
X263349800Y-165796543D01*
X263349800Y-165796543D02*
X263397419Y-165891781D01*
X263397419Y-165891781D02*
X263397419Y-166082257D01*
X263397419Y-166082257D02*
X263349800Y-166177495D01*
X263349800Y-165320352D02*
X263397419Y-165225114D01*
X263397419Y-165225114D02*
X263397419Y-165034638D01*
X263397419Y-165034638D02*
X263349800Y-164939400D01*
X263349800Y-164939400D02*
X263254561Y-164891781D01*
X263254561Y-164891781D02*
X263206942Y-164891781D01*
X263206942Y-164891781D02*
X263111704Y-164939400D01*
X263111704Y-164939400D02*
X263064085Y-165034638D01*
X263064085Y-165034638D02*
X263064085Y-165177495D01*
X263064085Y-165177495D02*
X263016466Y-165272733D01*
X263016466Y-165272733D02*
X262921228Y-165320352D01*
X262921228Y-165320352D02*
X262873609Y-165320352D01*
X262873609Y-165320352D02*
X262778371Y-165272733D01*
X262778371Y-165272733D02*
X262730752Y-165177495D01*
X262730752Y-165177495D02*
X262730752Y-165034638D01*
X262730752Y-165034638D02*
X262778371Y-164939400D01*
X263302180Y-164463209D02*
X263349800Y-164415590D01*
X263349800Y-164415590D02*
X263397419Y-164463209D01*
X263397419Y-164463209D02*
X263349800Y-164510828D01*
X263349800Y-164510828D02*
X263302180Y-164463209D01*
X263302180Y-164463209D02*
X263397419Y-164463209D01*
X262778371Y-164463209D02*
X262825990Y-164415590D01*
X262825990Y-164415590D02*
X262873609Y-164463209D01*
X262873609Y-164463209D02*
X262825990Y-164510828D01*
X262825990Y-164510828D02*
X262778371Y-164463209D01*
X262778371Y-164463209D02*
X262873609Y-164463209D01*
X262349800Y-163272734D02*
X263635514Y-164129876D01*
X262349800Y-162225115D02*
X263635514Y-163082257D01*
X262730752Y-161463210D02*
X263540276Y-161463210D01*
X263540276Y-161463210D02*
X263635514Y-161510829D01*
X263635514Y-161510829D02*
X263683133Y-161558448D01*
X263683133Y-161558448D02*
X263730752Y-161653686D01*
X263730752Y-161653686D02*
X263730752Y-161796543D01*
X263730752Y-161796543D02*
X263683133Y-161891781D01*
X263349800Y-161463210D02*
X263397419Y-161558448D01*
X263397419Y-161558448D02*
X263397419Y-161748924D01*
X263397419Y-161748924D02*
X263349800Y-161844162D01*
X263349800Y-161844162D02*
X263302180Y-161891781D01*
X263302180Y-161891781D02*
X263206942Y-161939400D01*
X263206942Y-161939400D02*
X262921228Y-161939400D01*
X262921228Y-161939400D02*
X262825990Y-161891781D01*
X262825990Y-161891781D02*
X262778371Y-161844162D01*
X262778371Y-161844162D02*
X262730752Y-161748924D01*
X262730752Y-161748924D02*
X262730752Y-161558448D01*
X262730752Y-161558448D02*
X262778371Y-161463210D01*
X263397419Y-160987019D02*
X262730752Y-160987019D01*
X262397419Y-160987019D02*
X262445038Y-161034638D01*
X262445038Y-161034638D02*
X262492657Y-160987019D01*
X262492657Y-160987019D02*
X262445038Y-160939400D01*
X262445038Y-160939400D02*
X262397419Y-160987019D01*
X262397419Y-160987019D02*
X262492657Y-160987019D01*
X262730752Y-160653686D02*
X262730752Y-160272734D01*
X262397419Y-160510829D02*
X263254561Y-160510829D01*
X263254561Y-160510829D02*
X263349800Y-160463210D01*
X263349800Y-160463210D02*
X263397419Y-160367972D01*
X263397419Y-160367972D02*
X263397419Y-160272734D01*
X263397419Y-159939400D02*
X262397419Y-159939400D01*
X263397419Y-159510829D02*
X262873609Y-159510829D01*
X262873609Y-159510829D02*
X262778371Y-159558448D01*
X262778371Y-159558448D02*
X262730752Y-159653686D01*
X262730752Y-159653686D02*
X262730752Y-159796543D01*
X262730752Y-159796543D02*
X262778371Y-159891781D01*
X262778371Y-159891781D02*
X262825990Y-159939400D01*
X262730752Y-158606067D02*
X263397419Y-158606067D01*
X262730752Y-159034638D02*
X263254561Y-159034638D01*
X263254561Y-159034638D02*
X263349800Y-158987019D01*
X263349800Y-158987019D02*
X263397419Y-158891781D01*
X263397419Y-158891781D02*
X263397419Y-158748924D01*
X263397419Y-158748924D02*
X263349800Y-158653686D01*
X263349800Y-158653686D02*
X263302180Y-158606067D01*
X263397419Y-158129876D02*
X262397419Y-158129876D01*
X262778371Y-158129876D02*
X262730752Y-158034638D01*
X262730752Y-158034638D02*
X262730752Y-157844162D01*
X262730752Y-157844162D02*
X262778371Y-157748924D01*
X262778371Y-157748924D02*
X262825990Y-157701305D01*
X262825990Y-157701305D02*
X262921228Y-157653686D01*
X262921228Y-157653686D02*
X263206942Y-157653686D01*
X263206942Y-157653686D02*
X263302180Y-157701305D01*
X263302180Y-157701305D02*
X263349800Y-157748924D01*
X263349800Y-157748924D02*
X263397419Y-157844162D01*
X263397419Y-157844162D02*
X263397419Y-158034638D01*
X263397419Y-158034638D02*
X263349800Y-158129876D01*
X263302180Y-157225114D02*
X263349800Y-157177495D01*
X263349800Y-157177495D02*
X263397419Y-157225114D01*
X263397419Y-157225114D02*
X263349800Y-157272733D01*
X263349800Y-157272733D02*
X263302180Y-157225114D01*
X263302180Y-157225114D02*
X263397419Y-157225114D01*
X263349800Y-156320353D02*
X263397419Y-156415591D01*
X263397419Y-156415591D02*
X263397419Y-156606067D01*
X263397419Y-156606067D02*
X263349800Y-156701305D01*
X263349800Y-156701305D02*
X263302180Y-156748924D01*
X263302180Y-156748924D02*
X263206942Y-156796543D01*
X263206942Y-156796543D02*
X262921228Y-156796543D01*
X262921228Y-156796543D02*
X262825990Y-156748924D01*
X262825990Y-156748924D02*
X262778371Y-156701305D01*
X262778371Y-156701305D02*
X262730752Y-156606067D01*
X262730752Y-156606067D02*
X262730752Y-156415591D01*
X262730752Y-156415591D02*
X262778371Y-156320353D01*
X263397419Y-155748924D02*
X263349800Y-155844162D01*
X263349800Y-155844162D02*
X263302180Y-155891781D01*
X263302180Y-155891781D02*
X263206942Y-155939400D01*
X263206942Y-155939400D02*
X262921228Y-155939400D01*
X262921228Y-155939400D02*
X262825990Y-155891781D01*
X262825990Y-155891781D02*
X262778371Y-155844162D01*
X262778371Y-155844162D02*
X262730752Y-155748924D01*
X262730752Y-155748924D02*
X262730752Y-155606067D01*
X262730752Y-155606067D02*
X262778371Y-155510829D01*
X262778371Y-155510829D02*
X262825990Y-155463210D01*
X262825990Y-155463210D02*
X262921228Y-155415591D01*
X262921228Y-155415591D02*
X263206942Y-155415591D01*
X263206942Y-155415591D02*
X263302180Y-155463210D01*
X263302180Y-155463210D02*
X263349800Y-155510829D01*
X263349800Y-155510829D02*
X263397419Y-155606067D01*
X263397419Y-155606067D02*
X263397419Y-155748924D01*
X263397419Y-154987019D02*
X262730752Y-154987019D01*
X262825990Y-154987019D02*
X262778371Y-154939400D01*
X262778371Y-154939400D02*
X262730752Y-154844162D01*
X262730752Y-154844162D02*
X262730752Y-154701305D01*
X262730752Y-154701305D02*
X262778371Y-154606067D01*
X262778371Y-154606067D02*
X262873609Y-154558448D01*
X262873609Y-154558448D02*
X263397419Y-154558448D01*
X262873609Y-154558448D02*
X262778371Y-154510829D01*
X262778371Y-154510829D02*
X262730752Y-154415591D01*
X262730752Y-154415591D02*
X262730752Y-154272734D01*
X262730752Y-154272734D02*
X262778371Y-154177495D01*
X262778371Y-154177495D02*
X262873609Y-154129876D01*
X262873609Y-154129876D02*
X263397419Y-154129876D01*
X262349800Y-152939401D02*
X263635514Y-153796543D01*
X263397419Y-152606067D02*
X262730752Y-152606067D01*
X262397419Y-152606067D02*
X262445038Y-152653686D01*
X262445038Y-152653686D02*
X262492657Y-152606067D01*
X262492657Y-152606067D02*
X262445038Y-152558448D01*
X262445038Y-152558448D02*
X262397419Y-152606067D01*
X262397419Y-152606067D02*
X262492657Y-152606067D01*
X262730752Y-152129877D02*
X263397419Y-152129877D01*
X262825990Y-152129877D02*
X262778371Y-152082258D01*
X262778371Y-152082258D02*
X262730752Y-151987020D01*
X262730752Y-151987020D02*
X262730752Y-151844163D01*
X262730752Y-151844163D02*
X262778371Y-151748925D01*
X262778371Y-151748925D02*
X262873609Y-151701306D01*
X262873609Y-151701306D02*
X263397419Y-151701306D01*
X262730752Y-151367972D02*
X262730752Y-150987020D01*
X263397419Y-151225115D02*
X262540276Y-151225115D01*
X262540276Y-151225115D02*
X262445038Y-151177496D01*
X262445038Y-151177496D02*
X262397419Y-151082258D01*
X262397419Y-151082258D02*
X262397419Y-150987020D01*
X263397419Y-150653686D02*
X262730752Y-150653686D01*
X262921228Y-150653686D02*
X262825990Y-150606067D01*
X262825990Y-150606067D02*
X262778371Y-150558448D01*
X262778371Y-150558448D02*
X262730752Y-150463210D01*
X262730752Y-150463210D02*
X262730752Y-150367972D01*
X263397419Y-149606067D02*
X262873609Y-149606067D01*
X262873609Y-149606067D02*
X262778371Y-149653686D01*
X262778371Y-149653686D02*
X262730752Y-149748924D01*
X262730752Y-149748924D02*
X262730752Y-149939400D01*
X262730752Y-149939400D02*
X262778371Y-150034638D01*
X263349800Y-149606067D02*
X263397419Y-149701305D01*
X263397419Y-149701305D02*
X263397419Y-149939400D01*
X263397419Y-149939400D02*
X263349800Y-150034638D01*
X263349800Y-150034638D02*
X263254561Y-150082257D01*
X263254561Y-150082257D02*
X263159323Y-150082257D01*
X263159323Y-150082257D02*
X263064085Y-150034638D01*
X263064085Y-150034638D02*
X263016466Y-149939400D01*
X263016466Y-149939400D02*
X263016466Y-149701305D01*
X263016466Y-149701305D02*
X262968847Y-149606067D01*
X262730752Y-149272733D02*
X262730752Y-148891781D01*
X262397419Y-149129876D02*
X263254561Y-149129876D01*
X263254561Y-149129876D02*
X263349800Y-149082257D01*
X263349800Y-149082257D02*
X263397419Y-148987019D01*
X263397419Y-148987019D02*
X263397419Y-148891781D01*
X262349800Y-147844162D02*
X263635514Y-148701304D01*
X263397419Y-147367971D02*
X263349800Y-147463209D01*
X263349800Y-147463209D02*
X263302180Y-147510828D01*
X263302180Y-147510828D02*
X263206942Y-147558447D01*
X263206942Y-147558447D02*
X262921228Y-147558447D01*
X262921228Y-147558447D02*
X262825990Y-147510828D01*
X262825990Y-147510828D02*
X262778371Y-147463209D01*
X262778371Y-147463209D02*
X262730752Y-147367971D01*
X262730752Y-147367971D02*
X262730752Y-147225114D01*
X262730752Y-147225114D02*
X262778371Y-147129876D01*
X262778371Y-147129876D02*
X262825990Y-147082257D01*
X262825990Y-147082257D02*
X262921228Y-147034638D01*
X262921228Y-147034638D02*
X263206942Y-147034638D01*
X263206942Y-147034638D02*
X263302180Y-147082257D01*
X263302180Y-147082257D02*
X263349800Y-147129876D01*
X263349800Y-147129876D02*
X263397419Y-147225114D01*
X263397419Y-147225114D02*
X263397419Y-147367971D01*
X262730752Y-146606066D02*
X263730752Y-146606066D01*
X262778371Y-146606066D02*
X262730752Y-146510828D01*
X262730752Y-146510828D02*
X262730752Y-146320352D01*
X262730752Y-146320352D02*
X262778371Y-146225114D01*
X262778371Y-146225114D02*
X262825990Y-146177495D01*
X262825990Y-146177495D02*
X262921228Y-146129876D01*
X262921228Y-146129876D02*
X263206942Y-146129876D01*
X263206942Y-146129876D02*
X263302180Y-146177495D01*
X263302180Y-146177495D02*
X263349800Y-146225114D01*
X263349800Y-146225114D02*
X263397419Y-146320352D01*
X263397419Y-146320352D02*
X263397419Y-146510828D01*
X263397419Y-146510828D02*
X263349800Y-146606066D01*
X263349800Y-145320352D02*
X263397419Y-145415590D01*
X263397419Y-145415590D02*
X263397419Y-145606066D01*
X263397419Y-145606066D02*
X263349800Y-145701304D01*
X263349800Y-145701304D02*
X263254561Y-145748923D01*
X263254561Y-145748923D02*
X262873609Y-145748923D01*
X262873609Y-145748923D02*
X262778371Y-145701304D01*
X262778371Y-145701304D02*
X262730752Y-145606066D01*
X262730752Y-145606066D02*
X262730752Y-145415590D01*
X262730752Y-145415590D02*
X262778371Y-145320352D01*
X262778371Y-145320352D02*
X262873609Y-145272733D01*
X262873609Y-145272733D02*
X262968847Y-145272733D01*
X262968847Y-145272733D02*
X263064085Y-145748923D01*
X262730752Y-144844161D02*
X263397419Y-144844161D01*
X262825990Y-144844161D02*
X262778371Y-144796542D01*
X262778371Y-144796542D02*
X262730752Y-144701304D01*
X262730752Y-144701304D02*
X262730752Y-144558447D01*
X262730752Y-144558447D02*
X262778371Y-144463209D01*
X262778371Y-144463209D02*
X262873609Y-144415590D01*
X262873609Y-144415590D02*
X263397419Y-144415590D01*
X263016466Y-143939399D02*
X263016466Y-143177495D01*
X263349800Y-142748923D02*
X263397419Y-142653685D01*
X263397419Y-142653685D02*
X263397419Y-142463209D01*
X263397419Y-142463209D02*
X263349800Y-142367971D01*
X263349800Y-142367971D02*
X263254561Y-142320352D01*
X263254561Y-142320352D02*
X263206942Y-142320352D01*
X263206942Y-142320352D02*
X263111704Y-142367971D01*
X263111704Y-142367971D02*
X263064085Y-142463209D01*
X263064085Y-142463209D02*
X263064085Y-142606066D01*
X263064085Y-142606066D02*
X263016466Y-142701304D01*
X263016466Y-142701304D02*
X262921228Y-142748923D01*
X262921228Y-142748923D02*
X262873609Y-142748923D01*
X262873609Y-142748923D02*
X262778371Y-142701304D01*
X262778371Y-142701304D02*
X262730752Y-142606066D01*
X262730752Y-142606066D02*
X262730752Y-142463209D01*
X262730752Y-142463209D02*
X262778371Y-142367971D01*
X262730752Y-141463209D02*
X263397419Y-141463209D01*
X262730752Y-141891780D02*
X263254561Y-141891780D01*
X263254561Y-141891780D02*
X263349800Y-141844161D01*
X263349800Y-141844161D02*
X263397419Y-141748923D01*
X263397419Y-141748923D02*
X263397419Y-141606066D01*
X263397419Y-141606066D02*
X263349800Y-141510828D01*
X263349800Y-141510828D02*
X263302180Y-141463209D01*
X263397419Y-140987018D02*
X262730752Y-140987018D01*
X262921228Y-140987018D02*
X262825990Y-140939399D01*
X262825990Y-140939399D02*
X262778371Y-140891780D01*
X262778371Y-140891780D02*
X262730752Y-140796542D01*
X262730752Y-140796542D02*
X262730752Y-140701304D01*
X262730752Y-140463208D02*
X263397419Y-140225113D01*
X263397419Y-140225113D02*
X262730752Y-139987018D01*
X263349800Y-139225113D02*
X263397419Y-139320351D01*
X263397419Y-139320351D02*
X263397419Y-139510827D01*
X263397419Y-139510827D02*
X263349800Y-139606065D01*
X263349800Y-139606065D02*
X263254561Y-139653684D01*
X263254561Y-139653684D02*
X262873609Y-139653684D01*
X262873609Y-139653684D02*
X262778371Y-139606065D01*
X262778371Y-139606065D02*
X262730752Y-139510827D01*
X262730752Y-139510827D02*
X262730752Y-139320351D01*
X262730752Y-139320351D02*
X262778371Y-139225113D01*
X262778371Y-139225113D02*
X262873609Y-139177494D01*
X262873609Y-139177494D02*
X262968847Y-139177494D01*
X262968847Y-139177494D02*
X263064085Y-139653684D01*
X262730752Y-138844160D02*
X263397419Y-138606065D01*
X262730752Y-138367970D02*
X263397419Y-138606065D01*
X263397419Y-138606065D02*
X263635514Y-138701303D01*
X263635514Y-138701303D02*
X263683133Y-138748922D01*
X263683133Y-138748922D02*
X263730752Y-138844160D01*
X263016466Y-137987017D02*
X263016466Y-137225113D01*
X263349800Y-136796541D02*
X263397419Y-136701303D01*
X263397419Y-136701303D02*
X263397419Y-136510827D01*
X263397419Y-136510827D02*
X263349800Y-136415589D01*
X263349800Y-136415589D02*
X263254561Y-136367970D01*
X263254561Y-136367970D02*
X263206942Y-136367970D01*
X263206942Y-136367970D02*
X263111704Y-136415589D01*
X263111704Y-136415589D02*
X263064085Y-136510827D01*
X263064085Y-136510827D02*
X263064085Y-136653684D01*
X263064085Y-136653684D02*
X263016466Y-136748922D01*
X263016466Y-136748922D02*
X262921228Y-136796541D01*
X262921228Y-136796541D02*
X262873609Y-136796541D01*
X262873609Y-136796541D02*
X262778371Y-136748922D01*
X262778371Y-136748922D02*
X262730752Y-136653684D01*
X262730752Y-136653684D02*
X262730752Y-136510827D01*
X262730752Y-136510827D02*
X262778371Y-136415589D01*
X262730752Y-136034636D02*
X263397419Y-135796541D01*
X262730752Y-135558446D02*
X263397419Y-135796541D01*
X263397419Y-135796541D02*
X263635514Y-135891779D01*
X263635514Y-135891779D02*
X263683133Y-135939398D01*
X263683133Y-135939398D02*
X263730752Y-136034636D01*
X263349800Y-135225112D02*
X263397419Y-135129874D01*
X263397419Y-135129874D02*
X263397419Y-134939398D01*
X263397419Y-134939398D02*
X263349800Y-134844160D01*
X263349800Y-134844160D02*
X263254561Y-134796541D01*
X263254561Y-134796541D02*
X263206942Y-134796541D01*
X263206942Y-134796541D02*
X263111704Y-134844160D01*
X263111704Y-134844160D02*
X263064085Y-134939398D01*
X263064085Y-134939398D02*
X263064085Y-135082255D01*
X263064085Y-135082255D02*
X263016466Y-135177493D01*
X263016466Y-135177493D02*
X262921228Y-135225112D01*
X262921228Y-135225112D02*
X262873609Y-135225112D01*
X262873609Y-135225112D02*
X262778371Y-135177493D01*
X262778371Y-135177493D02*
X262730752Y-135082255D01*
X262730752Y-135082255D02*
X262730752Y-134939398D01*
X262730752Y-134939398D02*
X262778371Y-134844160D01*
X262730752Y-134510826D02*
X262730752Y-134129874D01*
X262397419Y-134367969D02*
X263254561Y-134367969D01*
X263254561Y-134367969D02*
X263349800Y-134320350D01*
X263349800Y-134320350D02*
X263397419Y-134225112D01*
X263397419Y-134225112D02*
X263397419Y-134129874D01*
X263349800Y-133415588D02*
X263397419Y-133510826D01*
X263397419Y-133510826D02*
X263397419Y-133701302D01*
X263397419Y-133701302D02*
X263349800Y-133796540D01*
X263349800Y-133796540D02*
X263254561Y-133844159D01*
X263254561Y-133844159D02*
X262873609Y-133844159D01*
X262873609Y-133844159D02*
X262778371Y-133796540D01*
X262778371Y-133796540D02*
X262730752Y-133701302D01*
X262730752Y-133701302D02*
X262730752Y-133510826D01*
X262730752Y-133510826D02*
X262778371Y-133415588D01*
X262778371Y-133415588D02*
X262873609Y-133367969D01*
X262873609Y-133367969D02*
X262968847Y-133367969D01*
X262968847Y-133367969D02*
X263064085Y-133844159D01*
X263397419Y-132939397D02*
X262730752Y-132939397D01*
X262825990Y-132939397D02*
X262778371Y-132891778D01*
X262778371Y-132891778D02*
X262730752Y-132796540D01*
X262730752Y-132796540D02*
X262730752Y-132653683D01*
X262730752Y-132653683D02*
X262778371Y-132558445D01*
X262778371Y-132558445D02*
X262873609Y-132510826D01*
X262873609Y-132510826D02*
X263397419Y-132510826D01*
X262873609Y-132510826D02*
X262778371Y-132463207D01*
X262778371Y-132463207D02*
X262730752Y-132367969D01*
X262730752Y-132367969D02*
X262730752Y-132225112D01*
X262730752Y-132225112D02*
X262778371Y-132129873D01*
X262778371Y-132129873D02*
X262873609Y-132082254D01*
X262873609Y-132082254D02*
X263397419Y-132082254D01*
D13*
X177068580Y-209435266D02*
X177116200Y-209482885D01*
X177116200Y-209482885D02*
X177163819Y-209625742D01*
X177163819Y-209625742D02*
X177163819Y-209720980D01*
X177163819Y-209720980D02*
X177116200Y-209863837D01*
X177116200Y-209863837D02*
X177020961Y-209959075D01*
X177020961Y-209959075D02*
X176925723Y-210006694D01*
X176925723Y-210006694D02*
X176735247Y-210054313D01*
X176735247Y-210054313D02*
X176592390Y-210054313D01*
X176592390Y-210054313D02*
X176401914Y-210006694D01*
X176401914Y-210006694D02*
X176306676Y-209959075D01*
X176306676Y-209959075D02*
X176211438Y-209863837D01*
X176211438Y-209863837D02*
X176163819Y-209720980D01*
X176163819Y-209720980D02*
X176163819Y-209625742D01*
X176163819Y-209625742D02*
X176211438Y-209482885D01*
X176211438Y-209482885D02*
X176259057Y-209435266D01*
X176163819Y-209101932D02*
X176163819Y-208435266D01*
X176163819Y-208435266D02*
X177163819Y-208863837D01*
X171869580Y-204972779D02*
X171917200Y-205020398D01*
X171917200Y-205020398D02*
X171964819Y-205163255D01*
X171964819Y-205163255D02*
X171964819Y-205258493D01*
X171964819Y-205258493D02*
X171917200Y-205401350D01*
X171917200Y-205401350D02*
X171821961Y-205496588D01*
X171821961Y-205496588D02*
X171726723Y-205544207D01*
X171726723Y-205544207D02*
X171536247Y-205591826D01*
X171536247Y-205591826D02*
X171393390Y-205591826D01*
X171393390Y-205591826D02*
X171202914Y-205544207D01*
X171202914Y-205544207D02*
X171107676Y-205496588D01*
X171107676Y-205496588D02*
X171012438Y-205401350D01*
X171012438Y-205401350D02*
X170964819Y-205258493D01*
X170964819Y-205258493D02*
X170964819Y-205163255D01*
X170964819Y-205163255D02*
X171012438Y-205020398D01*
X171012438Y-205020398D02*
X171060057Y-204972779D01*
X170964819Y-204115636D02*
X170964819Y-204306112D01*
X170964819Y-204306112D02*
X171012438Y-204401350D01*
X171012438Y-204401350D02*
X171060057Y-204448969D01*
X171060057Y-204448969D02*
X171202914Y-204544207D01*
X171202914Y-204544207D02*
X171393390Y-204591826D01*
X171393390Y-204591826D02*
X171774342Y-204591826D01*
X171774342Y-204591826D02*
X171869580Y-204544207D01*
X171869580Y-204544207D02*
X171917200Y-204496588D01*
X171917200Y-204496588D02*
X171964819Y-204401350D01*
X171964819Y-204401350D02*
X171964819Y-204210874D01*
X171964819Y-204210874D02*
X171917200Y-204115636D01*
X171917200Y-204115636D02*
X171869580Y-204068017D01*
X171869580Y-204068017D02*
X171774342Y-204020398D01*
X171774342Y-204020398D02*
X171536247Y-204020398D01*
X171536247Y-204020398D02*
X171441009Y-204068017D01*
X171441009Y-204068017D02*
X171393390Y-204115636D01*
X171393390Y-204115636D02*
X171345771Y-204210874D01*
X171345771Y-204210874D02*
X171345771Y-204401350D01*
X171345771Y-204401350D02*
X171393390Y-204496588D01*
X171393390Y-204496588D02*
X171441009Y-204544207D01*
X171441009Y-204544207D02*
X171536247Y-204591826D01*
X211415333Y-95054819D02*
X211082000Y-94578628D01*
X210843905Y-95054819D02*
X210843905Y-94054819D01*
X210843905Y-94054819D02*
X211224857Y-94054819D01*
X211224857Y-94054819D02*
X211320095Y-94102438D01*
X211320095Y-94102438D02*
X211367714Y-94150057D01*
X211367714Y-94150057D02*
X211415333Y-94245295D01*
X211415333Y-94245295D02*
X211415333Y-94388152D01*
X211415333Y-94388152D02*
X211367714Y-94483390D01*
X211367714Y-94483390D02*
X211320095Y-94531009D01*
X211320095Y-94531009D02*
X211224857Y-94578628D01*
X211224857Y-94578628D02*
X210843905Y-94578628D01*
X211796286Y-94150057D02*
X211843905Y-94102438D01*
X211843905Y-94102438D02*
X211939143Y-94054819D01*
X211939143Y-94054819D02*
X212177238Y-94054819D01*
X212177238Y-94054819D02*
X212272476Y-94102438D01*
X212272476Y-94102438D02*
X212320095Y-94150057D01*
X212320095Y-94150057D02*
X212367714Y-94245295D01*
X212367714Y-94245295D02*
X212367714Y-94340533D01*
X212367714Y-94340533D02*
X212320095Y-94483390D01*
X212320095Y-94483390D02*
X211748667Y-95054819D01*
X211748667Y-95054819D02*
X212367714Y-95054819D01*
X151041019Y-162371066D02*
X150564828Y-162704399D01*
X151041019Y-162942494D02*
X150041019Y-162942494D01*
X150041019Y-162942494D02*
X150041019Y-162561542D01*
X150041019Y-162561542D02*
X150088638Y-162466304D01*
X150088638Y-162466304D02*
X150136257Y-162418685D01*
X150136257Y-162418685D02*
X150231495Y-162371066D01*
X150231495Y-162371066D02*
X150374352Y-162371066D01*
X150374352Y-162371066D02*
X150469590Y-162418685D01*
X150469590Y-162418685D02*
X150517209Y-162466304D01*
X150517209Y-162466304D02*
X150564828Y-162561542D01*
X150564828Y-162561542D02*
X150564828Y-162942494D01*
X151041019Y-161418685D02*
X151041019Y-161990113D01*
X151041019Y-161704399D02*
X150041019Y-161704399D01*
X150041019Y-161704399D02*
X150183876Y-161799637D01*
X150183876Y-161799637D02*
X150279114Y-161894875D01*
X150279114Y-161894875D02*
X150326733Y-161990113D01*
X214997819Y-177498333D02*
X215712104Y-177498333D01*
X215712104Y-177498333D02*
X215854961Y-177545952D01*
X215854961Y-177545952D02*
X215950200Y-177641190D01*
X215950200Y-177641190D02*
X215997819Y-177784047D01*
X215997819Y-177784047D02*
X215997819Y-177879285D01*
X215997819Y-176498333D02*
X215997819Y-177069761D01*
X215997819Y-176784047D02*
X214997819Y-176784047D01*
X214997819Y-176784047D02*
X215140676Y-176879285D01*
X215140676Y-176879285D02*
X215235914Y-176974523D01*
X215235914Y-176974523D02*
X215283533Y-177069761D01*
D12*
X155241666Y-139157419D02*
X155241666Y-139871704D01*
X155241666Y-139871704D02*
X155194047Y-140014561D01*
X155194047Y-140014561D02*
X155098809Y-140109800D01*
X155098809Y-140109800D02*
X154955952Y-140157419D01*
X154955952Y-140157419D02*
X154860714Y-140157419D01*
X155670238Y-139252657D02*
X155717857Y-139205038D01*
X155717857Y-139205038D02*
X155813095Y-139157419D01*
X155813095Y-139157419D02*
X156051190Y-139157419D01*
X156051190Y-139157419D02*
X156146428Y-139205038D01*
X156146428Y-139205038D02*
X156194047Y-139252657D01*
X156194047Y-139252657D02*
X156241666Y-139347895D01*
X156241666Y-139347895D02*
X156241666Y-139443133D01*
X156241666Y-139443133D02*
X156194047Y-139585990D01*
X156194047Y-139585990D02*
X155622619Y-140157419D01*
X155622619Y-140157419D02*
X156241666Y-140157419D01*
D13*
X229576333Y-185543580D02*
X229528714Y-185591200D01*
X229528714Y-185591200D02*
X229385857Y-185638819D01*
X229385857Y-185638819D02*
X229290619Y-185638819D01*
X229290619Y-185638819D02*
X229147762Y-185591200D01*
X229147762Y-185591200D02*
X229052524Y-185495961D01*
X229052524Y-185495961D02*
X229004905Y-185400723D01*
X229004905Y-185400723D02*
X228957286Y-185210247D01*
X228957286Y-185210247D02*
X228957286Y-185067390D01*
X228957286Y-185067390D02*
X229004905Y-184876914D01*
X229004905Y-184876914D02*
X229052524Y-184781676D01*
X229052524Y-184781676D02*
X229147762Y-184686438D01*
X229147762Y-184686438D02*
X229290619Y-184638819D01*
X229290619Y-184638819D02*
X229385857Y-184638819D01*
X229385857Y-184638819D02*
X229528714Y-184686438D01*
X229528714Y-184686438D02*
X229576333Y-184734057D01*
X230481095Y-184638819D02*
X230004905Y-184638819D01*
X230004905Y-184638819D02*
X229957286Y-185115009D01*
X229957286Y-185115009D02*
X230004905Y-185067390D01*
X230004905Y-185067390D02*
X230100143Y-185019771D01*
X230100143Y-185019771D02*
X230338238Y-185019771D01*
X230338238Y-185019771D02*
X230433476Y-185067390D01*
X230433476Y-185067390D02*
X230481095Y-185115009D01*
X230481095Y-185115009D02*
X230528714Y-185210247D01*
X230528714Y-185210247D02*
X230528714Y-185448342D01*
X230528714Y-185448342D02*
X230481095Y-185543580D01*
X230481095Y-185543580D02*
X230433476Y-185591200D01*
X230433476Y-185591200D02*
X230338238Y-185638819D01*
X230338238Y-185638819D02*
X230100143Y-185638819D01*
X230100143Y-185638819D02*
X230004905Y-185591200D01*
X230004905Y-185591200D02*
X229957286Y-185543580D01*
X190079333Y-103102580D02*
X190031714Y-103150200D01*
X190031714Y-103150200D02*
X189888857Y-103197819D01*
X189888857Y-103197819D02*
X189793619Y-103197819D01*
X189793619Y-103197819D02*
X189650762Y-103150200D01*
X189650762Y-103150200D02*
X189555524Y-103054961D01*
X189555524Y-103054961D02*
X189507905Y-102959723D01*
X189507905Y-102959723D02*
X189460286Y-102769247D01*
X189460286Y-102769247D02*
X189460286Y-102626390D01*
X189460286Y-102626390D02*
X189507905Y-102435914D01*
X189507905Y-102435914D02*
X189555524Y-102340676D01*
X189555524Y-102340676D02*
X189650762Y-102245438D01*
X189650762Y-102245438D02*
X189793619Y-102197819D01*
X189793619Y-102197819D02*
X189888857Y-102197819D01*
X189888857Y-102197819D02*
X190031714Y-102245438D01*
X190031714Y-102245438D02*
X190079333Y-102293057D01*
X190936476Y-102531152D02*
X190936476Y-103197819D01*
X190698381Y-102150200D02*
X190460286Y-102864485D01*
X190460286Y-102864485D02*
X191079333Y-102864485D01*
X197699333Y-99673580D02*
X197651714Y-99721200D01*
X197651714Y-99721200D02*
X197508857Y-99768819D01*
X197508857Y-99768819D02*
X197413619Y-99768819D01*
X197413619Y-99768819D02*
X197270762Y-99721200D01*
X197270762Y-99721200D02*
X197175524Y-99625961D01*
X197175524Y-99625961D02*
X197127905Y-99530723D01*
X197127905Y-99530723D02*
X197080286Y-99340247D01*
X197080286Y-99340247D02*
X197080286Y-99197390D01*
X197080286Y-99197390D02*
X197127905Y-99006914D01*
X197127905Y-99006914D02*
X197175524Y-98911676D01*
X197175524Y-98911676D02*
X197270762Y-98816438D01*
X197270762Y-98816438D02*
X197413619Y-98768819D01*
X197413619Y-98768819D02*
X197508857Y-98768819D01*
X197508857Y-98768819D02*
X197651714Y-98816438D01*
X197651714Y-98816438D02*
X197699333Y-98864057D01*
X198032667Y-98768819D02*
X198651714Y-98768819D01*
X198651714Y-98768819D02*
X198318381Y-99149771D01*
X198318381Y-99149771D02*
X198461238Y-99149771D01*
X198461238Y-99149771D02*
X198556476Y-99197390D01*
X198556476Y-99197390D02*
X198604095Y-99245009D01*
X198604095Y-99245009D02*
X198651714Y-99340247D01*
X198651714Y-99340247D02*
X198651714Y-99578342D01*
X198651714Y-99578342D02*
X198604095Y-99673580D01*
X198604095Y-99673580D02*
X198556476Y-99721200D01*
X198556476Y-99721200D02*
X198461238Y-99768819D01*
X198461238Y-99768819D02*
X198175524Y-99768819D01*
X198175524Y-99768819D02*
X198080286Y-99721200D01*
X198080286Y-99721200D02*
X198032667Y-99673580D01*
X182395580Y-206466666D02*
X182443200Y-206514285D01*
X182443200Y-206514285D02*
X182490819Y-206657142D01*
X182490819Y-206657142D02*
X182490819Y-206752380D01*
X182490819Y-206752380D02*
X182443200Y-206895237D01*
X182443200Y-206895237D02*
X182347961Y-206990475D01*
X182347961Y-206990475D02*
X182252723Y-207038094D01*
X182252723Y-207038094D02*
X182062247Y-207085713D01*
X182062247Y-207085713D02*
X181919390Y-207085713D01*
X181919390Y-207085713D02*
X181728914Y-207038094D01*
X181728914Y-207038094D02*
X181633676Y-206990475D01*
X181633676Y-206990475D02*
X181538438Y-206895237D01*
X181538438Y-206895237D02*
X181490819Y-206752380D01*
X181490819Y-206752380D02*
X181490819Y-206657142D01*
X181490819Y-206657142D02*
X181538438Y-206514285D01*
X181538438Y-206514285D02*
X181586057Y-206466666D01*
X182490819Y-205514285D02*
X182490819Y-206085713D01*
X182490819Y-205799999D02*
X181490819Y-205799999D01*
X181490819Y-205799999D02*
X181633676Y-205895237D01*
X181633676Y-205895237D02*
X181728914Y-205990475D01*
X181728914Y-205990475D02*
X181776533Y-206085713D01*
D12*
X181403666Y-84039419D02*
X181403666Y-84753704D01*
X181403666Y-84753704D02*
X181356047Y-84896561D01*
X181356047Y-84896561D02*
X181260809Y-84991800D01*
X181260809Y-84991800D02*
X181117952Y-85039419D01*
X181117952Y-85039419D02*
X181022714Y-85039419D01*
X182356047Y-84039419D02*
X181879857Y-84039419D01*
X181879857Y-84039419D02*
X181832238Y-84515609D01*
X181832238Y-84515609D02*
X181879857Y-84467990D01*
X181879857Y-84467990D02*
X181975095Y-84420371D01*
X181975095Y-84420371D02*
X182213190Y-84420371D01*
X182213190Y-84420371D02*
X182308428Y-84467990D01*
X182308428Y-84467990D02*
X182356047Y-84515609D01*
X182356047Y-84515609D02*
X182403666Y-84610847D01*
X182403666Y-84610847D02*
X182403666Y-84848942D01*
X182403666Y-84848942D02*
X182356047Y-84944180D01*
X182356047Y-84944180D02*
X182308428Y-84991800D01*
X182308428Y-84991800D02*
X182213190Y-85039419D01*
X182213190Y-85039419D02*
X181975095Y-85039419D01*
X181975095Y-85039419D02*
X181879857Y-84991800D01*
X181879857Y-84991800D02*
X181832238Y-84944180D01*
D13*
X199818666Y-189794819D02*
X199818666Y-190509104D01*
X199818666Y-190509104D02*
X199771047Y-190651961D01*
X199771047Y-190651961D02*
X199675809Y-190747200D01*
X199675809Y-190747200D02*
X199532952Y-190794819D01*
X199532952Y-190794819D02*
X199437714Y-190794819D01*
X200723428Y-190128152D02*
X200723428Y-190794819D01*
X200485333Y-189747200D02*
X200247238Y-190461485D01*
X200247238Y-190461485D02*
X200866285Y-190461485D01*
X176871333Y-161504580D02*
X176823714Y-161552200D01*
X176823714Y-161552200D02*
X176680857Y-161599819D01*
X176680857Y-161599819D02*
X176585619Y-161599819D01*
X176585619Y-161599819D02*
X176442762Y-161552200D01*
X176442762Y-161552200D02*
X176347524Y-161456961D01*
X176347524Y-161456961D02*
X176299905Y-161361723D01*
X176299905Y-161361723D02*
X176252286Y-161171247D01*
X176252286Y-161171247D02*
X176252286Y-161028390D01*
X176252286Y-161028390D02*
X176299905Y-160837914D01*
X176299905Y-160837914D02*
X176347524Y-160742676D01*
X176347524Y-160742676D02*
X176442762Y-160647438D01*
X176442762Y-160647438D02*
X176585619Y-160599819D01*
X176585619Y-160599819D02*
X176680857Y-160599819D01*
X176680857Y-160599819D02*
X176823714Y-160647438D01*
X176823714Y-160647438D02*
X176871333Y-160695057D01*
X177252286Y-160695057D02*
X177299905Y-160647438D01*
X177299905Y-160647438D02*
X177395143Y-160599819D01*
X177395143Y-160599819D02*
X177633238Y-160599819D01*
X177633238Y-160599819D02*
X177728476Y-160647438D01*
X177728476Y-160647438D02*
X177776095Y-160695057D01*
X177776095Y-160695057D02*
X177823714Y-160790295D01*
X177823714Y-160790295D02*
X177823714Y-160885533D01*
X177823714Y-160885533D02*
X177776095Y-161028390D01*
X177776095Y-161028390D02*
X177204667Y-161599819D01*
X177204667Y-161599819D02*
X177823714Y-161599819D01*
D12*
X211661333Y-214918580D02*
X211661333Y-214204295D01*
X211661333Y-214204295D02*
X211708952Y-214061438D01*
X211708952Y-214061438D02*
X211804190Y-213966200D01*
X211804190Y-213966200D02*
X211947047Y-213918580D01*
X211947047Y-213918580D02*
X212042285Y-213918580D01*
X211280380Y-214918580D02*
X210661333Y-214918580D01*
X210661333Y-214918580D02*
X210994666Y-214537628D01*
X210994666Y-214537628D02*
X210851809Y-214537628D01*
X210851809Y-214537628D02*
X210756571Y-214490009D01*
X210756571Y-214490009D02*
X210708952Y-214442390D01*
X210708952Y-214442390D02*
X210661333Y-214347152D01*
X210661333Y-214347152D02*
X210661333Y-214109057D01*
X210661333Y-214109057D02*
X210708952Y-214013819D01*
X210708952Y-214013819D02*
X210756571Y-213966200D01*
X210756571Y-213966200D02*
X210851809Y-213918580D01*
X210851809Y-213918580D02*
X211137523Y-213918580D01*
X211137523Y-213918580D02*
X211232761Y-213966200D01*
X211232761Y-213966200D02*
X211280380Y-214013819D01*
D10*
X204305489Y-199708600D02*
X203162632Y-199708600D01*
X201948346Y-199922885D02*
X201734060Y-199851457D01*
X201734060Y-199851457D02*
X201662631Y-199780028D01*
X201662631Y-199780028D02*
X201591203Y-199637171D01*
X201591203Y-199637171D02*
X201591203Y-199422885D01*
X201591203Y-199422885D02*
X201662631Y-199280028D01*
X201662631Y-199280028D02*
X201734060Y-199208600D01*
X201734060Y-199208600D02*
X201876917Y-199137171D01*
X201876917Y-199137171D02*
X202448346Y-199137171D01*
X202448346Y-199137171D02*
X202448346Y-200637171D01*
X202448346Y-200637171D02*
X201948346Y-200637171D01*
X201948346Y-200637171D02*
X201805489Y-200565742D01*
X201805489Y-200565742D02*
X201734060Y-200494314D01*
X201734060Y-200494314D02*
X201662631Y-200351457D01*
X201662631Y-200351457D02*
X201662631Y-200208600D01*
X201662631Y-200208600D02*
X201734060Y-200065742D01*
X201734060Y-200065742D02*
X201805489Y-199994314D01*
X201805489Y-199994314D02*
X201948346Y-199922885D01*
X201948346Y-199922885D02*
X202448346Y-199922885D01*
X198305489Y-199708600D02*
X197162632Y-199708600D01*
X197734060Y-199137171D02*
X197734060Y-200280028D01*
X195948346Y-199922885D02*
X195734060Y-199851457D01*
X195734060Y-199851457D02*
X195662631Y-199780028D01*
X195662631Y-199780028D02*
X195591203Y-199637171D01*
X195591203Y-199637171D02*
X195591203Y-199422885D01*
X195591203Y-199422885D02*
X195662631Y-199280028D01*
X195662631Y-199280028D02*
X195734060Y-199208600D01*
X195734060Y-199208600D02*
X195876917Y-199137171D01*
X195876917Y-199137171D02*
X196448346Y-199137171D01*
X196448346Y-199137171D02*
X196448346Y-200637171D01*
X196448346Y-200637171D02*
X195948346Y-200637171D01*
X195948346Y-200637171D02*
X195805489Y-200565742D01*
X195805489Y-200565742D02*
X195734060Y-200494314D01*
X195734060Y-200494314D02*
X195662631Y-200351457D01*
X195662631Y-200351457D02*
X195662631Y-200208600D01*
X195662631Y-200208600D02*
X195734060Y-200065742D01*
X195734060Y-200065742D02*
X195805489Y-199994314D01*
X195805489Y-199994314D02*
X195948346Y-199922885D01*
X195948346Y-199922885D02*
X196448346Y-199922885D01*
X197305489Y-211208600D02*
X196162632Y-211208600D01*
X196734060Y-210637171D02*
X196734060Y-211780028D01*
X194734060Y-212137171D02*
X195448346Y-212137171D01*
X195448346Y-212137171D02*
X195519774Y-211422885D01*
X195519774Y-211422885D02*
X195448346Y-211494314D01*
X195448346Y-211494314D02*
X195305489Y-211565742D01*
X195305489Y-211565742D02*
X194948346Y-211565742D01*
X194948346Y-211565742D02*
X194805489Y-211494314D01*
X194805489Y-211494314D02*
X194734060Y-211422885D01*
X194734060Y-211422885D02*
X194662631Y-211280028D01*
X194662631Y-211280028D02*
X194662631Y-210922885D01*
X194662631Y-210922885D02*
X194734060Y-210780028D01*
X194734060Y-210780028D02*
X194805489Y-210708600D01*
X194805489Y-210708600D02*
X194948346Y-210637171D01*
X194948346Y-210637171D02*
X195305489Y-210637171D01*
X195305489Y-210637171D02*
X195448346Y-210708600D01*
X195448346Y-210708600D02*
X195519774Y-210780028D01*
X194234060Y-212137171D02*
X193734060Y-210637171D01*
X193734060Y-210637171D02*
X193234060Y-212137171D01*
X217305489Y-201637171D02*
X217305489Y-203137171D01*
X217305489Y-203137171D02*
X216948346Y-203137171D01*
X216948346Y-203137171D02*
X216734060Y-203065742D01*
X216734060Y-203065742D02*
X216591203Y-202922885D01*
X216591203Y-202922885D02*
X216519774Y-202780028D01*
X216519774Y-202780028D02*
X216448346Y-202494314D01*
X216448346Y-202494314D02*
X216448346Y-202280028D01*
X216448346Y-202280028D02*
X216519774Y-201994314D01*
X216519774Y-201994314D02*
X216591203Y-201851457D01*
X216591203Y-201851457D02*
X216734060Y-201708600D01*
X216734060Y-201708600D02*
X216948346Y-201637171D01*
X216948346Y-201637171D02*
X217305489Y-201637171D01*
X215876917Y-202994314D02*
X215805489Y-203065742D01*
X215805489Y-203065742D02*
X215662632Y-203137171D01*
X215662632Y-203137171D02*
X215305489Y-203137171D01*
X215305489Y-203137171D02*
X215162632Y-203065742D01*
X215162632Y-203065742D02*
X215091203Y-202994314D01*
X215091203Y-202994314D02*
X215019774Y-202851457D01*
X215019774Y-202851457D02*
X215019774Y-202708600D01*
X215019774Y-202708600D02*
X215091203Y-202494314D01*
X215091203Y-202494314D02*
X215948346Y-201637171D01*
X215948346Y-201637171D02*
X215019774Y-201637171D01*
X217305489Y-204137171D02*
X217305489Y-205637171D01*
X217305489Y-205637171D02*
X216948346Y-205637171D01*
X216948346Y-205637171D02*
X216734060Y-205565742D01*
X216734060Y-205565742D02*
X216591203Y-205422885D01*
X216591203Y-205422885D02*
X216519774Y-205280028D01*
X216519774Y-205280028D02*
X216448346Y-204994314D01*
X216448346Y-204994314D02*
X216448346Y-204780028D01*
X216448346Y-204780028D02*
X216519774Y-204494314D01*
X216519774Y-204494314D02*
X216591203Y-204351457D01*
X216591203Y-204351457D02*
X216734060Y-204208600D01*
X216734060Y-204208600D02*
X216948346Y-204137171D01*
X216948346Y-204137171D02*
X217305489Y-204137171D01*
X215948346Y-205637171D02*
X215019774Y-205637171D01*
X215019774Y-205637171D02*
X215519774Y-205065742D01*
X215519774Y-205065742D02*
X215305489Y-205065742D01*
X215305489Y-205065742D02*
X215162632Y-204994314D01*
X215162632Y-204994314D02*
X215091203Y-204922885D01*
X215091203Y-204922885D02*
X215019774Y-204780028D01*
X215019774Y-204780028D02*
X215019774Y-204422885D01*
X215019774Y-204422885D02*
X215091203Y-204280028D01*
X215091203Y-204280028D02*
X215162632Y-204208600D01*
X215162632Y-204208600D02*
X215305489Y-204137171D01*
X215305489Y-204137171D02*
X215734060Y-204137171D01*
X215734060Y-204137171D02*
X215876917Y-204208600D01*
X215876917Y-204208600D02*
X215948346Y-204280028D01*
X196519774Y-217565742D02*
X196662632Y-217637171D01*
X196662632Y-217637171D02*
X196876917Y-217637171D01*
X196876917Y-217637171D02*
X197091203Y-217565742D01*
X197091203Y-217565742D02*
X197234060Y-217422885D01*
X197234060Y-217422885D02*
X197305489Y-217280028D01*
X197305489Y-217280028D02*
X197376917Y-216994314D01*
X197376917Y-216994314D02*
X197376917Y-216780028D01*
X197376917Y-216780028D02*
X197305489Y-216494314D01*
X197305489Y-216494314D02*
X197234060Y-216351457D01*
X197234060Y-216351457D02*
X197091203Y-216208600D01*
X197091203Y-216208600D02*
X196876917Y-216137171D01*
X196876917Y-216137171D02*
X196734060Y-216137171D01*
X196734060Y-216137171D02*
X196519774Y-216208600D01*
X196519774Y-216208600D02*
X196448346Y-216280028D01*
X196448346Y-216280028D02*
X196448346Y-216780028D01*
X196448346Y-216780028D02*
X196734060Y-216780028D01*
X195805489Y-216137171D02*
X195805489Y-217637171D01*
X195805489Y-217637171D02*
X194948346Y-216137171D01*
X194948346Y-216137171D02*
X194948346Y-217637171D01*
X194234060Y-216137171D02*
X194234060Y-217637171D01*
X194234060Y-217637171D02*
X193876917Y-217637171D01*
X193876917Y-217637171D02*
X193662631Y-217565742D01*
X193662631Y-217565742D02*
X193519774Y-217422885D01*
X193519774Y-217422885D02*
X193448345Y-217280028D01*
X193448345Y-217280028D02*
X193376917Y-216994314D01*
X193376917Y-216994314D02*
X193376917Y-216780028D01*
X193376917Y-216780028D02*
X193448345Y-216494314D01*
X193448345Y-216494314D02*
X193519774Y-216351457D01*
X193519774Y-216351457D02*
X193662631Y-216208600D01*
X193662631Y-216208600D02*
X193876917Y-216137171D01*
X193876917Y-216137171D02*
X194234060Y-216137171D01*
X217305489Y-199137171D02*
X217305489Y-200637171D01*
X217305489Y-200637171D02*
X216948346Y-200637171D01*
X216948346Y-200637171D02*
X216734060Y-200565742D01*
X216734060Y-200565742D02*
X216591203Y-200422885D01*
X216591203Y-200422885D02*
X216519774Y-200280028D01*
X216519774Y-200280028D02*
X216448346Y-199994314D01*
X216448346Y-199994314D02*
X216448346Y-199780028D01*
X216448346Y-199780028D02*
X216519774Y-199494314D01*
X216519774Y-199494314D02*
X216591203Y-199351457D01*
X216591203Y-199351457D02*
X216734060Y-199208600D01*
X216734060Y-199208600D02*
X216948346Y-199137171D01*
X216948346Y-199137171D02*
X217305489Y-199137171D01*
X215019774Y-199137171D02*
X215876917Y-199137171D01*
X215448346Y-199137171D02*
X215448346Y-200637171D01*
X215448346Y-200637171D02*
X215591203Y-200422885D01*
X215591203Y-200422885D02*
X215734060Y-200280028D01*
X215734060Y-200280028D02*
X215876917Y-200208600D01*
D13*
X164273095Y-142042819D02*
X164273095Y-142852342D01*
X164273095Y-142852342D02*
X164320714Y-142947580D01*
X164320714Y-142947580D02*
X164368333Y-142995200D01*
X164368333Y-142995200D02*
X164463571Y-143042819D01*
X164463571Y-143042819D02*
X164654047Y-143042819D01*
X164654047Y-143042819D02*
X164749285Y-142995200D01*
X164749285Y-142995200D02*
X164796904Y-142947580D01*
X164796904Y-142947580D02*
X164844523Y-142852342D01*
X164844523Y-142852342D02*
X164844523Y-142042819D01*
X165273095Y-142138057D02*
X165320714Y-142090438D01*
X165320714Y-142090438D02*
X165415952Y-142042819D01*
X165415952Y-142042819D02*
X165654047Y-142042819D01*
X165654047Y-142042819D02*
X165749285Y-142090438D01*
X165749285Y-142090438D02*
X165796904Y-142138057D01*
X165796904Y-142138057D02*
X165844523Y-142233295D01*
X165844523Y-142233295D02*
X165844523Y-142328533D01*
X165844523Y-142328533D02*
X165796904Y-142471390D01*
X165796904Y-142471390D02*
X165225476Y-143042819D01*
X165225476Y-143042819D02*
X165844523Y-143042819D01*
D14*
%TO.C,C7*%
X178764000Y-211538401D02*
X178764000Y-211138401D01*
X178564000Y-211338401D02*
X178964000Y-211338401D01*
X177879000Y-209268600D02*
X182039000Y-209268600D01*
X177879000Y-209228600D02*
X182039000Y-209228600D01*
X177881000Y-209188600D02*
X182037000Y-209188600D01*
X177882000Y-209148600D02*
X182036000Y-209148600D01*
X177885000Y-209108600D02*
X182033000Y-209108600D01*
X177888000Y-209068600D02*
X179119000Y-209068600D01*
X180799000Y-209068600D02*
X182030000Y-209068600D01*
X177893000Y-209028600D02*
X179119000Y-209028600D01*
X180799000Y-209028600D02*
X182025000Y-209028600D01*
X177898000Y-208988600D02*
X179119000Y-208988600D01*
X180799000Y-208988600D02*
X182020000Y-208988600D01*
X177903000Y-208948600D02*
X179119000Y-208948600D01*
X180799000Y-208948600D02*
X182015000Y-208948600D01*
X177910000Y-208908600D02*
X179119000Y-208908600D01*
X180799000Y-208908600D02*
X182008000Y-208908600D01*
X177917000Y-208868600D02*
X179119000Y-208868600D01*
X180799000Y-208868600D02*
X182001000Y-208868600D01*
X177925000Y-208828600D02*
X179119000Y-208828600D01*
X180799000Y-208828600D02*
X181993000Y-208828600D01*
X177934000Y-208788600D02*
X179119000Y-208788600D01*
X180799000Y-208788600D02*
X181984000Y-208788600D01*
X177944000Y-208748600D02*
X179119000Y-208748600D01*
X180799000Y-208748600D02*
X181974000Y-208748600D01*
X177954000Y-208708600D02*
X179119000Y-208708600D01*
X180799000Y-208708600D02*
X181964000Y-208708600D01*
X177966000Y-208668600D02*
X179119000Y-208668600D01*
X180799000Y-208668600D02*
X181952000Y-208668600D01*
X177978000Y-208628600D02*
X179119000Y-208628600D01*
X180799000Y-208628600D02*
X181940000Y-208628600D01*
X177991000Y-208588600D02*
X179119000Y-208588600D01*
X180799000Y-208588600D02*
X181927000Y-208588600D01*
X178005000Y-208548600D02*
X179119000Y-208548600D01*
X180799000Y-208548600D02*
X181913000Y-208548600D01*
X178020000Y-208508600D02*
X179119000Y-208508600D01*
X180799000Y-208508600D02*
X181898000Y-208508600D01*
X178036000Y-208468600D02*
X179119000Y-208468600D01*
X180799000Y-208468600D02*
X181882000Y-208468600D01*
X178053000Y-208428600D02*
X179119000Y-208428600D01*
X180799000Y-208428600D02*
X181865000Y-208428600D01*
X178070000Y-208388600D02*
X179119000Y-208388600D01*
X180799000Y-208388600D02*
X181848000Y-208388600D01*
X178089000Y-208348600D02*
X179119000Y-208348600D01*
X180799000Y-208348600D02*
X181829000Y-208348600D01*
X178109000Y-208308600D02*
X179119000Y-208308600D01*
X180799000Y-208308600D02*
X181809000Y-208308600D01*
X178130000Y-208268600D02*
X179119000Y-208268600D01*
X180799000Y-208268600D02*
X181788000Y-208268600D01*
X178152000Y-208228600D02*
X179119000Y-208228600D01*
X180799000Y-208228600D02*
X181766000Y-208228600D01*
X178175000Y-208188600D02*
X179119000Y-208188600D01*
X180799000Y-208188600D02*
X181743000Y-208188600D01*
X178199000Y-208148600D02*
X179119000Y-208148600D01*
X180799000Y-208148600D02*
X181719000Y-208148600D01*
X178225000Y-208108600D02*
X179119000Y-208108600D01*
X180799000Y-208108600D02*
X181693000Y-208108600D01*
X178251000Y-208068600D02*
X179119000Y-208068600D01*
X180799000Y-208068600D02*
X181667000Y-208068600D01*
X178279000Y-208028600D02*
X179119000Y-208028600D01*
X180799000Y-208028600D02*
X181639000Y-208028600D01*
X178309000Y-207988600D02*
X179119000Y-207988600D01*
X180799000Y-207988600D02*
X181609000Y-207988600D01*
X178340000Y-207948600D02*
X179119000Y-207948600D01*
X180799000Y-207948600D02*
X181578000Y-207948600D01*
X178373000Y-207908600D02*
X179119000Y-207908600D01*
X180799000Y-207908600D02*
X181545000Y-207908600D01*
X178407000Y-207868600D02*
X179119000Y-207868600D01*
X180799000Y-207868600D02*
X181511000Y-207868600D01*
X178443000Y-207828600D02*
X179119000Y-207828600D01*
X180799000Y-207828600D02*
X181475000Y-207828600D01*
X178481000Y-207788600D02*
X179119000Y-207788600D01*
X180799000Y-207788600D02*
X181437000Y-207788600D01*
X178521000Y-207748600D02*
X179119000Y-207748600D01*
X180799000Y-207748600D02*
X181397000Y-207748600D01*
X178563000Y-207708600D02*
X179119000Y-207708600D01*
X180799000Y-207708600D02*
X181355000Y-207708600D01*
X178608000Y-207668600D02*
X179119000Y-207668600D01*
X180799000Y-207668600D02*
X181310000Y-207668600D01*
X178656000Y-207628600D02*
X179119000Y-207628600D01*
X180799000Y-207628600D02*
X181262000Y-207628600D01*
X178706000Y-207588600D02*
X179119000Y-207588600D01*
X180799000Y-207588600D02*
X181212000Y-207588600D01*
X178760000Y-207548600D02*
X179119000Y-207548600D01*
X180799000Y-207548600D02*
X181158000Y-207548600D01*
X178817000Y-207508600D02*
X179119000Y-207508600D01*
X180799000Y-207508600D02*
X181101000Y-207508600D01*
X178879000Y-207468600D02*
X179119000Y-207468600D01*
X180799000Y-207468600D02*
X181039000Y-207468600D01*
X178946000Y-207428600D02*
X180972000Y-207428600D01*
X179019000Y-207388600D02*
X180899000Y-207388600D01*
X179100000Y-207348600D02*
X180818000Y-207348600D01*
X179191000Y-207308600D02*
X180727000Y-207308600D01*
X179296000Y-207268600D02*
X180622000Y-207268600D01*
X179422000Y-207228600D02*
X180496000Y-207228600D01*
X179589000Y-207188600D02*
X180329000Y-207188600D01*
X182079000Y-209268600D02*
G75*
G02*
X177839000Y-209268600I-2120000J0D01*
G01*
X177839000Y-209268600D02*
G75*
G02*
X182079000Y-209268600I2120000J0D01*
G01*
%TO.C,C6*%
X173785000Y-207610888D02*
X173785000Y-207110888D01*
X173535000Y-207360888D02*
X174035000Y-207360888D01*
X172680000Y-204806113D02*
X177840000Y-204806113D01*
X172680000Y-204766113D02*
X177840000Y-204766113D01*
X172681000Y-204726113D02*
X177839000Y-204726113D01*
X172683000Y-204686113D02*
X177837000Y-204686113D01*
X172685000Y-204646113D02*
X177835000Y-204646113D01*
X172688000Y-204606113D02*
X177832000Y-204606113D01*
X172691000Y-204566113D02*
X174220000Y-204566113D01*
X176300000Y-204566113D02*
X177829000Y-204566113D01*
X172695000Y-204526113D02*
X174220000Y-204526113D01*
X176300000Y-204526113D02*
X177825000Y-204526113D01*
X172700000Y-204486113D02*
X174220000Y-204486113D01*
X176300000Y-204486113D02*
X177820000Y-204486113D01*
X172705000Y-204446113D02*
X174220000Y-204446113D01*
X176300000Y-204446113D02*
X177815000Y-204446113D01*
X172711000Y-204406113D02*
X174220000Y-204406113D01*
X176300000Y-204406113D02*
X177809000Y-204406113D01*
X172717000Y-204366113D02*
X174220000Y-204366113D01*
X176300000Y-204366113D02*
X177803000Y-204366113D01*
X172724000Y-204326113D02*
X174220000Y-204326113D01*
X176300000Y-204326113D02*
X177796000Y-204326113D01*
X172732000Y-204286113D02*
X174220000Y-204286113D01*
X176300000Y-204286113D02*
X177788000Y-204286113D01*
X172741000Y-204246113D02*
X174220000Y-204246113D01*
X176300000Y-204246113D02*
X177779000Y-204246113D01*
X172750000Y-204206113D02*
X174220000Y-204206113D01*
X176300000Y-204206113D02*
X177770000Y-204206113D01*
X172759000Y-204166113D02*
X174220000Y-204166113D01*
X176300000Y-204166113D02*
X177761000Y-204166113D01*
X172770000Y-204126113D02*
X174220000Y-204126113D01*
X176300000Y-204126113D02*
X177750000Y-204126113D01*
X172781000Y-204086113D02*
X174220000Y-204086113D01*
X176300000Y-204086113D02*
X177739000Y-204086113D01*
X172793000Y-204046113D02*
X174220000Y-204046113D01*
X176300000Y-204046113D02*
X177727000Y-204046113D01*
X172805000Y-204006113D02*
X174220000Y-204006113D01*
X176300000Y-204006113D02*
X177715000Y-204006113D01*
X172818000Y-203966113D02*
X174220000Y-203966113D01*
X176300000Y-203966113D02*
X177702000Y-203966113D01*
X172832000Y-203926113D02*
X174220000Y-203926113D01*
X176300000Y-203926113D02*
X177688000Y-203926113D01*
X172847000Y-203886113D02*
X174220000Y-203886113D01*
X176300000Y-203886113D02*
X177673000Y-203886113D01*
X172862000Y-203846113D02*
X174220000Y-203846113D01*
X176300000Y-203846113D02*
X177658000Y-203846113D01*
X172878000Y-203806113D02*
X174220000Y-203806113D01*
X176300000Y-203806113D02*
X177642000Y-203806113D01*
X172895000Y-203766113D02*
X174220000Y-203766113D01*
X176300000Y-203766113D02*
X177625000Y-203766113D01*
X172913000Y-203726113D02*
X174220000Y-203726113D01*
X176300000Y-203726113D02*
X177607000Y-203726113D01*
X172931000Y-203686113D02*
X174220000Y-203686113D01*
X176300000Y-203686113D02*
X177589000Y-203686113D01*
X172951000Y-203646113D02*
X174220000Y-203646113D01*
X176300000Y-203646113D02*
X177569000Y-203646113D01*
X172971000Y-203606113D02*
X174220000Y-203606113D01*
X176300000Y-203606113D02*
X177549000Y-203606113D01*
X172992000Y-203566113D02*
X174220000Y-203566113D01*
X176300000Y-203566113D02*
X177528000Y-203566113D01*
X173014000Y-203526113D02*
X174220000Y-203526113D01*
X176300000Y-203526113D02*
X177506000Y-203526113D01*
X173037000Y-203486113D02*
X174220000Y-203486113D01*
X176300000Y-203486113D02*
X177483000Y-203486113D01*
X173061000Y-203446113D02*
X174220000Y-203446113D01*
X176300000Y-203446113D02*
X177459000Y-203446113D01*
X173085000Y-203406113D02*
X174220000Y-203406113D01*
X176300000Y-203406113D02*
X177435000Y-203406113D01*
X173111000Y-203366113D02*
X174220000Y-203366113D01*
X176300000Y-203366113D02*
X177409000Y-203366113D01*
X173138000Y-203326113D02*
X174220000Y-203326113D01*
X176300000Y-203326113D02*
X177382000Y-203326113D01*
X173166000Y-203286113D02*
X174220000Y-203286113D01*
X176300000Y-203286113D02*
X177354000Y-203286113D01*
X173195000Y-203246113D02*
X174220000Y-203246113D01*
X176300000Y-203246113D02*
X177325000Y-203246113D01*
X173225000Y-203206113D02*
X174220000Y-203206113D01*
X176300000Y-203206113D02*
X177295000Y-203206113D01*
X173257000Y-203166113D02*
X174220000Y-203166113D01*
X176300000Y-203166113D02*
X177263000Y-203166113D01*
X173290000Y-203126113D02*
X174220000Y-203126113D01*
X176300000Y-203126113D02*
X177230000Y-203126113D01*
X173324000Y-203086113D02*
X174220000Y-203086113D01*
X176300000Y-203086113D02*
X177196000Y-203086113D01*
X173359000Y-203046113D02*
X174220000Y-203046113D01*
X176300000Y-203046113D02*
X177161000Y-203046113D01*
X173396000Y-203006113D02*
X174220000Y-203006113D01*
X176300000Y-203006113D02*
X177124000Y-203006113D01*
X173435000Y-202966113D02*
X174220000Y-202966113D01*
X176300000Y-202966113D02*
X177085000Y-202966113D01*
X173475000Y-202926113D02*
X174220000Y-202926113D01*
X176300000Y-202926113D02*
X177045000Y-202926113D01*
X173517000Y-202886113D02*
X174220000Y-202886113D01*
X176300000Y-202886113D02*
X177003000Y-202886113D01*
X173561000Y-202846113D02*
X174220000Y-202846113D01*
X176300000Y-202846113D02*
X176959000Y-202846113D01*
X173608000Y-202806113D02*
X174220000Y-202806113D01*
X176300000Y-202806113D02*
X176912000Y-202806113D01*
X173656000Y-202766113D02*
X174220000Y-202766113D01*
X176300000Y-202766113D02*
X176864000Y-202766113D01*
X173707000Y-202726113D02*
X174220000Y-202726113D01*
X176300000Y-202726113D02*
X176813000Y-202726113D01*
X173761000Y-202686113D02*
X174220000Y-202686113D01*
X176300000Y-202686113D02*
X176759000Y-202686113D01*
X173817000Y-202646113D02*
X174220000Y-202646113D01*
X176300000Y-202646113D02*
X176703000Y-202646113D01*
X173877000Y-202606113D02*
X174220000Y-202606113D01*
X176300000Y-202606113D02*
X176643000Y-202606113D01*
X173941000Y-202566113D02*
X174220000Y-202566113D01*
X176300000Y-202566113D02*
X176579000Y-202566113D01*
X174009000Y-202526113D02*
X174220000Y-202526113D01*
X176300000Y-202526113D02*
X176511000Y-202526113D01*
X174083000Y-202486113D02*
X176437000Y-202486113D01*
X174162000Y-202446113D02*
X176358000Y-202446113D01*
X174249000Y-202406113D02*
X176271000Y-202406113D01*
X174346000Y-202366113D02*
X176174000Y-202366113D01*
X174455000Y-202326113D02*
X176065000Y-202326113D01*
X174583000Y-202286113D02*
X175937000Y-202286113D01*
X174743000Y-202246113D02*
X175777000Y-202246113D01*
X174977000Y-202206113D02*
X175543000Y-202206113D01*
X177880000Y-204806113D02*
G75*
G02*
X172640000Y-204806113I-2620000J0D01*
G01*
X172640000Y-204806113D02*
G75*
G02*
X177880000Y-204806113I2620000J0D01*
G01*
%TO.C,R2*%
X208712000Y-96520000D02*
X209662000Y-96520000D01*
X214452000Y-96520000D02*
X213502000Y-96520000D01*
X209662000Y-95600000D02*
X213502000Y-95600000D01*
X213502000Y-97440000D01*
X209662000Y-97440000D01*
X209662000Y-95600000D01*
%TO.C,R1*%
X148666200Y-159334400D02*
X148666200Y-160284400D01*
X148666200Y-165074400D02*
X148666200Y-164124400D01*
X149586200Y-160284400D02*
X147746200Y-160284400D01*
X147746200Y-164124400D01*
X149586200Y-164124400D01*
X149586200Y-160284400D01*
%TO.C,J1*%
X216983000Y-175835000D02*
X218313000Y-175835000D01*
X216983000Y-177165000D02*
X216983000Y-175835000D01*
X219583000Y-175835000D02*
X232343000Y-175835000D01*
X219583000Y-178495000D02*
X219583000Y-175835000D01*
X219583000Y-178495000D02*
X232343000Y-178495000D01*
X232343000Y-178495000D02*
X232343000Y-175835000D01*
D12*
X212813000Y-130995000D02*
X244563000Y-130995000D01*
X244563000Y-178495000D01*
X212813000Y-178495000D01*
X212813000Y-130995000D01*
%TO.C,J2*%
X156057000Y-140608000D02*
X172657000Y-140608000D01*
X172657000Y-178108000D01*
X156057000Y-178108000D01*
X156057000Y-140608000D01*
D14*
%TO.C,C5*%
X230508000Y-184054000D02*
X228978000Y-184054000D01*
X228978000Y-182214000D02*
X230508000Y-182214000D01*
%TO.C,C4*%
X193311000Y-101950000D02*
X194841000Y-101950000D01*
X194841000Y-103790000D02*
X193311000Y-103790000D01*
%TO.C,C3*%
X194841000Y-100234000D02*
X193311000Y-100234000D01*
X193311000Y-98394000D02*
X194841000Y-98394000D01*
%TO.C,C1*%
X183738000Y-209807000D02*
X183738000Y-208277000D01*
X185578000Y-208277000D02*
X185578000Y-209807000D01*
%TO.C,J5*%
D12*
X184658000Y-85267800D02*
X214658000Y-85267800D01*
X214658000Y-92727800D01*
X184658000Y-92727800D01*
X184658000Y-85267800D01*
D14*
%TO.C,J4*%
X201532000Y-189340000D02*
X200152000Y-189340000D01*
X201532000Y-187960000D02*
X201532000Y-189340000D01*
X201532000Y-186690000D02*
X201532000Y-184040000D01*
X201532000Y-186690000D02*
X198772000Y-186690000D01*
X201532000Y-184040000D02*
X198772000Y-184040000D01*
X198772000Y-186690000D02*
X198772000Y-184040000D01*
%TO.C,C2*%
X176273000Y-162275000D02*
X177803000Y-162275000D01*
X177803000Y-164115000D02*
X176273000Y-164115000D01*
%TO.C,J3*%
D12*
X209860000Y-220938000D02*
X189860000Y-220938000D01*
X189860000Y-195938000D01*
X209860000Y-195938000D01*
X209860000Y-220938000D01*
D14*
%TO.C,U2*%
X151635000Y-128940969D02*
X151635000Y-151738000D01*
X153635000Y-152338000D02*
X151635000Y-151738000D01*
X153635000Y-152338000D02*
X153635000Y-158135031D01*
X154785000Y-159285030D02*
X176185000Y-159285030D01*
X173235000Y-124688000D02*
X155785000Y-124688000D01*
X177335000Y-158135031D02*
X177335000Y-128835031D01*
X151635000Y-128938000D02*
G75*
G02*
X155785000Y-124683753I4150000J102970D01*
G01*
X154785000Y-159288000D02*
G75*
G02*
X153632030Y-158135030I0J1152970D01*
G01*
X173185000Y-124688000D02*
G75*
G02*
X177332000Y-128835031I0J-4147000D01*
G01*
X177335000Y-158135031D02*
G75*
G02*
X176185000Y-159285030I-1150000J1D01*
G01*
X151130000Y-132588000D02*
X150495000Y-133223000D01*
X150495000Y-131953000D01*
X151130000Y-132588000D01*
G36*
X151130000Y-132588000D02*
G01*
X150495000Y-133223000D01*
X150495000Y-131953000D01*
X151130000Y-132588000D01*
G37*
%TD*%
M02*
