%TF.GenerationSoftware,KiCad,Pcbnew,9.0.3*%
%TF.CreationDate,2025-11-10T22:11:34+01:00*%
%TF.ProjectId,rover,726f7665-722e-46b6-9963-61645f706362,rev?*%
%TF.SameCoordinates,Original*%
%TF.FileFunction,Soldermask,Bot*%
%TF.FilePolarity,Negative*%
%FSLAX46Y46*%
G04 Gerber Fmt 4.6, Leading zero omitted, Abs format (unit mm)*
G04 Created by KiCad (PCBNEW 9.0.3) date 2025-11-10 22:11:34*
%MOMM*%
%LPD*%
G01*
G04 APERTURE LIST*
G04 Aperture macros list*
%AMRoundRect*
0 Rectangle with rounded corners*
0 $1 Rounding radius*
0 $2 $3 $4 $5 $6 $7 $8 $9 X,Y pos of 4 corners*
0 Add a 4 corners polygon primitive as box body*
4,1,4,$2,$3,$4,$5,$6,$7,$8,$9,$2,$3,0*
0 Add four circle primitives for the rounded corners*
1,1,$1+$1,$2,$3*
1,1,$1+$1,$4,$5*
1,1,$1+$1,$6,$7*
1,1,$1+$1,$8,$9*
0 Add four rect primitives between the rounded corners*
20,1,$1+$1,$2,$3,$4,$5,0*
20,1,$1+$1,$4,$5,$6,$7,0*
20,1,$1+$1,$6,$7,$8,$9,0*
20,1,$1+$1,$8,$9,$2,$3,0*%
%AMFreePoly0*
4,1,21,-0.952500,0.702500,-0.933470,0.798171,-0.879277,0.879277,-0.798171,0.933470,-0.702500,0.952500,0.702500,0.952500,0.798171,0.933470,0.879277,0.879277,0.933470,0.798171,0.952500,0.702500,0.952500,-0.702500,0.933470,-0.798171,0.879277,-0.879277,0.798171,-0.933470,0.702500,-0.952500,-0.702500,-0.952500,-0.798171,-0.933470,-0.879277,-0.879277,-0.933470,-0.798171,-0.952500,-0.702500,
-0.952500,0.702500,-0.952500,0.702500,$1*%
G04 Aperture macros list end*
%ADD10RoundRect,0.250000X0.350000X-0.350000X0.350000X0.350000X-0.350000X0.350000X-0.350000X-0.350000X0*%
%ADD11C,1.200000*%
%ADD12RoundRect,0.250000X0.550000X-0.550000X0.550000X0.550000X-0.550000X0.550000X-0.550000X-0.550000X0*%
%ADD13C,1.600000*%
%ADD14C,1.400000*%
%ADD15R,1.700000X1.700000*%
%ADD16C,1.700000*%
%ADD17O,1.700000X1.700000*%
%ADD18RoundRect,0.240000X-0.660000X-0.560000X0.660000X-0.560000X0.660000X0.560000X-0.660000X0.560000X0*%
%ADD19C,1.800000*%
%ADD20FreePoly0,180.000000*%
%ADD21C,1.905000*%
%ADD22C,3.000000*%
%ADD23R,2.000000X2.000000*%
%ADD24O,2.000000X1.600000*%
G04 APERTURE END LIST*
D10*
%TO.C,C7*%
X179959000Y-210268600D03*
D11*
X179959000Y-208268600D03*
%TD*%
D12*
%TO.C,C6*%
X175260000Y-206056113D03*
D13*
X175260000Y-203556113D03*
%TD*%
D14*
%TO.C,R2*%
X207772000Y-96520000D03*
X215392000Y-96520000D03*
%TD*%
%TO.C,R1*%
X148666200Y-158394400D03*
X148666200Y-166014400D03*
%TD*%
D15*
%TO.C,J1*%
X218313000Y-177165000D03*
D16*
X220853000Y-177165000D03*
X223393000Y-177165000D03*
X225933000Y-177165000D03*
X228473000Y-177165000D03*
X231013000Y-177165000D03*
%TD*%
D15*
%TO.C,J2*%
X160502000Y-177184000D03*
D17*
X163042000Y-177184000D03*
D16*
X165582000Y-177184000D03*
D17*
X168122000Y-177184000D03*
X154279000Y-166008000D03*
X154279000Y-163468000D03*
%TD*%
D13*
%TO.C,C5*%
X230993000Y-183134000D03*
X228493000Y-183134000D03*
%TD*%
%TO.C,C4*%
X192826000Y-102870000D03*
X195326000Y-102870000D03*
%TD*%
%TO.C,C3*%
X195326000Y-99314000D03*
X192826000Y-99314000D03*
%TD*%
%TO.C,C1*%
X184658000Y-210292000D03*
X184658000Y-207792000D03*
%TD*%
D18*
%TO.C,J5*%
X210566000Y-87727800D03*
D19*
X208026000Y-87727800D03*
X210566000Y-90297000D03*
X208026000Y-90297000D03*
X191643000Y-87727800D03*
X195707000Y-87727800D03*
%TD*%
D15*
%TO.C,J4*%
X200152000Y-187960000D03*
D16*
X200152000Y-185420000D03*
%TD*%
D13*
%TO.C,C2*%
X175788000Y-163195000D03*
X178288000Y-163195000D03*
%TD*%
D20*
%TO.C,J3*%
X202860000Y-197188000D03*
D21*
X196860000Y-197188000D03*
X191360000Y-216938000D03*
X191360000Y-211438000D03*
X213360000Y-199938000D03*
X213360000Y-202438000D03*
X213360000Y-204938000D03*
%TD*%
D22*
%TO.C,U2*%
X154285000Y-128188000D03*
X174685000Y-128188000D03*
D23*
X153035000Y-132588000D03*
D24*
X153035000Y-135128000D03*
X153035000Y-137668000D03*
X153035000Y-140208000D03*
X153035000Y-142748000D03*
X153035000Y-145288000D03*
X153035000Y-147828000D03*
X153035000Y-150368000D03*
X175895000Y-150368000D03*
X175895000Y-147828000D03*
X175895000Y-145288000D03*
X175895000Y-142748000D03*
X175895000Y-140208000D03*
X175895000Y-137668000D03*
X175895000Y-135128000D03*
X175895000Y-132588000D03*
%TD*%
M02*
