M48
; DRILL file {KiCad 9.0.3} date 2025-11-10T22:11:36+0100
; FORMAT={-:-/ absolute / metric / decimal}
; #@! TF.CreationDate,2025-11-10T22:11:36+01:00
; #@! TF.GenerationSoftware,Kicad,Pcbnew,9.0.3
; #@! TF.FileFunction,Plated,1,2,PTH
FMAT,2
METRIC
; #@! TA.AperFunction,Plated,PTH,ComponentDrill
T1C0.600
; #@! TA.AperFunction,Plated,PTH,ComponentDrill
T2C0.700
; #@! TA.AperFunction,Plated,PTH,ComponentDrill
T3C0.800
; #@! TA.AperFunction,Plated,PTH,ComponentDrill
T4C0.900
; #@! TA.AperFunction,Plated,PTH,ComponentDrill
T5C1.000
%
G90
G05
T1
X179.959Y-208.269
X179.959Y-210.269
T2
X148.666Y-158.394
X148.666Y-166.014
X207.772Y-96.52
X215.392Y-96.52
T3
X175.26Y-203.556
X175.26Y-206.056
X175.788Y-163.195
X178.288Y-163.195
X184.658Y-207.792
X184.658Y-210.292
X192.826Y-99.314
X192.826Y-102.87
X195.326Y-99.314
X195.326Y-102.87
X228.493Y-183.134
X230.993Y-183.134
T4
X153.035Y-132.588
X153.035Y-135.128
X153.035Y-137.668
X153.035Y-140.208
X153.035Y-142.748
X153.035Y-145.288
X153.035Y-147.828
X153.035Y-150.368
X175.895Y-132.588
X175.895Y-135.128
X175.895Y-137.668
X175.895Y-140.208
X175.895Y-142.748
X175.895Y-145.288
X175.895Y-147.828
X175.895Y-150.368
T5
X154.279Y-163.468
X154.279Y-166.008
X160.502Y-177.184
X163.042Y-177.184
X165.582Y-177.184
X168.122Y-177.184
X191.36Y-211.438
X191.36Y-216.938
X191.643Y-87.728
X195.707Y-87.728
X196.86Y-197.188
X200.152Y-185.42
X200.152Y-187.96
X202.86Y-197.188
X208.026Y-87.728
X208.026Y-90.297
X210.566Y-87.728
X210.566Y-90.297
X213.36Y-199.938
X213.36Y-202.438
X213.36Y-204.938
X218.313Y-177.165
X220.853Y-177.165
X223.393Y-177.165
X225.933Y-177.165
X228.473Y-177.165
X231.013Y-177.165
M30
